<?xml version="1.0" encoding="utf-8"?>
<!-- Generator: Adobe Illustrator 16.0.0, SVG Export Plug-In . SVG Version: 6.00 Build 0)  -->
<!DOCTYPE svg PUBLIC "-//W3C//DTD SVG 1.1//EN" "http://www.w3.org/Graphics/SVG/1.1/DTD/svg11.dtd">
<svg version="1.1" id="Camada_1" xmlns="http://www.w3.org/2000/svg" xmlns:xlink="http://www.w3.org/1999/xlink" x="0px" y="0px"
	 width="500px" height="200px" viewBox="0 0 500 200" enable-background="new 0 0 500 200" xml:space="preserve">
<g>
	<path fill="#FFFFFF" d="M188.234,147.737l-5.758,17.438h-7.403l18.836-55.44h8.636l18.92,55.44h-7.65l-5.923-17.438H188.234z
		 M206.412,142.145l-5.429-15.957c-1.233-3.622-2.056-6.911-2.878-10.118h-0.165c-0.822,3.289-1.728,6.663-2.796,10.033
		l-5.43,16.042H206.412z"/>
	<path fill="#FFFFFF" d="M229.116,136.141c0-4.115-0.083-7.486-0.33-10.776h6.416l0.411,6.58h0.165
		c1.974-3.782,6.581-7.486,13.161-7.486c5.511,0,14.066,3.292,14.066,16.946v23.771h-7.239v-22.95
		c0-6.415-2.386-11.763-9.212-11.763c-4.771,0-8.473,3.374-9.707,7.403c-0.329,0.904-0.494,2.14-0.494,3.374v23.936h-7.238V136.141z
		"/>
	<path fill="#FFFFFF" d="M296.813,165.176l-0.576-5.019h-0.246c-2.222,3.126-6.499,5.923-12.175,5.923
		c-8.062,0-12.173-5.675-12.173-11.433c0-9.625,8.555-14.889,23.937-14.807v-0.822c0-3.289-0.905-9.212-9.048-9.212
		c-3.702,0-7.568,1.151-10.365,2.96l-1.646-4.771c3.291-2.137,8.062-3.537,13.079-3.537c12.174,0,15.135,8.309,15.135,16.287v14.889
		c0,3.456,0.166,6.827,0.658,9.542H296.813z M295.743,144.859c-7.897-0.166-16.862,1.233-16.862,8.964
		c0,4.689,3.125,6.911,6.828,6.911c5.182,0,8.471-3.29,9.624-6.663c0.247-0.741,0.411-1.563,0.411-2.304V144.859z"/>
	<path fill="#FFFFFF" d="M322.805,113.931v11.434h10.365v5.51h-10.365v21.471c0,4.935,1.398,7.73,5.429,7.73
		c1.891,0,3.289-0.244,4.195-0.492l0.329,5.43c-1.398,0.574-3.619,0.985-6.416,0.985c-3.373,0-6.086-1.069-7.813-3.043
		c-2.057-2.139-2.798-5.676-2.798-10.365v-21.716h-6.168v-5.51h6.168v-9.543L322.805,113.931z"/>
	<path fill="#FFFFFF" d="M376.93,144.941c0,14.723-10.201,21.139-19.824,21.139c-10.776,0-19.084-7.897-19.084-20.48
		c0-13.326,8.719-21.142,19.742-21.142C369.198,124.458,376.93,132.767,376.93,144.941z M345.343,145.353
		c0,8.719,5.018,15.3,12.092,15.3c6.91,0,12.092-6.5,12.092-15.464c0-6.744-3.373-15.3-11.927-15.3
		C349.045,129.889,345.343,137.785,345.343,145.353z"/>
	<path fill="#FFFFFF" d="M386.061,136.141c0-4.115-0.083-7.486-0.33-10.776h6.333l0.33,6.416h0.247
		c2.221-3.785,5.922-7.322,12.502-7.322c5.43,0,9.542,3.292,11.269,7.979h0.165c1.233-2.219,2.796-3.948,4.442-5.182
		c2.385-1.809,5.017-2.797,8.801-2.797c5.265,0,13.078,3.456,13.078,17.275v23.442h-7.074v-22.539
		c0-7.648-2.796-12.256-8.636-12.256c-4.114,0-7.321,3.044-8.555,6.581c-0.329,0.986-0.575,2.304-0.575,3.619v24.595h-7.075v-23.854
		c0-6.334-2.796-10.941-8.308-10.941c-4.524,0-7.814,3.619-8.966,7.238c-0.411,1.069-0.576,2.303-0.576,3.537v24.02h-7.074V136.141z
		"/>
	<path fill="#FFFFFF" d="M456.225,125.364l8.719,23.525c0.904,2.633,1.892,5.758,2.55,8.144h0.165
		c0.74-2.386,1.563-5.429,2.55-8.308l7.896-23.361h7.649l-10.856,28.377c-5.183,13.656-8.72,20.646-13.656,24.924
		c-3.537,3.126-7.074,4.359-8.883,4.689l-1.809-6.086c1.809-0.577,4.194-1.729,6.333-3.537c1.975-1.563,4.441-4.359,6.086-8.063
		c0.329-0.739,0.576-1.314,0.576-1.727c0-0.41-0.164-0.986-0.493-1.892l-14.724-36.686H456.225z"/>
</g>
<g>
	<path fill="#FFFFFF" d="M223.167,103.247c-2.932,1.465-8.795,2.932-16.308,2.932c-17.407,0-30.508-10.993-30.508-31.241
		c0-19.33,13.101-32.432,32.249-32.432c7.696,0,12.551,1.65,14.658,2.75l-1.923,6.503c-3.024-1.465-7.33-2.564-12.46-2.564
		c-14.476,0-24.095,9.253-24.095,25.468c0,15.118,8.703,24.828,23.729,24.828c4.855,0,9.802-1.008,13.009-2.565L223.167,103.247z"/>
	<path fill="#FFFFFF" d="M284.089,73.748c0,21.254-12.918,32.523-28.676,32.523c-16.308,0-27.76-12.643-27.76-31.333
		c0-19.604,12.185-32.432,28.676-32.432C273.187,42.506,284.089,55.425,284.089,73.748z M236.174,74.755
		c0,13.193,7.146,25.011,19.697,25.011c12.643,0,19.788-11.635,19.788-25.652c0-12.276-6.413-25.103-19.697-25.103
		C242.771,49.011,236.174,61.196,236.174,74.755z"/>
	<path fill="#FFFFFF" d="M294.438,44.339c4.031-0.824,9.803-1.283,15.3-1.283c8.52,0,14.018,1.558,17.865,5.039
		c3.115,2.749,4.856,6.963,4.856,11.727c0,8.154-5.131,13.559-11.635,15.757v0.274c4.764,1.65,7.604,6.048,9.07,12.46
		c2.016,8.612,3.482,14.566,4.765,16.948h-8.246c-1.008-1.74-2.381-7.053-4.122-14.748c-1.833-8.521-5.131-11.727-12.368-12.001
		h-7.513v26.75h-7.971V44.339z M302.409,72.465h8.154c8.52,0,13.925-4.672,13.925-11.727c0-7.971-5.771-11.452-14.2-11.543
		c-3.848,0-6.597,0.366-7.879,0.732V72.465z"/>
	<path fill="#FFFFFF" d="M343.726,44.248c3.848-0.642,8.886-1.191,15.3-1.191c7.879,0,13.65,1.833,17.315,5.13
		c3.391,2.931,5.405,7.421,5.405,12.917c0,5.589-1.648,9.986-4.764,13.192c-4.214,4.49-11.085,6.78-18.872,6.78
		c-2.382,0-4.582-0.092-6.414-0.55v24.734h-7.97V44.248z M351.696,74.022c1.741,0.458,3.94,0.641,6.597,0.641
		c9.62,0,15.482-4.671,15.482-13.192c0-8.153-5.771-12.093-14.566-12.093c-3.481,0-6.138,0.275-7.513,0.641V74.022z"/>
	<path fill="#FFFFFF" d="M400.434,43.515v36.554c0,13.834,6.138,19.696,14.384,19.696c9.162,0,15.024-6.046,15.024-19.696V43.515
		h8.063V79.52c0,18.964-9.986,26.751-23.362,26.751c-12.643,0-22.171-7.237-22.171-26.384V43.515H400.434z"/>
	<path fill="#FFFFFF" d="M450.636,95.552c3.573,2.198,8.795,4.031,14.292,4.031c8.154,0,12.918-4.306,12.918-10.536
		c0-5.771-3.297-9.069-11.636-12.276c-10.077-3.573-16.307-8.794-16.307-17.498c0-9.62,7.971-16.766,19.972-16.766
		c6.323,0,10.903,1.467,13.651,3.024l-2.197,6.504c-2.016-1.099-6.139-2.931-11.727-2.931c-8.429,0-11.635,5.039-11.635,9.253
		c0,5.771,3.756,8.612,12.276,11.91C480.686,74.297,486,79.336,486,88.406c0,9.528-7.055,17.773-21.622,17.773
		c-5.954,0-12.46-1.741-15.757-3.939L450.636,95.552z"/>
</g>
<path fill="#34616C" d="M16,60.658v79.422c0,19.333,15.672,35.004,35.005,35.004h39.711V50.688l0.49-0.598l-0.49-0.466V25.652
	H51.005C31.672,25.652,16,41.324,16,60.658"/>
<path fill="#34616C" d="M130.427,25.652H92.058c4.936,11.133,4.75,21.446,1.318,23.175c-0.14,1.064-0.164,1.064-0.164,1.064v125.192
	h37.214c19.333,0,35.005-15.67,35.005-35.003V60.658C165.432,41.324,149.76,25.652,130.427,25.652"/>
<path fill="#45C5DF" d="M85.797,33.214c0,0-5.472,0.158-9.577,0.789c0.513,4.42,0.57,7.314,0.57,7.314s-2.337-5.736-2.623-6.945
	c-4.959,0.631-11.229,3.209-11.229,3.209s2.679,6.315,3.534,8.683c-2.509-2.053-5.588-7.841-5.588-7.841s-4.617,2.158-9.348,5.631
	c3.991,4.315,6.499,8.157,6.499,8.157s-6.669-5.735-7.81-7.157c-3.991,3.052-12.485,10.682-13.112,19.365
	c-0.627,8.681,0.456,15.786,0.57,22.311c4.846-6.472,7.355-7.841,6.955-27.205c1.825,2.526,1.368,13.839,1.368,13.839
	s3.763-3.105,9.691-4.579c-0.741-5.419-1.254-8.524-1.653-9.683c2.337,1.527,3.136,9.367,3.136,9.367s5.472-0.894,10.66-0.63
	c-5.016-7.051-6.481-11.262-6.481-11.262s5.854,6.947,8.648,11.63c5.301,4.788,7.125,11.155,9.862,17.154
	c0.741-0.368,1.425-0.579,1.425-0.579s-4.333-13.681-5.929-17.943c-1.595-4.262-6.1-13.628-6.1-13.628s4.619,5.314,8.095,15.049
	c3.478,9.735,5.188,16.05,5.188,16.05s0.684-0.264,1.255-0.315c-2.28-18.312-3.706-26.153-4.106-28.521
	c-0.398-2.368-1.539-9.051-1.539-9.051s3.591,11.472,5.073,22.575c1.483,11.102,1.768,14.787,1.768,14.787h0.798V33.214z"/>
<path fill="#45C5DF" d="M69.419,70.101c-3.249-2.309-22.119-1.316-25.025,9.577c5.927-4.525,14.457-6.314,16.947-4.63
	c-5.66-0.947-18.486,4.42-21.279,13.523c2.507,8.945,6.897,14.259,19.667,14.259c14.138,0,14.993-14.048,18.983-16.785
	C78.711,86.045,73.81,73.22,69.419,70.101 M61.358,94.937c-6.882-0.05-10.449-6.838-10.449-6.838h-1.826
	c0,0,0.856-1.369,2.795-2.895c4.149-3.268,9.178-3.894,12.199-2.948c3.021,0.948,6.955,4.474,6.955,4.474
	c-1.368-0.421-2.679-0.772-2.679-0.772s1.083,3.403-1.369,5.561c4.333-1.368,7.411-5.999,9.064-6.578
	C73.77,88.992,68.24,94.99,61.358,94.937"/>
<path fill="#45C5DF" d="M85.797,84.94c0,0-5.928-0.263-9.121,7.79c3.99-3.79,7.126-3.211,7.126-3.211s-5.815,2.526-7.126,4.92
	c-0.97,2.922-0.912,4.551-1.026,5.762c3.061-3.367,7.411-4.683,7.411-4.683s-6.898,5.208-7.924,7.631
	c-0.569,2.261-1.367,4.683-1.367,4.683s4.16-4.474,7.809-4.474c-4.56,2.367-8.437,7.999-8.437,7.999s-0.228,2.052-0.456,2.42
	c-0.227,0.369-1.7,0.108-0.341-5.789c1.41-6.124,1.854-9.478,2.051-10.996c-2.393,4.418-9.006,12.154-18.014,17.629
	c0.913,2.104,2.281,3.893,2.281,3.893s7.126-6,8.835-6.946c-1.824,2.473-8.112,8.105-8.112,8.105s2.126,3.069,3.552,4.349
	c2.507-3.509,6.499-8.14,6.499-8.14s-4.048,7.419-5.53,9.367c1.311,2.157,3.307,4.156,3.307,4.156s4.275-8.365,6.215-10.892
	c-0.514,2.998-4.448,10.892-4.448,10.892s7.811-1.789,16.818-2.105v-9.26c0,0-3.876-0.054-4.903-0.054
	c-1.025,0-3.192-0.263-3.704-2.261c1.937,1.052,4.047,1.103,8.607,1.052V84.94z"/>
<path fill="#45C5DF" d="M68.81,102.146c0,0-6.556,7.946-14.424,11.368c-7.867,3.418-15.152-0.896-17.467-6.104
	c-2.314-5.211-2.143-5.788-2.143-5.788s0.285-1.634,0.684-2.633c1.459,3.473,4.902,8.053,7.753,9.945
	c2.851,1.895,7.183,2.21,11.231,0.212c-5.701,0.894-9.122,0.262-11.972-2.633c-2.85-2.894-5.017-6.472-6.329-9.891
	c0.775-2.685,2.282-3.918,3.25-6.42c1.368,4.578,3.876,9.785,8.551,11.841C52.618,104.095,61.842,105.734,68.81,102.146"/>
<path fill="#45C5DF" d="M45.038,115.725c0,0,5.897,1.577,9.804-0.527c1.54,3.263,6.271,10.525,10.946,15.049
	c-3.221,1.79-5.131,4.526-5.131,4.526s-10.375-6.104-13.568-8.734c0.228,1.577,1.995,2.841,1.995,2.841s-2.109,8.208-2.223,10.628
	c2.223-3.253,3.763-9.47,3.763-9.47s1.749,1.121,3.041,2.033c-0.76,2.666-2.281,7.437-2.281,7.437s1.749-2.313,3.725-6.663
	c2.28,1.611,4.864,3.085,4.864,3.085s-1.976,4-2.737,8.421c-1.52,0-6.613-1.052-9.501,0.49c4.055-0.281,9.196,0.912,9.196,0.912
	s-1.139,6.385-1.519,11.718c-6.329-4.842-12.998-11.999-14.063-16.348c-1.063-4.351-1.063-23.942-2.28-28.345
	c1.596,1.262,3.193,2.245,3.193,2.245s4.637,5.613,8.816,7.365C47.735,119.303,45.038,115.725,45.038,115.725"/>
<path fill="#45C5DF" d="M56.381,158.241c0,0,1.463-12.277,3.667-17.961c2.205-5.685,4.561-8.351,11.477-9.612
	c6.918-1.264,14.271-1.264,14.271-1.264v7.508l-21.113,0.563c0,0,1.521,1.333,9.806,1.333c8.286,0,11.307-0.072,11.307-0.072v30.872
	H83.84c0,0,0.076-6.806-0.988-8.7c-1.065,2.176-0.684,8.7-0.684,8.7s-2.433-0.07-3.877-0.42c0-3.158-0.304-8.489-0.304-8.489
	s-1.597,3.084-1.521,8.208c-2.128-0.281-4.104-1.192-4.104-1.192s-0.151-4.983,0.912-7.929c-1.824,3.298-2.508,7.226-2.508,7.226
	s-1.747-0.49-4.333-2.174c0.305-5.052,1.102-9.612,4.656-14.242c3.554-4.631,4.958-5.402,4.958-5.402s-3.496,0.912-7.239,5.823
	c-3.744,4.911-4.125,12.838-4.125,12.838s-2.051-1.192-2.811-1.822c0.694-3.859,1.976-6.879,1.976-6.879s-2.052,1.333-3.497,5.966
	c-1.291-0.492-1.899-1.192-1.899-1.192s1.097-4.14,2.905-6.456c-2.829,1.964-3.97,5.683-3.97,5.683L56.381,158.241z"/>
<path fill="#45C5DF" d="M134.844,64.842c-2.925,3.54-5.215,4.028-8.013,4.272c-2.798,0.244-3.815-0.489-3.435-1.831
	c0.382-1.343,1.527-0.122,5.342-0.977c3.816-0.853,5.343-4.759,5.089-7.811c-0.254-3.051-2.927-7.445-9.287-6.957
	c0.382-4.028-3.053-9.032-8.013-8.299c1.271,2.197,0.763,4.638,0.636,5.858c-0.081,0.771-0.77,2.173-1.488,3.256
	c1.1,0.457,2.17,1.23,3.098,2.456c1.665,2.204,2.294,5.094,1.64,7.542c-0.477,1.787-1.584,3.183-3.208,4.077
	c0.572,0.74,1.034,1.652,1.31,2.779c0.145,0.589-0.238,1.182-0.853,1.32c-0.088,0.02-0.176,0.029-0.263,0.029
	c-0.521,0-0.99-0.341-1.114-0.848c-1.041-4.251-5.483-3.924-5.674-3.909c-0.628,0.052-1.185-0.394-1.24-0.998
	c-0.056-0.605,0.41-1.137,1.04-1.191c1.285-0.109,3.319,0.136,5.063,1.245c0.069-0.055,0.144-0.104,0.229-0.143
	c1.296-0.589,2.135-1.567,2.493-2.906c0.481-1.805-0.02-4.044-1.277-5.708c-2.648-3.504-6.644-1.586-6.813-1.5
	c-0.56,0.276-1.25,0.067-1.541-0.469c-0.292-0.537-0.078-1.197,0.48-1.478c0.909-0.459,2.345-0.886,3.928-0.851
	c0.926-1.536,1.399-3.312,1.52-5.789c0.127-2.6-2.798-6.433-7.76-6.433c-4.96,0-7.504,5.004-7.504,7.812
	c0,2.133-0.164,25.227-0.164,25.227c0,3.082,0.336,4.242,1.481,5.401c1.144,1.16,3.625,0.977,6.042,0.977
	c1.797,0,5.218-2.651,10.135-2.651c1.69,0,5.866-1.12,8.86,0.245c6.253,2.853,10.977-0.208,11.683-3.336
	C137.695,71.343,137.71,67.751,134.844,64.842"/>
<path fill="#E6E7E8" d="M140.695,79.982c0.286-2.529,1.218-8.959,0.666-13.974c-0.688-6.25-5.798-16.69-12.94-22.082
	c-12.724-9.606-28.567-8.612-28.567-8.612l0.39,2.923c1.871-0.09,10.341-0.39,17.114,2.118c7.563,2.801,10.434,6.197,14.529,11.554
	c4.097,5.355,6.066,10.011,6.592,13.778c0.686,4.916,0.4,10-0.23,11.575c-0.63,1.575-1.726,3.074-3.533,2.081
	c-1.323-0.727-1.883-3.172-5.979-4.538c-4.096-1.365-10.971-0.629-13.807-0.21c-2.835,0.42-6.941,2.055-8.984,4.097
	c-0.969,0.969-2.75,2.765-4.852,3.186c-1.58,0.315-2.144,0-2.144,0l-0.177,18.841c0,0,1.729-2.222,3.689,1.957
	c1.961,4.181,5.461,9.081,5.322,11.741c-0.14,2.661-1.865,4.62-4.503,4.063c-2.639-0.561-4.508-2.242-4.508-2.242l-0.17-0.055
	l-0.199,13.096l0.61,7.283h4.9l0.701-6.582l1.541,6.582l3.501-0.561l0.28-6.723l1.111,6.303l2.95-0.981l0.84-6.159l1.086,5.601
	l1.925-0.841c0,0,0.49-2.1,1.278-5.461c0.222,2.507,0,4.76,0,4.76l1.671-0.561c0,0,1.617-3.149,0.958-6.72
	c-0.452-2.442,1.274-6.004,5.398-9.146c3.831-2.916,12.645-2.604,15.025-9.864c2.38-7.261,0.321-11.145-0.945-14.284
	C139.164,86.798,140.348,83.066,140.695,79.982 M131.283,96.656c-4.201,6.303-14.581,5.087-19.474,2.545
	c-4.893-2.545-6.747-5.974-6.852-10.31c-0.108-4.353,2.038-8.206,6.852-10.024c6.346-2.396,16.703-1.21,19.224,2.711
	C133.554,85.499,135.484,90.354,131.283,96.656"/>
<path fill="#E6E7E8" d="M132.016,117.29c0,0-3.03,0.363-5.979,3.63c-0.509,5.864-4.69,18.853-6.418,20.871
	c0.502-3.172,0.305-5.287,0-6.633c-1.526,0.192-2.542,0.578-2.542,0.578s0.407,5.283-0.61,7.016c0-3.172-0.406-5.865-1.017-6.536
	l-2.338,0.961c0,0,0.813,4.71-0.813,6.536c0-3.172-0.611-6.536-0.611-6.536l-2.438,0.768c0,0,0.914,3.942-1.221,6.633
	c0.712-3.461,0-6.15,0-6.15l-3.354,0.289c0,0-0.509,5.477-2.237,6.63c0.433-2.8,0-6.727,0-6.727l-4.066,0.383l-0.561,7.111v18.592
	c0,0,6.601,0.193,12.367-2.438c2.949-1.345,6.479-6.368,13.087-12.038c6.608-5.672,5.551-13.757,5.551-13.757
	S128.63,126.688,132.016,117.29"/>
</svg>
