<?xml version="1.0" encoding="utf-8"?>
<!-- Generator: Adobe Illustrator 16.0.0, SVG Export Plug-In . SVG Version: 6.00 Build 0)  -->
<!DOCTYPE svg PUBLIC "-//W3C//DTD SVG 1.1//EN" "http://www.w3.org/Graphics/SVG/1.1/DTD/svg11.dtd">
<svg version="1.1"
	 id="svg2" inkscape:version="0.91 r13725" sodipodi:docname="pitagoras_full.svg" xmlns:dc="http://purl.org/dc/elements/1.1/" xmlns:rdf="http://www.w3.org/1999/02/22-rdf-syntax-ns#" xmlns:inkscape="http://www.inkscape.org/namespaces/inkscape" xmlns:cc="http://creativecommons.org/ns#" xmlns:sodipodi="http://sodipodi.sourceforge.net/DTD/sodipodi-0.dtd" xmlns:svg="http://www.w3.org/2000/svg"
	 xmlns="http://www.w3.org/2000/svg" xmlns:xlink="http://www.w3.org/1999/xlink" x="0px" y="0px" width="80px" height="80px"
	 viewBox="160 110 80 80" enable-background="new 160 110 80 80" xml:space="preserve">
<sodipodi:namedview  inkscape:pageopacity="0" inkscape:window-y="0" inkscape:pageshadow="2" inkscape:window-maximized="0" inkscape:window-height="863" inkscape:current-layer="g10" inkscape:window-x="0" inkscape:window-width="1444" borderopacity="1" showgrid="false" guidetolerance="10" inkscape:cy="515.24203" objecttolerance="10" inkscape:zoom="0.34504966" gridtolerance="10" bordercolor="#666666" inkscape:cx="167.82169" id="namedview4" pagecolor="#ffffff">
	</sodipodi:namedview>
<path opacity="0.1" fill="none" enable-background="new    " d="z"/>
<g>
	<g>
		<g>
			<g>
				<defs>
					<path id="SVGID_1_" d="M200.179,133.124l10.689,10.685h-21.377v21.387h21.377v-21.387l10.688-10.685l-10.688-10.689
						L200.179,133.124L200.179,133.124z M178.804,133.124l10.687,10.685l10.688-10.685l-10.688-10.689L178.804,133.124z"/>
				</defs>
				<clipPath id="SVGID_2_">
					<use xlink:href="#SVGID_1_"  overflow="visible"/>
				</clipPath>
			</g>
		</g>
		<g>
			<g>
				<defs>
					<path id="SVGID_3_" d="M200.179,133.124l10.689,10.685h-21.377v21.387h21.377v-21.387l10.688-10.685l-10.688-10.689
						L200.179,133.124L200.179,133.124z M178.804,133.124l10.687,10.685l10.688-10.685l-10.688-10.689L178.804,133.124z"/>
				</defs>
				<clipPath id="SVGID_4_">
					<use xlink:href="#SVGID_3_"  overflow="visible"/>
				</clipPath>
				<g id="g348_15_" clip-path="url(#SVGID_4_)">
					<g id="g354_15_">
						<g id="g356_15_">
							
								<linearGradient id="path366_1_" gradientUnits="userSpaceOnUse" x1="-512.5059" y1="85.344" x2="-512.1522" y2="85.344" gradientTransform="matrix(-82.0376 82.0376 82.0376 82.0376 -48832.1094 35173.2188)">
								<stop  offset="0" style="stop-color:#ECC83B"/>
								<stop  offset="0.0638" style="stop-color:#ECC83B"/>
								<stop  offset="1" style="stop-color:#C55123"/>
							</linearGradient>
							<path id="path366_15_" inkscape:connector-curvature="0" fill="url(#path366_1_)" d="M200.179,133.124l10.689,10.685h-21.377
								v21.387h21.377v-21.387l10.688-10.685l-10.688-10.689L200.179,133.124L200.179,133.124z M178.804,133.124l10.687,10.685
								l10.688-10.685l-10.688-10.689L178.804,133.124z"/>
						</g>
					</g>
				</g>
			</g>
		</g>
		<g>
			<g>
				<defs>
					<path id="SVGID_5_" d="M200.179,133.124l10.689,10.685h-21.377v21.387h21.377v-21.387l10.688-10.685l-10.688-10.689
						L200.179,133.124L200.179,133.124z M178.804,133.124l10.687,10.685l10.688-10.685l-10.688-10.689L178.804,133.124z"/>
				</defs>
				<clipPath id="SVGID_6_">
					<use xlink:href="#SVGID_5_"  overflow="visible"/>
				</clipPath>
			</g>
		</g>
	</g>
	<g>
		<g>
			<g>
				<defs>
					<path id="SVGID_7_" d="M200.179,133.124l10.689,10.685h-21.377v21.387h21.377v-21.387l10.688-10.685l-10.688-10.689
						L200.179,133.124L200.179,133.124z M178.804,133.124l10.687,10.685l10.688-10.685l-10.688-10.689L178.804,133.124z"/>
				</defs>
				<clipPath id="SVGID_8_">
					<use xlink:href="#SVGID_7_"  overflow="visible"/>
				</clipPath>
			</g>
		</g>
		<g>
			<g>
				<defs>
					<path id="SVGID_9_" d="M200.179,133.124l10.689,10.685h-21.377v21.387h21.377v-21.387l10.688-10.685l-10.688-10.689
						L200.179,133.124L200.179,133.124z M178.804,133.124l10.687,10.685l10.688-10.685l-10.688-10.689L178.804,133.124z"/>
				</defs>
				<clipPath id="SVGID_10_">
					<use xlink:href="#SVGID_9_"  overflow="visible"/>
				</clipPath>
				<g id="g348_12_" clip-path="url(#SVGID_10_)">
					<g id="g354_12_">
						<g id="g356_12_">
							<path id="path366_12_" inkscape:connector-curvature="0" fill="#FFFFFF" d="M200.179,133.124l10.689,10.685h-21.377v21.387
								h21.377v-21.387l10.688-10.685l-10.688-10.689L200.179,133.124L200.179,133.124z M178.804,133.124l10.687,10.685
								l10.688-10.685l-10.688-10.689L178.804,133.124z"/>
						</g>
					</g>
				</g>
			</g>
		</g>
		<g>
			<g>
				<defs>
					<path id="SVGID_11_" d="M200.179,133.124l10.689,10.685h-21.377v21.387h21.377v-21.387l10.688-10.685l-10.688-10.689
						L200.179,133.124L200.179,133.124z M178.804,133.124l10.687,10.685l10.688-10.685l-10.688-10.689L178.804,133.124z"/>
				</defs>
				<clipPath id="SVGID_12_">
					<use xlink:href="#SVGID_11_"  overflow="visible"/>
				</clipPath>
			</g>
		</g>
	</g>
</g>
<g id="g370">
	<g>
		<g>
			<g id="g376_15_" transform="translate(172.5249,416.0635)">
				<path id="path378_15_" inkscape:connector-curvature="0" fill="#4D4D4C" d="M44.955-238.18c0,0-0.555-0.554-1.303-0.554
					c-0.718,0-1.311,0.242-1.311,1.216v6.029h-1.902v-6.029c0-1.926,1.185-3.064,3.049-3.064c0.609,0,1.451,0.211,1.818,0.546
					c0.271,0.25,0.257,0.663,0.07,1.092C45.282-238.71,45.055-238.336,44.955-238.18"/>
			</g>
			<g id="g380_15_" transform="translate(102.6626,425.9365)">
				<path id="path382_15_" inkscape:connector-curvature="0" fill="#4D4D4C" d="M72.138-254.09c-0.64,0-1.162,0.538-1.162,1.193
					s0.522,1.186,1.162,1.186c0.64,0,1.162-0.53,1.162-1.186S72.778-254.09,72.138-254.09"/>
			</g>
			<g id="g384_15_" transform="translate(101.207,419.7866)">
				<path id="path386_15_" inkscape:connector-curvature="0" fill="#4D4D4C" d="M72.705-244.18v7.729
					c0,1.226,0.982,1.459,1.903,1.303v-7.729C74.607-244.103,73.625-244.337,72.705-244.18"/>
			</g>
			<g id="g388_15_" transform="translate(155.3423,419.9941)">
				<path id="path390_15_" inkscape:connector-curvature="0" fill="#4D4D4C" d="M51.639-244.513c-2.738,0-4.173,2.098-4.173,4.68
					c0,2.59,1.435,4.688,4.173,4.688s4.18-2.098,4.18-4.688C55.819-242.415,54.377-244.513,51.639-244.513 M51.639-236.838
					c-1.631,0-2.184-1.342-2.184-2.995s0.553-2.995,2.184-2.995c1.63,0,2.191,1.342,2.191,2.995S53.269-236.838,51.639-236.838"/>
			</g>
			<g id="g392_15_" transform="translate(92.1143,419.9941)">
				<path id="path394_15_" inkscape:connector-curvature="0" fill="#4D4D4C" d="M76.244-244.513c-1.544,0-2.214,0.647-2.433,0.85
					c-0.406-0.951-1.778-0.67-1.778-0.67v12.837h1.903v-4.344c0.133,0.102,0.585,0.694,2.122,0.694c0.437,0,3.853,0,3.853-4.829
					C79.91-244.793,76.244-244.513,76.244-244.513 M75.807-236.838c-1.146,0-1.809-0.804-1.872-0.882v-4.07
					c0-0.274,0.164-0.508,0.491-0.719c0.343-0.226,0.804-0.335,1.342-0.335c0.405,0,2.121-0.016,2.121,2.957
					C77.89-238.874,77.757-236.838,75.807-236.838"/>
			</g>
			<g id="g396_15_" transform="translate(142.6938,418.5933)">
				<path id="path398_15_" inkscape:connector-curvature="0" fill="#4D4D4C" d="M56.559-242.255
					c-0.211-0.202-0.881-0.857-2.426-0.857c0,0-3.666-0.28-3.666,4.539c0,4.829,3.416,4.829,3.845,4.829
					c1.544,0,1.997-0.586,2.13-0.695c0,1.28-0.21,1.678-0.382,1.95c-0.171,0.266-0.414,0.476-0.725,0.623
					c-0.32,0.149-0.757,0.228-1.311,0.228c-1.677,0-2.535-1.115-2.535-1.115s-0.788,0.772-0.788,1.295
					c0,0.804,1.357,1.504,3.323,1.504c2.27,0,3.096-0.881,3.432-1.302c0.327-0.421,0.889-1.278,0.889-3.541v-8.127
					C58.344-242.925,56.963-243.214,56.559-242.255 M56.44-236.311c-0.062,0.078-0.725,0.874-1.872,0.874
					c-1.95,0-2.09-2.036-2.09-3.049c0-2.965,1.724-2.957,2.129-2.957c0.538,0,0.99,0.117,1.341,0.335
					c0.328,0.211,0.492,0.444,0.492,0.719L56.44-236.311L56.44-236.311z"/>
			</g>
			<g id="g400_15_" transform="translate(112.4946,404.6626)">
				<path id="path402_15_" inkscape:connector-curvature="0" fill="#4D4D4C" d="M68.312-219.813c1.458,0,2.449-0.711,2.449-1.287
					c0-0.531-0.483-1.069-0.717-1.312c0,0-0.593,0.905-1.498,0.905c-0.429,0-0.998-0.133-0.998-1.303v-4.499h1.676
					c1.068,0,1.271-0.866,1.139-1.677h-0.008h-2.808v-1.288c0-1.224-0.983-1.458-1.903-1.302v8.657
					C65.644-221.968,65.644-219.813,68.312-219.813"/>
			</g>
			<g id="g404_15_" transform="translate(129.7358,416.8296)">
				<path id="path406_15_" inkscape:connector-curvature="0" fill="#4D4D4C" d="M61.599-239.415
					c-0.109-0.429-0.499-1.934-3.244-1.934c-1.794,0-2.792,0.601-2.995,0.749c-0.242,0.171-0.367,0.374-0.367,0.593
					c0,0.132,0.016,0.305,0.109,0.499c0.195,0.405,0.483,0.624,0.483,0.624s1.24-0.78,2.582-0.78c0.686,0,1.139,0.125,1.365,0.367
					c0.375,0.396,0.343,1.2,0.343,1.2c-0.063-0.008-0.132-0.008-0.203-0.008c0,0-5.226-0.288-5.226,3.284
					c0,0.537,0.093,0.991,0.273,1.341c0.187,0.352,0.733,1.388,2.636,1.388c1.732,0,2.387-0.702,2.645-0.927
					c0.218,0.631,0.679,1.037,1.762,0.826v-5.803C61.763-238.525,61.709-239.001,61.599-239.415 M59.892-234.89
					c-0.046,1.021-3.533,2.06-3.533-0.016c0-1.904,3.533-1.654,3.533-1.654V-234.89z"/>
			</g>
			<g id="g408_15_" transform="translate(186.2324,416.8296)">
				<path id="path410_15_" inkscape:connector-curvature="0" fill="#4D4D4C" d="M39.624-239.415
					c-0.11-0.429-0.508-1.934-3.254-1.934c-1.793,0-2.783,0.601-2.994,0.749c-0.242,0.171-0.367,0.374-0.367,0.593
					c0,0.132,0.016,0.305,0.109,0.499c0.195,0.405,0.483,0.624,0.483,0.624s1.24-0.78,2.581-0.78c0.688,0,1.14,0.125,1.365,0.367
					c0.375,0.396,0.344,1.2,0.344,1.2c-0.063-0.008-0.125-0.008-0.195-0.008c0,0-5.233-0.288-5.233,3.284
					c0,0.537,0.093,0.991,0.272,1.341c0.188,0.352,0.741,1.388,2.637,1.388c1.731,0,2.387-0.702,2.651-0.927
					c0.21,0.631,0.671,1.037,1.755,0.826v-5.803C39.778-238.525,39.725-239.001,39.624-239.415 M37.907-234.89
					c-0.047,1.021-3.533,2.06-3.533-0.016c0-1.904,3.533-1.654,3.533-1.654V-234.89z"/>
			</g>
			<g id="g412_15_" transform="translate(199.8037,409.3867)">
				<path id="path414_15_" inkscape:connector-curvature="0" fill="#4D4D4C" d="M34.343-227.424c0,0.476-0.085,0.904-0.296,1.256
					c-0.967,1.605-2.762,1.605-3.206,1.605c-1.81,0-2.628-0.623-2.769-0.771c-0.148-0.156-0.227-0.336-0.227-0.516
					c0-0.507,0.585-1.35,0.585-1.35s1.022,1.022,2.457,1.022c1.544,0,1.567-0.905,1.567-1.123c0-0.219-0.055-0.39-0.132-0.53
					c-0.228-0.343-0.569-0.492-0.952-0.593c-0.374-0.102-1.888-0.336-2.598-0.953c-0.258-0.217-0.483-0.467-0.646-0.771
					c-0.164-0.312-0.25-0.693-0.25-1.146c0-1.154,0.71-1.763,1.021-1.973c0.305-0.212,1.068-0.641,2.246-0.641
					c1.209,0,2.028,0.375,2.27,0.516c0.266,0.141,0.711,0.413,0.711,0.865c0,0.672-0.641,1.17-0.641,1.17s-0.928-0.936-2.301-0.936
					c-0.148,0-1.436-0.009-1.436,0.904c0,0.156,0.031,0.289,0.103,0.39c0.077,0.109,0.187,0.212,0.327,0.289
					c0.148,0.094,0.328,0.164,0.53,0.227c0.211,0.071,0.444,0.133,0.694,0.195c0.367,0.085,0.732,0.195,1.076,0.319
					C34.343-229.28,34.343-227.901,34.343-227.424"/>
			</g>
			<g id="g416_15_" transform="translate(122.3003,421.8086)">
				<path id="path418_15_" inkscape:connector-curvature="0" fill="#4D4D4C" d="M64.496-247.435c0,0,1.49-1.95,1.638-2.146
					c0.063-0.085,0.468-0.709,1.107-0.709c0.632,0,1.295,0.6,1.295,0.6l-1.965,2.122c-0.149,0.155-0.476,0.562-1.061,0.562
					C64.995-247.006,64.496-247.435,64.496-247.435"/>
			</g>
		</g>
	</g>
	<g>
		<g>
			<g id="g376_12_" transform="translate(172.5249,416.0635)">
				<path id="path378_12_" inkscape:connector-curvature="0" fill="#FFFFFF" d="M44.955-238.18c0,0-0.555-0.554-1.303-0.554
					c-0.718,0-1.311,0.242-1.311,1.216v6.029h-1.902v-6.029c0-1.926,1.185-3.064,3.049-3.064c0.609,0,1.451,0.211,1.818,0.546
					c0.271,0.25,0.257,0.663,0.07,1.092C45.282-238.71,45.055-238.336,44.955-238.18"/>
			</g>
			<g id="g380_12_" transform="translate(102.6626,425.9365)">
				<path id="path382_12_" inkscape:connector-curvature="0" fill="#FFFFFF" d="M72.138-254.09c-0.64,0-1.162,0.538-1.162,1.193
					s0.522,1.186,1.162,1.186c0.64,0,1.162-0.53,1.162-1.186S72.778-254.09,72.138-254.09"/>
			</g>
			<g id="g384_12_" transform="translate(101.207,419.7866)">
				<path id="path386_12_" inkscape:connector-curvature="0" fill="#FFFFFF" d="M72.705-244.18v7.729
					c0,1.226,0.982,1.459,1.903,1.303v-7.729C74.607-244.103,73.625-244.337,72.705-244.18"/>
			</g>
			<g id="g388_12_" transform="translate(155.3423,419.9941)">
				<path id="path390_12_" inkscape:connector-curvature="0" fill="#FFFFFF" d="M51.639-244.513c-2.738,0-4.173,2.098-4.173,4.68
					c0,2.59,1.435,4.688,4.173,4.688s4.18-2.098,4.18-4.688C55.819-242.415,54.377-244.513,51.639-244.513 M51.639-236.838
					c-1.631,0-2.184-1.342-2.184-2.995s0.553-2.995,2.184-2.995c1.63,0,2.191,1.342,2.191,2.995S53.269-236.838,51.639-236.838"/>
			</g>
			<g id="g392_12_" transform="translate(92.1143,419.9941)">
				<path id="path394_12_" inkscape:connector-curvature="0" fill="#FFFFFF" d="M76.244-244.513c-1.544,0-2.214,0.647-2.433,0.85
					c-0.406-0.951-1.778-0.67-1.778-0.67v12.837h1.903v-4.344c0.133,0.102,0.585,0.694,2.122,0.694c0.437,0,3.853,0,3.853-4.829
					C79.91-244.793,76.244-244.513,76.244-244.513 M75.807-236.838c-1.146,0-1.809-0.804-1.872-0.882v-4.07
					c0-0.274,0.164-0.508,0.491-0.719c0.343-0.226,0.804-0.335,1.342-0.335c0.405,0,2.121-0.016,2.121,2.957
					C77.89-238.874,77.757-236.838,75.807-236.838"/>
			</g>
			<g id="g396_12_" transform="translate(142.6938,418.5933)">
				<path id="path398_12_" inkscape:connector-curvature="0" fill="#FFFFFF" d="M56.559-242.255
					c-0.211-0.202-0.881-0.857-2.426-0.857c0,0-3.666-0.28-3.666,4.539c0,4.829,3.416,4.829,3.845,4.829
					c1.544,0,1.997-0.586,2.13-0.695c0,1.28-0.21,1.678-0.382,1.95c-0.171,0.266-0.414,0.476-0.725,0.623
					c-0.32,0.149-0.757,0.228-1.311,0.228c-1.677,0-2.535-1.115-2.535-1.115s-0.788,0.772-0.788,1.295
					c0,0.804,1.357,1.504,3.323,1.504c2.27,0,3.096-0.881,3.432-1.302c0.327-0.421,0.889-1.278,0.889-3.541v-8.127
					C58.344-242.925,56.963-243.214,56.559-242.255 M56.44-236.311c-0.062,0.078-0.725,0.874-1.872,0.874
					c-1.95,0-2.09-2.036-2.09-3.049c0-2.965,1.724-2.957,2.129-2.957c0.538,0,0.99,0.117,1.341,0.335
					c0.328,0.211,0.492,0.444,0.492,0.719L56.44-236.311L56.44-236.311z"/>
			</g>
			<g id="g400_12_" transform="translate(112.4946,404.6626)">
				<path id="path402_12_" inkscape:connector-curvature="0" fill="#FFFFFF" d="M68.312-219.813c1.458,0,2.449-0.711,2.449-1.287
					c0-0.531-0.483-1.069-0.717-1.312c0,0-0.593,0.905-1.498,0.905c-0.429,0-0.998-0.133-0.998-1.303v-4.499h1.676
					c1.068,0,1.271-0.866,1.139-1.677h-0.008h-2.808v-1.288c0-1.224-0.983-1.458-1.903-1.302v8.657
					C65.644-221.968,65.644-219.813,68.312-219.813"/>
			</g>
			<g id="g404_12_" transform="translate(129.7358,416.8296)">
				<path id="path406_12_" inkscape:connector-curvature="0" fill="#FFFFFF" d="M61.599-239.415
					c-0.109-0.429-0.499-1.934-3.244-1.934c-1.794,0-2.792,0.601-2.995,0.749c-0.242,0.171-0.367,0.374-0.367,0.593
					c0,0.132,0.016,0.305,0.109,0.499c0.195,0.405,0.483,0.624,0.483,0.624s1.24-0.78,2.582-0.78c0.686,0,1.139,0.125,1.365,0.367
					c0.375,0.396,0.343,1.2,0.343,1.2c-0.063-0.008-0.132-0.008-0.203-0.008c0,0-5.226-0.288-5.226,3.284
					c0,0.537,0.093,0.991,0.273,1.341c0.187,0.352,0.733,1.388,2.636,1.388c1.732,0,2.387-0.702,2.645-0.927
					c0.218,0.631,0.679,1.037,1.762,0.826v-5.803C61.763-238.525,61.709-239.001,61.599-239.415 M59.892-234.89
					c-0.046,1.021-3.533,2.06-3.533-0.016c0-1.904,3.533-1.654,3.533-1.654V-234.89z"/>
			</g>
			<g id="g408_12_" transform="translate(186.2324,416.8296)">
				<path id="path410_12_" inkscape:connector-curvature="0" fill="#FFFFFF" d="M39.624-239.415
					c-0.11-0.429-0.508-1.934-3.254-1.934c-1.793,0-2.783,0.601-2.994,0.749c-0.242,0.171-0.367,0.374-0.367,0.593
					c0,0.132,0.016,0.305,0.109,0.499c0.195,0.405,0.483,0.624,0.483,0.624s1.24-0.78,2.581-0.78c0.688,0,1.14,0.125,1.365,0.367
					c0.375,0.396,0.344,1.2,0.344,1.2c-0.063-0.008-0.125-0.008-0.195-0.008c0,0-5.233-0.288-5.233,3.284
					c0,0.537,0.093,0.991,0.272,1.341c0.188,0.352,0.741,1.388,2.637,1.388c1.731,0,2.387-0.702,2.651-0.927
					c0.21,0.631,0.671,1.037,1.755,0.826v-5.803C39.778-238.525,39.725-239.001,39.624-239.415 M37.907-234.89
					c-0.047,1.021-3.533,2.06-3.533-0.016c0-1.904,3.533-1.654,3.533-1.654V-234.89z"/>
			</g>
			<g id="g412_12_" transform="translate(199.8037,409.3867)">
				<path id="path414_12_" inkscape:connector-curvature="0" fill="#FFFFFF" d="M34.343-227.424c0,0.476-0.085,0.904-0.296,1.256
					c-0.967,1.605-2.762,1.605-3.206,1.605c-1.81,0-2.628-0.623-2.769-0.771c-0.148-0.156-0.227-0.336-0.227-0.516
					c0-0.507,0.585-1.35,0.585-1.35s1.022,1.022,2.457,1.022c1.544,0,1.567-0.905,1.567-1.123c0-0.219-0.055-0.39-0.132-0.53
					c-0.228-0.343-0.569-0.492-0.952-0.593c-0.374-0.102-1.888-0.336-2.598-0.953c-0.258-0.217-0.483-0.467-0.646-0.771
					c-0.164-0.312-0.25-0.693-0.25-1.146c0-1.154,0.71-1.763,1.021-1.973c0.305-0.212,1.068-0.641,2.246-0.641
					c1.209,0,2.028,0.375,2.27,0.516c0.266,0.141,0.711,0.413,0.711,0.865c0,0.672-0.641,1.17-0.641,1.17s-0.928-0.936-2.301-0.936
					c-0.148,0-1.436-0.009-1.436,0.904c0,0.156,0.031,0.289,0.103,0.39c0.077,0.109,0.187,0.212,0.327,0.289
					c0.148,0.094,0.328,0.164,0.53,0.227c0.211,0.071,0.444,0.133,0.694,0.195c0.367,0.085,0.732,0.195,1.076,0.319
					C34.343-229.28,34.343-227.901,34.343-227.424"/>
			</g>
			<g id="g416_12_" transform="translate(122.3003,421.8086)">
				<path id="path418_12_" inkscape:connector-curvature="0" fill="#FFFFFF" d="M64.496-247.435c0,0,1.49-1.95,1.638-2.146
					c0.063-0.085,0.468-0.709,1.107-0.709c0.632,0,1.295,0.6,1.295,0.6l-1.965,2.122c-0.149,0.155-0.476,0.562-1.061,0.562
					C64.995-247.006,64.496-247.435,64.496-247.435"/>
			</g>
		</g>
	</g>
</g>
</svg>
