<?xml version="1.0" encoding="utf-8"?>
<!-- Generator: Adobe Illustrator 16.0.0, SVG Export Plug-In . SVG Version: 6.00 Build 0)  -->
<!DOCTYPE svg PUBLIC "-//W3C//DTD SVG 1.1//EN" "http://www.w3.org/Graphics/SVG/1.1/DTD/svg11.dtd">
<svg version="1.1" id="Camada_0_xA0_Imagem_1_" xmlns="http://www.w3.org/2000/svg" xmlns:xlink="http://www.w3.org/1999/xlink"
	 x="0px" y="0px" width="80px" height="80px" viewBox="0 0 80 80" enable-background="new 0 0 80 80" xml:space="preserve">
<g id="Camada_0_xA0_Imagem">
	<g>
		
			<image overflow="visible" width="1005" height="1060" xlink:href="8729F496.png"  transform="matrix(0.0638 0 0 0.0638 7.9097 9.5)">
		</image>
	</g>
	<g>
		<path fill="#FFFFFF" d="M71.938,65.271c-0.029-0.209-0.098-0.435-0.128-0.638c-0.031-0.215-0.111-0.401-0.127-0.606
			c0-0.021,0-0.042,0-0.063h-0.064c0.028-0.114-0.035-0.138-0.063-0.224c-0.023-0.071-0.03-0.188-0.063-0.255
			c-0.086-0.174-0.212-0.35-0.319-0.51c-0.215-0.322-0.565-0.682-0.893-0.925c-0.599-0.444-1.286-0.634-1.977-0.894h-0.256
			c0-0.021,0-0.042,0-0.063h-0.382c0-0.021,0-0.042,0-0.063h-0.574c0-0.021,0-0.043,0-0.063h-2.104c0,0.021,0,0.042,0,0.063H64.35
			c0,0.021,0,0.042,0,0.063h-0.383c0,0.021,0,0.043,0,0.063h-0.383c-0.771,0.29-1.552,0.458-2.296,0.829
			c-0.428,0.214-0.821,0.518-1.021,0.925c-0.161,0.331,0,0.713,0,1.053h0.064c0,0.021,0,0.042,0,0.063s0,0.043,0,0.063
			c0.091,0.2,0.185,0.445,0.318,0.606c0.163,0.197,0.382,0.374,0.511,0.605h0.19c0.389-0.338,0.988-0.548,1.467-0.733
			c0.481-0.187,0.984-0.297,1.467-0.479h0.319c0-0.021,0-0.042,0-0.063h0.446c0-0.021,0-0.042,0-0.063h1.467
			c0,0.021,0,0.042,0,0.063h0.446c0.269,0.101,0.586,0.164,0.829,0.319c0.269,0.171,0.51,0.473,0.638,0.733
			c0.014,0.027,0.057,0.168,0.064,0.191c0.008,0.024,0.063,0.187,0.063,0.19c0.023,0.146,0.044,0.243,0.063,0.383
			c0.035,0.249,0.063,0.463,0.063,0.733h-1.594c0,0.021,0,0.043,0,0.064h-0.829c0,0.021,0,0.042,0,0.063h-0.574
			c0,0.021,0,0.042,0,0.063h-0.446c0,0.021,0,0.043,0,0.064h-0.318c0,0.021,0,0.042,0,0.063h-0.319c0,0.021,0,0.042,0,0.063h-0.319
			c-0.712,0.268-1.42,0.455-2.104,0.797c-0.375,0.188-0.69,0.391-1.02,0.638c-0.314,0.236-0.761,0.571-0.957,0.925
			c0,0.021,0,0.043,0,0.064h-0.063c0,0.021,0,0.042,0,0.063h-0.064c0,0.021,0,0.043,0,0.063c0,0.021,0,0.043,0,0.064h-0.063
			c-0.101,0.221-0.245,0.384-0.318,0.605c-0.063,0.189-0.127,0.38-0.191,0.574c-0.036,0.106-0.11,0.202-0.128,0.318
			c0,0.043,0,0.085,0,0.128c0.015,0.058-0.006,0.1-0.063,0.127c-0.032,0.201-0.038,0.39-0.064,0.574
			c-0.052,0.375,0.009,0.813,0.064,1.148c0.034,0.208,0,0.384,0.063,0.573c0.054,0.161,0.114,0.374,0.128,0.542
			c0,0.021,0,0.043,0,0.064h0.063c-0.048,0.192,0.178,0.512,0.255,0.67c0.117,0.239,0.323,0.422,0.446,0.669h0.064
			c0.202,0.367,0.672,0.661,1.02,0.861c0.348,0.199,0.729,0.301,1.085,0.479h0.255c0,0.021,0,0.042,0,0.063h0.318
			c0,0.021,0,0.042,0,0.063h0.511c0,0.021,0,0.043,0,0.063h1.722c0-0.021,0-0.042,0-0.063h0.51c0-0.021,0-0.042,0-0.063h0.383
			c0-0.021,0-0.043,0-0.063h0.319c0.388-0.194,0.819-0.282,1.212-0.479c0.225-0.112,0.431-0.245,0.638-0.383s0.364-0.34,0.573-0.479
			h0.064c0.037,0.304,0.284,0.636,0.51,0.861c0.271,0.271,0.558,0.374,0.893,0.542h0.319c0,0.021,0,0.042,0,0.063h0.893
			c0-0.021,0-0.042,0-0.063h0.446c0-0.468,0-0.936,0-1.403c0-0.446,0-0.893,0-1.339c0-0.021,0-0.043,0-0.064
			c0-0.021,0-0.042,0-0.063c0-1.594,0-3.188,0-4.783c0-0.786,0-1.572,0-2.359c0-0.021,0-0.042,0-0.063s0-0.043,0-0.063
			c0-0.021,0-0.043,0-0.064s0-0.042,0-0.063s0-0.043,0-0.063c0-0.021,0-0.043,0-0.064C72.002,66.124,71.998,65.692,71.938,65.271z
			 M68.686,72.222c0,0.607-0.611,0.96-1.084,1.275c-0.431,0.287-0.944,0.376-1.402,0.605H65.88c0,0.021,0,0.043,0,0.063h-0.383
			c0,0.021,0,0.043,0,0.064h-1.021c0-0.021,0-0.043,0-0.064h-0.382c-0.562-0.28-1.14-0.578-1.34-1.18
			c-0.081-0.242-0.127-0.49-0.127-0.765c0-0.281,0.048-0.465,0.127-0.702c0.091-0.271,0.193-0.536,0.383-0.765
			c0.204-0.247,0.506-0.401,0.766-0.574c0.438-0.293,0.971-0.42,1.467-0.605h0.318c0-0.021,0-0.043,0-0.064h0.383
			c0-0.021,0-0.042,0-0.063h0.446c0-0.021,0-0.043,0-0.063h0.701c0-0.021,0-0.043,0-0.064h1.467
			C68.686,70.287,68.686,71.254,68.686,72.222z M30.294,65.589c0-0.102,0.016-0.219,0-0.318c-0.007-0.043-0.053-0.127-0.064-0.191
			c0-0.043,0-0.085,0-0.128c-0.016-0.114-0.028-0.211-0.064-0.318c-0.065-0.195-0.127-0.384-0.127-0.606h-0.063
			c0-0.021,0-0.042,0-0.063c-0.037-0.297-0.22-0.616-0.383-0.861c-0.204-0.306-0.448-0.637-0.765-0.893
			c-0.529-0.428-1.119-0.623-1.722-0.925h-0.191c-0.085-0.042-0.17-0.085-0.255-0.128H26.34c0-0.021,0-0.042,0-0.063h-0.383
			c0-0.021,0-0.042,0-0.063h-0.51c0-0.021,0-0.043,0-0.063h-2.104c0,0.021,0,0.042,0,0.063h-0.638c0,0.021,0,0.042,0,0.063h-0.383
			c0,0.021,0,0.043,0,0.063H21.94c-0.085,0.043-0.17,0.086-0.255,0.128h-0.319c-0.639,0.319-1.345,0.465-1.977,0.829
			c-0.328,0.189-0.775,0.56-0.829,0.925c-0.024,0.162,0,0.346,0,0.51c0,0.169,0.052,0.267,0.063,0.415c0,0.021,0,0.042,0,0.063
			h0.064c0,0.021,0,0.043,0,0.063c0,0.021,0,0.043,0,0.064c0.105,0.229,0.245,0.398,0.383,0.605
			c0.121,0.181,0.333,0.338,0.446,0.542h0.191c0.425-0.281,0.865-0.493,1.339-0.69c0.415-0.173,0.876-0.258,1.275-0.457h0.319
			c0-0.021,0-0.043,0-0.064h0.319c0-0.021,0-0.042,0-0.063h0.446c0-0.021,0-0.042,0-0.063h1.467c0,0.021,0,0.042,0,0.063h0.446
			c0.602,0.226,1.195,0.427,1.403,1.053c0.083,0.249,0.216,0.498,0.255,0.765c0.019,0.125-0.02,0.259,0,0.383
			c0.009,0.055,0.055,0.113,0.064,0.191c0.005,0.049,0,0.11,0,0.159h-1.595c0,0.021,0,0.043,0,0.064h-0.893c0,0.021,0,0.042,0,0.063
			h-0.51c0,0.021,0,0.042,0,0.063h-0.446c0,0.021,0,0.043,0,0.064h-0.383c0,0.021,0,0.042,0,0.063h-0.319
			c-0.74,0.277-1.5,0.471-2.232,0.775c-0.406,0.169-0.799,0.433-1.148,0.691c-0.352,0.261-0.745,0.574-0.957,0.956h-0.064
			c0,0.021,0,0.043,0,0.064c0,0.021,0,0.042,0,0.063h-0.064c0,0.021,0,0.043,0,0.063h-0.063c0,0.021,0,0.043,0,0.064
			c-0.222,0.401-0.434,0.758-0.574,1.18c-0.06,0.181-0.101,0.385-0.127,0.573c-0.029,0.207-0.063,0.365-0.063,0.574
			c0,0.369-0.054,0.783,0,1.148c0.017,0.118,0.063,0.18,0.063,0.318c0,0.114,0.05,0.172,0.064,0.255
			c0.025,0.16,0.008,0.415,0.127,0.542c0,0.021,0,0.043,0,0.064c0.108,0.237,0.177,0.457,0.319,0.67
			c0.144,0.215,0.313,0.43,0.446,0.669h0.064c0.446,0.81,1.559,1.103,2.359,1.403h0.319c0,0.021,0,0.042,0,0.063h0.51
			c0,0.021,0,0.043,0,0.063h1.658c0-0.021,0-0.042,0-0.063h0.574c0-0.021,0-0.042,0-0.063h0.382
			c0.463-0.174,0.945-0.289,1.403-0.479c0.241-0.1,0.495-0.261,0.701-0.414c0.197-0.146,0.449-0.285,0.574-0.511h0.127
			c0.041,0.327,0.267,0.617,0.51,0.861c0.253,0.253,0.511,0.383,0.829,0.542h0.319c0,0.021,0,0.042,0,0.063h0.957
			c0-0.021,0-0.042,0-0.063h0.446c0-0.468,0-0.936,0-1.403c0-0.446,0-0.893,0-1.339c0-0.021,0-0.043,0-0.064c0-1.615,0-3.23,0-4.847
			c0-0.808,0-1.615,0-2.423c0-0.021,0-0.043,0-0.063c0-0.021,0-0.043,0-0.064s0-0.042,0-0.063s0-0.043,0-0.063
			c0-0.021,0-0.043,0-0.064c0-0.215,0.032-0.457,0-0.669C30.34,65.789,30.294,65.728,30.294,65.589z M27.042,72.349
			c-0.081,0.544-0.786,0.999-1.276,1.244c-0.499,0.249-1.012,0.38-1.53,0.573h-0.383c0,0.021,0,0.043,0,0.064h-1.084
			c0-0.021,0-0.043,0-0.064H22.45c-0.276-0.138-0.52-0.229-0.766-0.414c-0.271-0.204-0.433-0.416-0.574-0.701
			c-0.056-0.114-0.043-0.252-0.064-0.383c-0.008-0.05-0.054-0.119-0.063-0.191c-0.009-0.061,0-0.13,0-0.191
			c0-0.281,0.022-0.509,0.063-0.766c0.019-0.117,0.124-0.28,0.191-0.382c0.084-0.127,0.159-0.266,0.255-0.383
			c0.198-0.242,0.5-0.453,0.765-0.606c0.458-0.264,0.975-0.39,1.467-0.573h0.319c0-0.021,0-0.043,0-0.064h0.319
			c0-0.021,0-0.042,0-0.063h0.51c0-0.021,0-0.043,0-0.063h0.702c0-0.021,0-0.043,0-0.064h1.467c0,0.5,0,0.999,0,1.499
			C27.042,71.311,27.113,71.863,27.042,72.349z M56.505,66.227c-0.008-0.05-0.054-0.119-0.063-0.191
			c-0.009-0.063,0.01-0.129,0-0.191c-0.017-0.102-0.111-0.28-0.128-0.383c-0.018-0.114-0.03-0.156-0.063-0.255
			c-0.008-0.025-0.063-0.187-0.063-0.191c-0.021-0.131-0.008-0.269-0.063-0.382c-0.107-0.216-0.301-0.489-0.319-0.733H55.74
			c0-0.021,0-0.043,0-0.064c-0.107-0.235-0.244-0.462-0.383-0.669c-0.156-0.234-0.431-0.412-0.574-0.67H54.72
			c-0.24-0.436-0.849-0.743-1.275-0.957c-0.414-0.207-0.867-0.306-1.275-0.51H51.85c0-0.021,0-0.043,0-0.063h-0.383
			c0-0.021,0-0.043,0-0.064h-0.51c0-0.021,0-0.042,0-0.063h-1.85c0,0.021,0,0.042,0,0.063h-0.51c0,0.021,0,0.043,0,0.064h-0.383
			c0,0.021,0,0.042,0,0.063h-0.319c-0.472,0.177-0.952,0.316-1.402,0.542c-0.239,0.119-0.479,0.238-0.702,0.383
			c-0.177,0.115-0.546,0.354-0.638,0.542h-0.127c-0.135-0.244-0.418-0.396-0.638-0.542c-0.208-0.139-0.415-0.301-0.639-0.415
			c-0.423-0.217-0.894-0.343-1.339-0.51h-0.255c0-0.021,0-0.043,0-0.063h-0.383c0-0.021,0-0.043,0-0.064h-0.51
			c0-0.021,0-0.042,0-0.063h-1.85c0,0.021,0,0.042,0,0.063H38.84c0,0.021,0,0.043,0,0.064h-0.319c0,0.021,0,0.042,0,0.063h-0.319
			c-0.429,0.214-0.904,0.324-1.339,0.542c-0.263,0.132-0.471,0.273-0.701,0.446c-0.167,0.126-0.48,0.288-0.574,0.479h-0.064
			c-0.118,0.259-0.355,0.438-0.51,0.67c-0.149,0.223-0.262,0.426-0.383,0.669h-0.064c0,0.021,0,0.043,0,0.064
			c-0.087,0.095-0.077,0.247-0.127,0.351c-0.461,0.946-0.638,2.053-0.638,3.188c0,1.063,0,2.126,0,3.188c0,2.115,0,4.23,0,6.346
			h0.574c0,0.021,0,0.042,0,0.063h0.51c0-0.021,0-0.042,0-0.063h0.51c0.587-0.22,1.051-0.397,1.403-0.925
			c0.296-0.444,0.382-1.029,0.382-1.595c0-0.531,0-1.063,0-1.594c0-1.063,0-2.126,0-3.188c0-0.532,0-1.063,0-1.595
			c0-0.549-0.033-1.112,0.128-1.595c0.049-0.147,0.08-0.303,0.127-0.446c0.044-0.134,0.084-0.252,0.127-0.383
			c0.084-0.253,0.273-0.554,0.446-0.765c0.421-0.515,0.988-0.762,1.595-0.988h0.51c0-0.021,0-0.043,0-0.064h0.447
			c0,0.021,0,0.043,0,0.064h0.445c0.298,0.111,0.617,0.189,0.894,0.351c1.131,0.657,1.425,1.915,1.594,3.061
			c0.075,0.507,0,1.082,0,1.595c0,0.531,0,1.063,0,1.595c0,2.114,0,4.229,0,6.345h3.38c0-0.287,0-0.573,0-0.86
			c0-2.126,0-4.252,0-6.378c0-0.531,0-1.063,0-1.594c0-0.57,0.044-1.07,0.128-1.595c0.058-0.027,0.079-0.07,0.063-0.128
			c0-0.042,0-0.085,0-0.127c0.001-0.005,0.056-0.166,0.064-0.191c0.045-0.136,0.128-0.254,0.191-0.383
			c0.124-0.255,0.259-0.539,0.446-0.766c0.416-0.502,1.003-0.702,1.594-0.924h0.446c0-0.021,0-0.043,0-0.064h0.447
			c0,0.021,0,0.043,0,0.064h0.446c0.548,0.205,1.046,0.376,1.467,0.797c0.827,0.827,1.021,2.01,1.021,3.188c0,1.063,0,2.126,0,3.188
			c0,1.063,0,2.126,0,3.188c0,0.575,0.026,1.116,0.255,1.595c0.281,0.591,0.852,0.886,1.467,1.116h0.51c0,0.021,0,0.042,0,0.063
			h0.511c0-0.021,0-0.042,0-0.063h0.638c0-0.117,0-0.234,0-0.351c0-2.126,0-4.252,0-6.378c0-1.063,0-2.126,0-3.188
			c0-0.179-0.041-0.284-0.064-0.446C56.487,66.484,56.525,66.352,56.505,66.227z M18.241,56.979
			c0.084-0.126,0.087-0.303,0.191-0.414c0-0.021,0-0.043,0-0.064c0.071-0.076,0.054-0.13,0.064-0.223c0-0.043,0-0.085,0-0.128
			c-0.015-0.058,0.006-0.1,0.064-0.128c0.008-0.119-0.05-0.167-0.064-0.255c-0.013-0.08,0.021-0.177,0-0.255
			c-0.103-0.377-0.506-0.685-0.829-0.925c-0.601-0.445-1.342-0.631-2.041-0.893h-0.319c0-0.021,0-0.043,0-0.063h-0.319
			c0-0.021,0-0.043,0-0.064h-0.51c0-0.021,0-0.042,0-0.063h-1.148c0,0.021,0,0.042,0,0.063h-0.574c0,0.021,0,0.043,0,0.064h-0.319
			c0,0.021,0,0.042,0,0.063h-0.319c-0.707,0.265-1.434,0.506-2.041,0.956c-0.696,0.517-1.236,1.131-1.595,1.85H8.42
			c0,0.021,0,0.043,0,0.064c-0.027,0.221-0.221,0.394-0.255,0.605c-0.032,0.204-0.099,0.382-0.127,0.574
			c-0.033,0.222-0.063,0.397-0.063,0.638c0,0.218-0.064,0.355-0.064,0.573c0,0.776,0,1.552,0,2.328c0,0.978,0,1.956,0,2.934
			c0,0.021,0,0.043,0,0.063c0,4.167,0,8.333,0,12.5h3.38c0-4.167,0-8.333,0-12.5h3.89c0-0.021,0-0.042,0-0.063h0.319
			c0.293-0.146,0.604-0.228,0.829-0.479c0.23-0.256,0.344-0.522,0.447-0.829c0.177-0.532,0.063-1.053,0.063-1.626H11.29
			c0-0.436,0-0.871,0-1.308c0-0.233,0-0.468,0-0.701c0-0.234,0.034-0.436,0.064-0.638c0.037-0.25,0.021-0.485,0.127-0.701
			c0.113-0.229,0.252-0.444,0.446-0.638c0.366-0.366,0.821-0.507,1.276-0.733h0.382c0-0.021,0-0.043,0-0.064h0.765
			c0,0.021,0,0.043,0,0.064h0.383c0.427,0.213,0.873,0.344,1.275,0.605c0.418,0.271,0.913,0.756,1.148,1.18h0.127
			c0.187-0.339,0.494-0.612,0.702-0.925C18.081,57.283,18.148,57.118,18.241,56.979z M58.418,9.564c0-0.021,0-0.042,0-0.064H41.901
			c0,0.021,0,0.042,0,0.064h-0.383c-0.484,0.181-1.002,0.277-1.467,0.51c-0.489,0.244-0.95,0.495-1.403,0.797
			c-0.489,0.326-1.022,0.748-1.403,1.212c-0.18,0.22-0.415,0.462-0.574,0.701c-0.154,0.231-0.386,0.452-0.51,0.702
			c-0.229,0.462-0.539,0.915-0.702,1.403c-0.079,0.235-0.176,0.465-0.255,0.702c-0.038,0.115-0.064,0.281-0.127,0.383
			c-0.065,0.105-0.12,0.114-0.255,0.17c-0.484,0.202-0.952,0.397-1.403,0.659c-0.245,0.143-0.468,0.291-0.701,0.446
			c-0.211,0.141-0.51,0.313-0.638,0.542h-0.064c0,0.021,0,0.042,0,0.064h-0.064c0,0.021,0,0.042,0,0.063h-0.063
			c0,0.021,0,0.042,0,0.064h-0.064c0,0.021,0,0.042,0,0.064h-0.063c0,0.021,0,0.042,0,0.063h-0.064
			c-0.106,0.192-0.318,0.386-0.446,0.542c-0.164,0.201-0.307,0.364-0.447,0.574c-0.227,0.34-0.459,0.717-0.638,1.084
			c-0.179,0.367-0.317,0.76-0.446,1.148c-0.114,0.341-0.319,0.667-0.319,1.052h-0.064c0,0.264-0.086,0.478-0.127,0.733
			c-0.016,0.102-0.111,0.281-0.127,0.383c-0.022,0.137-0.046,0.263-0.064,0.382c-0.021,0.14-0.046,0.262-0.063,0.383
			c-0.009,0.063,0.009,0.129,0,0.191c-0.01,0.072-0.056,0.142-0.064,0.191c-0.02,0.124,0.02,0.258,0,0.382
			c-0.008,0.05-0.054,0.119-0.063,0.191c-0.009,0.061,0,0.13,0,0.191c0,0.268-0.064,0.482-0.064,0.765
			c0,0.284-0.064,0.487-0.064,0.766c0,0.478,0,0.957,0,1.435c0,0.021,0,0.042,0,0.064c0,1.116,0,2.232,0,3.348
			c0,4.241,0,8.482,0,12.723c0,0.021,0,0.042,0,0.063s0,0.042,0,0.063h4.209c0-0.021,0-0.042,0-0.063h0.446c0-0.021,0-0.043,0-0.063
			h0.382c0.463-0.174,0.942-0.3,1.403-0.479c0.513-0.199,0.955-0.467,1.403-0.766c0.978-0.651,1.76-1.659,2.232-2.614
			c0.035-0.072,0.027-0.182,0.063-0.256c0.036-0.073,0.091-0.117,0.127-0.191c0.014-0.027,0.056-0.168,0.064-0.191
			c0.023-0.068,0.041-0.121,0.064-0.19c0.085-0.256,0.147-0.488,0.191-0.766c0.058-0.027,0.079-0.07,0.063-0.127
			c0-0.042,0-0.085,0-0.127c0.002-0.005,0.056-0.166,0.064-0.191c0.043-0.13,0.043-0.24,0.063-0.383
			c0.021-0.145,0.063-0.227,0.063-0.382c0-0.061-0.008-0.131,0-0.191c0.011-0.072,0.057-0.142,0.064-0.191
			c0.08-0.502,0-1.085,0-1.594c0-0.532,0-1.063,0-1.594c0-1.063,0-2.126,0-3.189c0-0.544,0.178-1.157,0.446-1.594
			c0.342-0.558,0.924-0.825,1.53-1.052h4.847c0-0.021,0-0.042,0-0.064h0.446c0.641-0.24,1.252-0.384,1.786-0.829
			c0.576-0.479,0.933-1.043,1.147-1.69c0.186-0.556,0.319-1.152,0.319-1.786c0-0.322-0.063-0.566-0.063-0.893
			c0-0.266,0-0.532,0-0.797H39.605c0-1.021,0.295-1.909,0.828-2.71c0.609-0.913,1.519-1.302,2.552-1.69h0.318
			c0-0.021,0-0.042,0-0.063h0.574c0-0.021,0-0.043,0-0.064h7.78c0-0.021,0-0.042,0-0.064h0.511c0-0.021,0-0.042,0-0.063h0.382
			c0-0.021,0-0.042,0-0.064h0.319c0.86-0.323,1.688-0.559,2.487-1.021c0.906-0.523,1.681-1.405,2.104-2.264
			c0.063-0.127,0.146-0.185,0.191-0.319c0.031-0.096,0.083-0.229,0.127-0.319c0.104-0.213,0.181-0.413,0.256-0.638
			c0.038-0.116,0.043-0.19,0.063-0.319c0.013-0.083,0.114-0.236,0.128-0.319c0.031-0.199,0.03-0.366,0.063-0.574
			c0.008-0.049,0.054-0.119,0.063-0.191c0-0.042,0-0.085,0-0.127c0.018-0.125,0.046-0.194,0.063-0.319c0.029-0.204,0-0.432,0-0.638
			C58.418,10.35,58.418,9.957,58.418,9.564z"/>
	</g>
</g>
</svg>
