<?xml version="1.0" encoding="utf-8"?>
<!-- Generator: Adobe Illustrator 16.0.0, SVG Export Plug-In . SVG Version: 6.00 Build 0)  -->
<!DOCTYPE svg PUBLIC "-//W3C//DTD SVG 1.1//EN" "http://www.w3.org/Graphics/SVG/1.1/DTD/svg11.dtd">
<svg version="1.1" id="Camada_1" xmlns="http://www.w3.org/2000/svg" xmlns:xlink="http://www.w3.org/1999/xlink" x="0px" y="0px"
	 width="80px" height="80px" viewBox="0 0 80 80" enable-background="new 0 0 80 80" xml:space="preserve">
<g>
	<g>
		
			<image overflow="visible" width="2133" height="3000" xlink:href="../../marcas para hotsite/KROT0003.AF.140805.Unic PREF POSITIVA_RGB copy.png"  transform="matrix(0.0232 0 0 0.0232 15.5 8.167)">
		</image>
	</g>
	<g>
		<path fill="#FFFFFF" d="M65.033,75.756c0-0.221,0-0.441,0-0.662c0-0.023,0-0.047,0-0.069c0-0.016,0-0.031,0-0.047
			c-0.016-0.023-0.031-0.046-0.047-0.069h-0.022c-0.008-0.016-0.016-0.031-0.023-0.047c0.018-0.064-0.033-0.046-0.047-0.081
			c-0.008-0.021,0.006-0.049,0-0.069c-0.016-0.016-0.03-0.031-0.046-0.047c-0.016-0.03-0.036-0.078-0.047-0.104
			c-0.008-0.021-0.03-0.057-0.046-0.081c-0.039-0.062-0.091-0.137-0.14-0.197c-0.049-0.062-0.086-0.132-0.14-0.197
			c-0.064-0.08-0.117-0.119-0.186-0.187c-0.021-0.021-0.051-0.08-0.069-0.104c-0.02-0.006-0.035-0.018-0.047-0.034
			c0-0.016,0-0.031,0-0.047c-0.027-0.036-0.081-0.062-0.116-0.093c-0.032-0.029-0.062-0.063-0.093-0.093
			c-0.064-0.065-0.123-0.119-0.162-0.197h-0.07c-0.021,0.044-0.064,0.066-0.093,0.104c-0.038,0.052-0.073,0.088-0.116,0.139
			c-0.012,0.015-0.028,0.049-0.046,0.07c-0.011,0.013-0.031,0.029-0.047,0.046c-0.034,0.039-0.061,0.069-0.093,0.104
			c-0.13,0.144-0.302,0.306-0.487,0.43c-0.188,0.126-0.361,0.263-0.558,0.372c-0.175,0.097-0.366,0.155-0.534,0.267h-0.116
			c-0.008,0.016-0.016,0.031-0.023,0.047H61.48c-0.016,0.023-0.031,0.046-0.047,0.069h-0.209c0,0.016,0,0.031,0,0.047H60.97
			c-0.041,0.021-0.082,0.039-0.116,0.069h-0.999c-0.046-0.023-0.093-0.047-0.139-0.069H59.46c-0.016-0.016-0.031-0.031-0.047-0.047
			h-0.186c-0.014-0.029-0.041-0.054-0.069-0.069h-0.163c-0.008-0.016-0.016-0.031-0.022-0.047h-0.116
			c-0.016-0.023-0.031-0.046-0.047-0.069h-0.116c0-0.016,0-0.031,0-0.047h-0.116c-0.023-0.07-0.053-0.056-0.116-0.081
			c-0.051-0.02-0.092-0.068-0.139-0.093c-0.104-0.055-0.206-0.114-0.302-0.186c-0.101-0.075-0.165-0.146-0.256-0.232
			c-0.018-0.017-0.036-0.036-0.047-0.047c-0.015-0.008-0.03-0.015-0.046-0.022c0-0.008,0-0.016,0-0.023
			c-0.048-0.047-0.079-0.094-0.116-0.14c-0.047-0.057-0.103-0.107-0.14-0.162c-0.031-0.047-0.063-0.091-0.093-0.128
			c-0.063-0.079-0.116-0.174-0.162-0.268c-0.018-0.035-0.053-0.058-0.07-0.093c-0.011-0.022-0.013-0.048-0.022-0.069
			c-0.012-0.023-0.035-0.045-0.047-0.069c-0.012-0.023-0.013-0.049-0.023-0.07c-0.008-0.016-0.042-0.054-0.046-0.069
			c-0.007-0.021,0.006-0.049,0-0.069c-0.011-0.035-0.032-0.033-0.047-0.059c-0.016-0.026-0.011-0.025-0.023-0.058
			c-0.021-0.059-0.037-0.099-0.046-0.163c-0.009-0.062-0.055-0.085-0.07-0.139c-0.013-0.05-0.008-0.094-0.022-0.14
			c-0.017-0.049-0.016-0.084-0.023-0.14c-0.01-0.066-0.061-0.099-0.069-0.162c-0.007-0.045,0.011-0.096,0-0.14
			c-0.015-0.057-0.047-0.072-0.047-0.14c0-0.044,0.007-0.095,0-0.139c-0.021-0.011-0.028-0.025-0.023-0.047c0-0.016,0-0.031,0-0.046
			c-0.008-0.031-0.038-0.043-0.046-0.07c-0.012-0.039,0-0.098,0-0.139c0-0.094,0-0.187,0-0.279c0-0.074-0.035-0.074-0.047-0.139
			c-0.008-0.044,0-0.096,0-0.14c0-0.093,0-0.186,0-0.278c0-0.194,0-0.388,0-0.581c0-0.054,0-0.108,0-0.162
			c0-0.06,0.007-0.091,0.023-0.14c0.016-0.049,0.023-0.08,0.023-0.14c0-0.046,0-0.093,0-0.139c0-0.053-0.008-0.111,0-0.163
			c0.008-0.056,0.029-0.089,0.046-0.14c0.017-0.048,0.023-0.08,0.023-0.139c0-0.038-0.013-0.104,0-0.14
			c0.016-0.008,0.031-0.016,0.047-0.023c0-0.016,0-0.03,0-0.046c0.003-0.021,0-0.048,0-0.07c0-0.021-0.005-0.05,0-0.069
			c0.009-0.036,0.03-0.037,0.046-0.069c0.023-0.048,0.016-0.085,0.023-0.14c0.008-0.059,0.038-0.081,0.046-0.14
			c0.007-0.046,0.004-0.052,0.023-0.093c0.016-0.032,0.038-0.033,0.047-0.069c0.005-0.022-0.006-0.048,0-0.069
			c0.008-0.032,0.038-0.042,0.046-0.07c0.007-0.021-0.007-0.049,0-0.069c0.014-0.035,0.029-0.018,0.047-0.047
			c0.021-0.034,0.033-0.1,0.047-0.139c0.019-0.058,0.042-0.104,0.069-0.151c0.021-0.038,0.041-0.085,0.069-0.128
			c0.059-0.088,0.1-0.192,0.163-0.278c0.122-0.166,0.244-0.341,0.395-0.487c0.081-0.08,0.171-0.162,0.255-0.232
			c0.045-0.037,0.094-0.07,0.14-0.104c0.021-0.017,0.05-0.029,0.069-0.047c0.011-0.01,0.047-0.058,0.047-0.058
			c0.048-0.032,0.111-0.043,0.162-0.07c0.048-0.024,0.09-0.07,0.14-0.093c0.05-0.021,0.091-0.049,0.14-0.069
			c0.045-0.02,0.094-0.006,0.116-0.059h0.116c0.014-0.029,0.041-0.054,0.069-0.069h0.116c0.008-0.016,0.016-0.031,0.023-0.046h0.162
			c0.044-0.017,0.095-0.023,0.116-0.07h0.302c0.016-0.016,0.031-0.03,0.047-0.046h0.998c0.008,0.016,0.016,0.03,0.023,0.046h0.371
			c0.021,0.04,0.056,0.051,0.094,0.07h0.186c0.008,0.015,0.016,0.03,0.023,0.046h0.162c0.028,0.017,0.056,0.04,0.069,0.069h0.14
			c0.008,0.016,0.016,0.031,0.023,0.047h0.116c0.035,0.072,0.186,0.099,0.255,0.122c0.054,0.018,0.075,0.038,0.116,0.063
			c0.035,0.021,0.079,0.032,0.116,0.051c0.052,0.025,0.074,0.039,0.116,0.065c0.033,0.021,0.085,0.025,0.116,0.051
			c0.069,0.056,0.149,0.091,0.232,0.146c-0.008,0.021,0,0.032,0.023,0.031c0.007,0.003,0.015,0.005,0.022,0.008
			c0.021,0.015,0.048,0.026,0.07,0.043c0.037,0.026,0.081,0.052,0.116,0.081c0.048,0.039,0.09,0.079,0.139,0.116
			c0.034,0.025,0.071,0.075,0.093,0.093c0.088,0.069,0.174,0.127,0.256,0.209c0.046,0.046,0.092,0.094,0.14,0.139
			c0.014,0.014,0.056,0.054,0.069,0.082h0.116c-0.01-0.058,0.12-0.097,0.162-0.128c0.07-0.053,0.135-0.104,0.187-0.163
			c0.046-0.052,0.117-0.084,0.162-0.139c0.05-0.061,0.097-0.104,0.14-0.163c0.032-0.044,0.06-0.072,0.093-0.116
			c0.017-0.022,0.051-0.046,0.069-0.069c0.002-0.002,0.021-0.064,0.023-0.069c0.016-0.016,0.031-0.031,0.046-0.047
			c0-0.016,0-0.031,0-0.046c0.016-0.008,0.031-0.016,0.047-0.023c0.013-0.021,0.007-0.044,0.023-0.07
			c-0.007-0.021,0.001-0.032,0.023-0.034c0.017-0.03,0.01-0.044,0.022-0.081c0.013-0.034,0.033-0.037,0.047-0.07
			c0.008-0.019,0-0.06,0-0.081h0.023c0-0.016,0-0.031,0-0.047h0.022c0.033-0.015,0.052-0.033,0.047-0.069c0-0.016,0-0.031,0-0.046
			c0-0.023,0-0.047,0-0.07c0-0.016,0-0.03,0-0.046c0-0.12,0-0.24,0-0.36c0-0.062,0-0.124,0-0.186c0-0.03,0.004-0.063,0-0.093
			c-0.008-0.055-0.015-0.042-0.047-0.082c-0.038-0.048-0.062-0.114-0.093-0.174c0-0.016,0-0.031,0-0.046
			c-0.016-0.008-0.03-0.016-0.046-0.023c-0.013-0.021-0.011-0.077-0.023-0.093c-0.021-0.027-0.054-0.05-0.069-0.07
			c-0.015-0.018-0.032-0.075-0.047-0.093c-0.055-0.066-0.125-0.125-0.186-0.186c-0.215-0.215-0.425-0.383-0.674-0.534
			c-0.12-0.073-0.245-0.139-0.371-0.201c-0.064-0.032-0.119-0.053-0.186-0.077c-0.057-0.021-0.131-0.048-0.163-0.104h-0.116
			c-0.008-0.016-0.016-0.031-0.023-0.047h-0.115c-0.016-0.023-0.031-0.046-0.047-0.069h-0.116c-0.008-0.016-0.016-0.031-0.023-0.047
			h-0.116c-0.038-0.019-0.073-0.029-0.093-0.069h-0.162c-0.021-0.04-0.056-0.051-0.093-0.069h-0.14
			c-0.008-0.016-0.016-0.031-0.023-0.047h-0.209c-0.02-0.04-0.055-0.051-0.093-0.069H61.55c-0.016-0.016-0.031-0.031-0.046-0.047
			h-0.325c-0.016-0.016-0.031-0.031-0.047-0.046h-0.116c0-0.008,0-0.016,0-0.023h-1.579c0,0.008,0,0.016,0,0.023h-0.093
			c-0.016,0.015-0.031,0.03-0.047,0.046h-0.348c-0.016,0.016-0.031,0.031-0.047,0.047h-0.209c-0.041,0.021-0.081,0.039-0.116,0.069
			h-0.209c-0.008,0.016-0.016,0.031-0.023,0.047h-0.115c-0.045,0.017-0.096,0.022-0.116,0.069H57.95
			c-0.014,0.029-0.041,0.054-0.069,0.069h-0.116c-0.008,0.016-0.016,0.031-0.023,0.047h-0.139c0.004,0.034-0.014,0.057-0.047,0.069
			h-0.093c-0.008,0.016-0.016,0.031-0.023,0.047h-0.116c-0.035,0.063-0.123,0.087-0.186,0.11c-0.074,0.026-0.135,0.058-0.209,0.087
			c-0.038,0.015-0.08,0.051-0.116,0.069c-0.031,0.017-0.06,0.025-0.093,0.041c-0.044,0.021-0.109,0.071-0.163,0.106
			c-0.119,0.078-0.273,0.146-0.371,0.232c-0.05,0.043-0.127,0.076-0.186,0.123c-0.045,0.036-0.106,0.082-0.163,0.124
			c-0.146,0.11-0.266,0.22-0.395,0.349c-0.128,0.128-0.256,0.229-0.371,0.371c-0.057,0.069-0.115,0.114-0.163,0.187
			c-0.023,0.034-0.046,0.061-0.069,0.093c-0.024,0.033-0.047,0.04-0.07,0.069c-0.049,0.063-0.104,0.139-0.139,0.209
			c-0.028,0.059-0.112,0.078-0.093,0.151h-0.023c-0.008,0.016-0.016,0.03-0.023,0.046c-0.016,0.023-0.031,0.047-0.046,0.07h-0.023
			c0,0.015,0,0.03,0,0.046h-0.023c0.004,0.027-0.004,0.05-0.023,0.069h-0.023c0.003,0.038-0.011,0.027-0.022,0.059
			c0.001-0.004-0.026,0.072-0.023,0.069c-0.013,0.017-0.063,0.032-0.069,0.047c-0.01,0.018,0.005,0.05,0,0.069
			c-0.003,0.008-0.043,0.063-0.047,0.069c-0.02,0.029-0.033,0.042-0.047,0.07c-0.021,0.045-0.042,0.098-0.069,0.14
			c-0.027,0.041-0.049,0.095-0.069,0.139c-0.022,0.048-0.052,0.091-0.07,0.14c-0.008,0.021-0.017,0.043-0.022,0.058
			c-0.007,0.016-0.016,0.036-0.023,0.059c-0.019,0.049-0.047,0.092-0.07,0.139c-0.005,0.011-0.02,0.061-0.022,0.07
			c-0.008,0.021-0.016,0.046-0.023,0.069c-0.011,0.033-0.008,0.037-0.023,0.069c-0.016,0.033-0.037,0.034-0.046,0.07
			c-0.006,0.021,0.003,0.047,0,0.069c-0.007,0.036-0.014,0.033-0.023,0.059c-0.01,0.024-0.018,0.021-0.023,0.058
			c-0.004,0.021,0.007,0.05,0,0.069c-0.024,0.066-0.069,0.058-0.069,0.14c0,0.067-0.032,0.083-0.047,0.14
			c-0.013,0.052,0,0.092-0.023,0.139c-0.024,0.052-0.046,0.075-0.046,0.14c0,0.06-0.007,0.091-0.023,0.14
			c-0.017,0.05-0.039,0.083-0.047,0.139c-0.006,0.044,0.012,0.097,0,0.14c-0.015,0.055-0.046,0.072-0.046,0.14
			c0,0.11-0.016,0.185-0.047,0.278c-0.028,0.085-0.022,0.181-0.022,0.279c0,0.11-0.047,0.167-0.047,0.278c0,0.093,0,0.186,0,0.278
			c0,0.179,0,0.356,0,0.534c0,0.193,0,0.387,0,0.581c0,0.101,0,0.201,0,0.302c0,0.084-0.021,0.197,0,0.278
			c0.01,0.038,0.037,0.055,0.047,0.093c0.005,0.02,0,0.05,0,0.07c0,0.046,0,0.093,0,0.139c0,0.045-0.007,0.095,0,0.14
			c0.006,0.043,0.007,0.099,0.022,0.14c0.016,0.008,0.031,0.015,0.047,0.022c0,0.016,0,0.031,0,0.047c0.004,0.021,0,0.048,0,0.069
			c0,0.047,0,0.093,0,0.14c0,0.067,0.031,0.085,0.046,0.14c0.012,0.042-0.006,0.095,0,0.139c0.006,0.039,0.011,0.059,0.023,0.093
			c0.009,0.022,0.018,0.044,0.023,0.059c0.01,0.024,0.017,0.021,0.023,0.058c0.004,0.021,0,0.048,0,0.07c0,0.021-0.005,0.05,0,0.069
			c0.009,0.036,0.03,0.037,0.046,0.069c0-0.001,0.025,0.079,0.023,0.07c0.006,0.021-0.002,0.036-0.023,0.046
			c0.008,0.008,0.016,0.016,0.023,0.023c0.002,0.071,0.037,0.097,0.047,0.163c0.009,0.064,0.02,0.084,0.046,0.139
			c0.022,0.048,0.006,0.091,0.023,0.14c0.019,0.051,0.047,0.046,0.047,0.116c0,0.084,0.048,0.08,0.069,0.139
			c0.007,0.021-0.006,0.049,0,0.07c0.008,0.031,0.038,0.042,0.046,0.069c0.007,0.021-0.005,0.048,0,0.069
			c0.01,0.036,0.031,0.038,0.047,0.07c0.021,0.042,0.031,0.095,0.047,0.139c0.006,0.02,0.014,0.074,0.022,0.094
			c0.014,0.027,0.06,0.024,0.07,0.046c0.009,0.018-0.005,0.051,0,0.069c0.009,0.036,0.03,0.038,0.046,0.07
			c0.011,0.021,0.013,0.047,0.023,0.069c0.012,0.024,0.035,0.047,0.047,0.07c0.013,0.025,0.007,0.04,0.022,0.069
			c0.012,0.021,0.035,0.036,0.047,0.058c0,0.016,0,0.031,0,0.047h0.023c0.02,0.02,0.027,0.043,0.023,0.069h0.022
			c0.008,0.016,0.016,0.031,0.023,0.047c0.02,0.02,0.027,0.042,0.023,0.069h0.023c0.008,0.016,0.015,0.031,0.022,0.047
			c-0.004,0.026,0.004,0.05,0.023,0.069h0.023c0.028,0.062,0.06,0.12,0.093,0.174c0.018,0.029,0.051,0.034,0.069,0.07
			c0.018,0.031,0.025,0.061,0.047,0.093c0.045,0.067,0.095,0.095,0.14,0.162c0.034,0.052,0.08,0.106,0.116,0.151
			c0.041,0.053,0.092,0.093,0.139,0.15c0.054,0.066,0.105,0.111,0.163,0.163c0.017,0.016,0.042,0.048,0.069,0.069
			c0.014,0.011,0.046,0.051,0.069,0.07c0.057,0.045,0.11,0.103,0.163,0.15c0.1,0.091,0.229,0.19,0.348,0.278
			c0.059,0.044,0.119,0.078,0.163,0.116c0.027,0.024,0.065,0.044,0.093,0.066c0.003,0.002,0.056,0.044,0.047,0.038
			c0.116,0.063,0.232,0.126,0.348,0.194c0.06,0.034,0.123,0.083,0.187,0.107c0.061,0.024,0.104,0.018,0.139,0.082h0.093
			c0.029,0.066,0.123,0.044,0.163,0.116h0.116c0.032,0.074,0.146,0.036,0.186,0.116h0.14c0.008,0.015,0.015,0.03,0.022,0.046h0.116
			c0.028,0.017,0.056,0.04,0.07,0.069h0.162c0.008,0.016,0.016,0.031,0.023,0.047h0.186c0.028,0.017,0.056,0.039,0.069,0.069h0.209
			c0.016,0.016,0.031,0.031,0.047,0.047h0.162c0,0.008,0,0.016,0,0.023h0.116c0.028,0.017,0.056,0.039,0.07,0.069h2.879
			c-0.004-0.034,0.014-0.057,0.047-0.069h0.116c0-0.008,0-0.016,0-0.023h0.162c0.008-0.016,0.016-0.031,0.023-0.047h0.186
			c0.031-0.022,0.063-0.046,0.093-0.069h0.14c0.016-0.016,0.031-0.031,0.047-0.047h0.139c0.015-0.029,0.042-0.054,0.07-0.069h0.116
			c0.008-0.016,0.015-0.031,0.022-0.046h0.116c0.04-0.081,0.154-0.041,0.187-0.116h0.115c0.031-0.056,0.15-0.065,0.14-0.116h0.116
			c0.035-0.063,0.104-0.08,0.162-0.112c0.056-0.031,0.105-0.058,0.163-0.085c0.124-0.061,0.216-0.137,0.325-0.209
			c0.107-0.072,0.171-0.138,0.278-0.209c0.1-0.067,0.183-0.162,0.256-0.256c0.016-0.008,0.03-0.016,0.046-0.023
			c-0.005-0.021,0.003-0.036,0.023-0.046c0.027-0.031,0.044-0.035,0.069-0.07c0.043-0.058,0.076-0.103,0.116-0.162
			c0.016-0.016,0.031-0.031,0.047-0.047c0-0.016,0-0.03,0-0.046c0.019-0.024,0.054-0.026,0.069-0.047
			C65.045,75.873,65.033,75.814,65.033,75.756z M43.251,67.79c0-0.058-0.017-0.091-0.023-0.139c-0.003-0.021,0.007-0.051,0-0.07
			c-0.008-0.02-0.037-0.02-0.047-0.046c-0.013-0.036,0-0.102,0-0.14c0-0.064-0.005-0.107-0.022-0.162
			c-0.017-0.049-0.016-0.084-0.023-0.14c-0.007-0.046-0.032-0.095-0.047-0.14c-0.017-0.049-0.016-0.084-0.023-0.139
			c-0.006-0.048-0.035-0.054-0.046-0.094c-0.006-0.021,0.003-0.048,0-0.069c-0.008-0.056-0.029-0.089-0.047-0.14
			c-0.011-0.032-0.018-0.031-0.022-0.069c-0.004-0.021,0.006-0.049,0-0.069c-0.005-0.017-0.039-0.053-0.047-0.07
			c-0.018-0.037-0.018-0.027-0.023-0.069s-0.012-0.053-0.023-0.081c-0.006-0.016-0.015-0.036-0.022-0.059
			c-0.012-0.03-0.009-0.039-0.023-0.069c-0.01-0.021-0.041-0.048-0.047-0.069s0.007-0.049,0-0.07
			c-0.004-0.016-0.038-0.054-0.046-0.069c-0.007-0.014-0.019-0.057-0.023-0.069c-0.016-0.044-0.027-0.011-0.023-0.059h-0.023
			c0.021-0.071-0.057-0.057-0.046-0.116c0.004-0.026-0.004-0.05-0.023-0.069h-0.023c-0.034-0.037-0.008-0.065-0.022-0.104
			c-0.016-0.008-0.031-0.016-0.047-0.023c0-0.016,0-0.031,0-0.046c-0.04-0.076-0.082-0.14-0.14-0.209
			c-0.023-0.029-0.028-0.088-0.046-0.116c-0.02-0.031-0.053-0.067-0.07-0.093c-0.043-0.065-0.097-0.122-0.139-0.187
			c-0.094-0.14-0.213-0.258-0.325-0.395c-0.008-0.009-0.043-0.043-0.047-0.046c-0.016-0.016-0.03-0.031-0.046-0.047
			c-0.024-0.023-0.055-0.055-0.07-0.069c-0.057-0.055-0.115-0.092-0.162-0.14c-0.123-0.127-0.247-0.227-0.395-0.325
			c-0.039-0.026-0.075-0.058-0.116-0.081c-0.016-0.008-0.031-0.016-0.047-0.023c-0.022-0.003-0.03-0.014-0.022-0.035
			c-0.061-0.035-0.127-0.056-0.187-0.093c0.008-0.021,0-0.031-0.022-0.028c-0.008-0.002-0.016-0.004-0.023-0.006
			c-0.016-0.004-0.031-0.008-0.047-0.012c0.008-0.021,0-0.032-0.023-0.031c-0.016-0.005-0.031-0.011-0.047-0.016
			c-0.071-0.034-0.138-0.073-0.209-0.108c-0.059-0.029-0.358-0.121-0.348-0.182h-0.139c-0.039-0.085-0.174-0.033-0.209-0.116h-0.14
			c-0.014-0.029-0.042-0.054-0.069-0.069h-0.163c-0.008-0.016-0.016-0.031-0.023-0.047h-0.209c-0.031-0.023-0.062-0.046-0.093-0.069
			h-0.232c-0.008-0.016-0.016-0.031-0.023-0.047h-0.372c-0.016-0.016-0.031-0.03-0.046-0.046h-0.116c0-0.008,0-0.016,0-0.023h-1.742
			c0,0.008,0,0.016,0,0.023h-0.116c-0.008,0.016-0.016,0.03-0.023,0.046h-0.371c-0.016,0.016-0.031,0.031-0.047,0.047h-0.232
			c-0.031,0.023-0.062,0.046-0.093,0.069h-0.209c-0.008,0.016-0.016,0.031-0.023,0.047h-0.139c-0.031,0.022-0.062,0.046-0.093,0.069
			h-0.139c-0.026,0.061-0.155,0.069-0.209,0.116h-0.116c-0.027,0.055-0.134,0.085-0.186,0.104c-0.076,0.028-0.113,0.044-0.186,0.081
			c-0.042,0.021-0.053,0.022-0.093,0.047c-0.027,0.017-0.065,0.043-0.093,0.058c-0.04,0.021-0.078,0.033-0.116,0.055
			c-0.032,0.018-0.062,0.045-0.093,0.062c-0.264,0.14-0.493,0.325-0.743,0.534c-0.243,0.202-0.442,0.445-0.65,0.696
			c-0.024,0.029-0.047,0.082-0.07,0.116c-0.023,0.036-0.052,0.057-0.069,0.093c-0.036,0.076-0.097,0.134-0.14,0.209
			c-0.011,0.02-0.013,0.041-0.023,0.059c-0.019,0.007-0.035,0.018-0.046,0.035c-0.014,0.027-0.009,0.063-0.023,0.093
			c-0.025,0.053-0.099,0.11-0.093,0.174c-0.02,0.02-0.027,0.043-0.023,0.069h-0.046c0,0.023,0,0.047,0,0.07c0,0.016,0,0.03,0,0.046
			h-0.046c0,0.022,0.008,0.061,0,0.081c-0.013,0.036-0.029,0.018-0.046,0.047c-0.025,0.041-0.012,0.048-0.023,0.093
			c-0.008,0.031-0.039,0.042-0.047,0.069c-0.011,0.041-0.004,0.055-0.023,0.094c-0.016,0.032-0.038,0.033-0.046,0.069
			c-0.007,0.028,0.01,0.065,0,0.093s-0.039,0.026-0.046,0.047c-0.021,0.055,0.008,0.11-0.023,0.162
			c-0.025,0.042-0.037,0.012-0.046,0.069c-0.004,0.023,0.003,0.048,0,0.07c-0.006,0.039-0.037,0.058-0.046,0.093
			c-0.006,0.021,0.003,0.048,0,0.069c-0.008,0.061-0.028,0.107-0.046,0.163c-0.019,0.055-0.014,0.1-0.023,0.162
			c-0.006,0.039-0.037,0.059-0.046,0.093c-0.006,0.021,0.003,0.048,0,0.07c-0.005,0.03-0.023,0.051-0.023,0.093
			c0,0.021,0.003,0.047,0,0.069c-0.009,0.063-0.037,0.1-0.046,0.163c-0.007,0.052,0,0.109,0,0.162c0,0.071-0.037,0.101-0.046,0.162
			c-0.015,0.104-0.023,0.192-0.023,0.303c0,0.089,0.024,0.217,0,0.302c-0.008,0.027-0.039,0.038-0.046,0.069
			c-0.005,0.02,0,0.049,0,0.069c0,0.047,0,0.093,0,0.14c0,0.193,0,0.387,0,0.581c0,0.387,0,0.773,0,1.161c0,0.773,0,1.548,0,2.321
			c0,1.545,0,3.089,0,4.634c0,0.015,0,0.03,0,0.046c0,0.023,0,0.047,0,0.069h0.232c0.016,0.016,0.031,0.031,0.046,0.047h1.115
			c0.016-0.016,0.031-0.031,0.046-0.047h0.209c0.02-0.04,0.055-0.051,0.093-0.069h0.116c0.008-0.016,0.016-0.031,0.023-0.046h0.139
			c-0.01-0.064,0.141-0.091,0.186-0.12c0.065-0.043,0.135-0.075,0.186-0.116c0.132-0.107,0.267-0.213,0.372-0.356
			c0.044-0.06,0.081-0.104,0.116-0.162c0.01-0.017,0.013-0.054,0.023-0.07c0.015-0.008,0.031-0.015,0.046-0.022
			c0.013-0.035,0.006-0.059,0.023-0.094c0.013-0.026,0.032-0.043,0.046-0.069c0-0.016,0-0.031,0-0.046
			c0.025-0.042,0.037-0.012,0.046-0.07c0.008-0.048,0.01-0.074,0.023-0.116c0.008-0.024,0.042-0.067,0.046-0.093
			c0.006-0.036,0-0.079,0-0.116c0-0.047,0.011-0.055,0.023-0.093c0.022-0.067,0.023-0.131,0.023-0.209c0-0.14,0-0.278,0-0.418
			c0-0.278,0-0.558,0-0.836c0-1.548,0-3.097,0-4.645c0-0.193,0-0.387,0-0.58c0-0.101,0-0.201,0-0.303c0-0.075-0.026-0.208,0-0.278
			c0.016-0.008,0.031-0.016,0.046-0.023c0-0.015,0-0.03,0-0.046c0.004-0.022-0.003-0.047,0-0.07
			c0.007-0.048,0.023-0.081,0.023-0.139c0-0.047,0-0.093,0-0.14c0-0.067,0.032-0.082,0.046-0.14c0.013-0.05-0.007-0.11,0-0.162
			c0.009-0.063,0.055-0.085,0.07-0.14c0.012-0.043-0.012-0.096,0-0.139c0.008-0.028,0.039-0.039,0.046-0.07
			c0.005-0.021-0.004-0.047,0-0.069c0.011-0.064,0.06-0.072,0.069-0.14c0.003-0.021-0.007-0.05,0-0.069
			c0.01-0.027,0.039-0.026,0.047-0.047c0.007-0.02-0.008-0.049,0-0.069c0.013-0.035,0.029-0.018,0.046-0.047
			c0.023-0.037,0.032-0.097,0.046-0.139c0.018-0.055,0.054-0.117,0.093-0.163c-0.002,0.004,0.048-0.051,0.046-0.046
			c0.008-0.021-0.007-0.05,0-0.07c0.019-0.051,0.094-0.078,0.116-0.115c0.007-0.013,0.016-0.055,0.023-0.07
			c0.006-0.013,0.041-0.062,0.047-0.069c0.015-0.008,0.031-0.016,0.046-0.023c-0.005-0.021,0.002-0.036,0.023-0.046
			c0.022-0.024,0.048-0.046,0.07-0.07c0.035-0.038,0.061-0.069,0.093-0.104c0.062-0.068,0.152-0.144,0.232-0.197
			c0.1-0.066,0.194-0.143,0.302-0.197c0.072-0.037,0.217-0.062,0.255-0.14h0.116c0.008-0.016,0.016-0.03,0.023-0.046H36.4
			c0.044-0.017,0.095-0.023,0.116-0.07h0.255c0.041-0.021,0.082-0.039,0.116-0.069h0.767c0.014,0.029,0.041,0.054,0.069,0.069h0.255
			c0.063,0.064,0.221,0.034,0.256,0.116h0.116c0.028,0.058,0.133,0.083,0.186,0.104c0.076,0.032,0.135,0.084,0.209,0.116
			c0.124,0.055,0.225,0.153,0.325,0.244c0.066,0.06,0.133,0.115,0.186,0.174c0.06,0.066,0.107,0.119,0.163,0.186
			c0.022,0.027,0.05,0.087,0.07,0.116c0.015,0.016,0.031,0.031,0.046,0.047c0,0.016,0,0.031,0,0.046
			c0.019,0.031,0.053,0.067,0.07,0.094c0.015,0.015,0.031,0.03,0.046,0.046c0,0.016,0,0.031,0,0.047
			c0.021,0.043,0.049,0.073,0.069,0.116c0.017,0.034,0.035,0.056,0.047,0.093c0.008,0.023,0.016,0.048,0.023,0.069
			c0.021,0.01,0.029,0.025,0.023,0.047c0.01,0.042,0.004,0.054,0.023,0.093c0.02,0.042,0.031,0.072,0.046,0.116
			c0,0.015,0,0.03,0,0.046c0.016,0.008,0.031,0.016,0.046,0.023c0.023,0.061-0.005,0.127,0.023,0.186
			C39.98,67.752,40,67.746,40,67.813c0,0.03-0.004,0.063,0,0.093c0.01,0.068,0.046,0.105,0.046,0.186
			c0,0.084,0.022,0.139,0.046,0.209c0.021,0.062,0.023,0.114,0.023,0.187c0,1.548,0,3.096,0,4.645c0,0.773,0,1.548,0,2.322
			c0,0.07,0.037,0.101,0.047,0.162c0.006,0.044,0,0.095,0,0.14c0,0.099-0.001,0.189,0.023,0.278c0.01,0.035,0.041,0.054,0.047,0.093
			c0.002,0.022,0,0.048,0,0.07c0,0.065,0.018,0.071,0.046,0.115c0.021,0.035,0.034,0.102,0.046,0.14
			c0.004,0.01,0.019,0.059,0.023,0.069c0.012,0.023,0.034,0.045,0.047,0.07c0.015,0.029,0.031,0.062,0.047,0.093
			c0.006,0.013,0.016,0.059,0.022,0.069c0.032,0.052,0.083,0.077,0.116,0.116c0.031,0.035,0.063,0.077,0.093,0.116
			c0.036,0.045,0.069,0.071,0.116,0.116c0.074,0.069,0.181,0.149,0.279,0.209c0.076,0.047,0.21,0.07,0.255,0.151h0.116
			c0.008,0.015,0.016,0.03,0.023,0.046h0.139c0.028,0.017,0.056,0.04,0.07,0.069h0.231c0.008,0.016,0.016,0.031,0.023,0.047h1.138
			c0.016-0.016,0.031-0.031,0.047-0.047h0.186c0-0.022,0-0.046,0-0.069c0-0.016,0-0.031,0-0.046c0-0.848,0-1.695,0-2.543
			c0-1.549,0-3.097,0-4.645c0-0.388,0-0.774,0-1.161c0-0.193,0-0.388,0-0.581c0-0.101,0-0.201,0-0.302c0-0.042,0.011-0.099,0-0.14
			c-0.014-0.057-0.046-0.071-0.046-0.139C43.251,67.898,43.251,67.845,43.251,67.79z M50.055,64.493
			c-0.019-0.056-0.038-0.104-0.046-0.163c-0.004-0.021,0.005-0.048,0-0.069c-0.01-0.036-0.031-0.037-0.047-0.07
			c-0.022-0.046-0.024-0.093-0.047-0.139c-0.024-0.052-0.063-0.088-0.093-0.14c0-0.016,0-0.031,0-0.046
			c-0.015-0.008-0.03-0.016-0.046-0.023c-0.008-0.02,0.009-0.051,0-0.07c-0.016-0.031-0.049-0.025-0.07-0.046
			c-0.007-0.008-0.033-0.054-0.046-0.07c-0.072-0.088-0.14-0.144-0.209-0.22c-0.068-0.076-0.181-0.144-0.278-0.198
			c-0.066-0.036-0.221-0.079-0.256-0.15h-0.116c-0.02-0.04-0.055-0.051-0.093-0.069h-0.116c-0.008-0.016-0.016-0.031-0.023-0.047
			h-0.255c-0.016-0.016-0.031-0.031-0.047-0.047H48.15c0-0.007,0-0.015,0-0.022h-0.789c0,0.008,0,0.016,0,0.022h-0.14
			c-0.008,0.016-0.016,0.031-0.023,0.047h-0.255c0,0.016,0,0.031,0,0.047c0,0.022,0,0.046,0,0.069c0,0.236,0,0.472,0,0.708
			c0,1.548,0,3.097,0,4.645s0,3.097,0,4.645c0,0.774,0,1.548,0,2.322c0,0.101,0,0.201,0,0.302c0,0.045-0.007,0.096,0,0.14
			c0.007,0.052,0.038,0.083,0.046,0.14c0.008,0.051-0.014,0.112,0,0.162c0.015,0.054,0.062,0.077,0.07,0.14
			c0.002,0.021-0.008,0.05,0,0.069c0.01,0.027,0.038,0.026,0.046,0.047c0.008,0.02-0.006,0.048,0,0.069
			c0.005,0.017,0.038,0.053,0.047,0.069c0.048,0.104,0.116,0.184,0.162,0.279c0.048,0.099,0.17,0.2,0.256,0.278
			c0.091,0.083,0.18,0.154,0.278,0.209c0.066,0.037,0.221,0.079,0.256,0.151h0.116c0.007,0.015,0.015,0.03,0.022,0.046h0.116
			c0.028,0.017,0.056,0.04,0.07,0.069h0.231c0.008,0.016,0.016,0.031,0.023,0.047h1.208c0.016-0.016,0.03-0.031,0.046-0.047h0.163
			c0.02-0.019,0.027-0.042,0.022-0.069c0-0.016,0-0.031,0-0.046c0-0.26,0-0.52,0-0.778c0-1.548,0-3.097,0-4.645s0-3.097,0-4.645
			c0-0.774,0-1.548,0-2.322c0-0.104,0.008-0.21-0.022-0.302C50.072,64.686,50.083,64.578,50.055,64.493z M27.204,62.925h-0.139
			c0-0.007,0-0.015,0-0.022h-0.627c0,0.008,0,0.016,0,0.022h-0.162c-0.008,0.016-0.016,0.031-0.023,0.047h-0.279
			c-0.008,0.016-0.015,0.031-0.023,0.047h-0.116c-0.038,0.019-0.073,0.029-0.093,0.069h-0.14c0.008,0.045-0.122,0.087-0.163,0.104
			c-0.046,0.021-0.074,0.048-0.116,0.069c-0.016,0.006-0.031,0.011-0.047,0.016c-0.022,0-0.03,0.01-0.023,0.031
			c-0.155,0.083-0.286,0.19-0.395,0.325c-0.032,0.039-0.068,0.072-0.093,0.116c0,0.016,0,0.03,0,0.046
			c-0.016,0.008-0.031,0.016-0.046,0.023c-0.019,0.031-0.009,0.042-0.023,0.069c-0.016,0.016-0.031,0.031-0.047,0.047
			c-0.013,0.026-0.007,0.066-0.023,0.093c-0.018,0.028-0.034,0.011-0.046,0.047c0,0.015,0,0.03,0,0.046
			c-0.013,0.034-0.034,0.035-0.046,0.069c-0.016,0.043-0.003,0.075-0.023,0.116c-0.022,0.046-0.039,0.04-0.046,0.093
			c-0.005,0.037,0.009,0.08,0,0.116c-0.01,0.038-0.037,0.056-0.046,0.093c-0.015,0.062,0,0.146,0,0.21c0,0.139,0,0.278,0,0.418
			c0,0.278,0,0.557,0,0.836c0,1.548,0,3.096,0,4.645c0,0.193,0,0.387,0,0.58c0,0.111-0.023,0.194-0.023,0.302
			c0,0.047-0.001,0.093,0,0.14c0.021,0.01,0.029,0.025,0.023,0.046c-0.008,0.008-0.016,0.016-0.023,0.023
			c-0.004,0.021-0.021,0.058-0.023,0.07c-0.031,0.191-0.01,0.401-0.07,0.58c-0.019,0.056-0.014,0.1-0.023,0.162
			c-0.008,0.059-0.038,0.082-0.046,0.14c-0.008,0.056-0.007,0.091-0.023,0.14c-0.015,0.044-0.03,0.095-0.046,0.14
			c0,0.015,0,0.03,0,0.046c-0.016,0.008-0.031,0.016-0.047,0.023c-0.006,0.017,0,0.052,0,0.069c0,0.082-0.039,0.073-0.069,0.14
			c0.031,0.016,0.031,0.031,0,0.046c0,0.008,0,0.016,0,0.023c-0.006,0.019-0.038,0.052-0.046,0.07
			c-0.02,0.041-0.026,0.098-0.046,0.139c-0.026,0.053-0.068,0.107-0.093,0.151c-0.009,0.017-0.036,0.04-0.046,0.058
			c0,0.016,0,0.031,0,0.047c-0.008,0.004-0.015,0.008-0.023,0.012c-0.018,0.044-0.055,0.082-0.093,0.127
			c-0.012,0.015-0.028,0.049-0.046,0.07c-0.008,0.01-0.035,0.032-0.046,0.046c-0.153,0.195-0.338,0.364-0.534,0.512
			c-0.049,0.036-0.11,0.063-0.163,0.093c-0.045,0.024-0.091,0.058-0.139,0.075c-0.059,0.021-0.23,0.063-0.255,0.122h-0.163
			c-0.014,0.029-0.042,0.054-0.07,0.069h-0.232c-0.008,0.016-0.016,0.031-0.023,0.047h-1.068c-0.007-0.016-0.015-0.031-0.023-0.047
			h-0.209c-0.028-0.017-0.055-0.039-0.07-0.069h-0.163c0-0.016,0-0.031,0-0.047h-0.139c-0.07-0.127-0.289-0.14-0.395-0.232
			c-0.112-0.098-0.232-0.174-0.348-0.29c-0.065-0.064-0.112-0.127-0.163-0.186c-0.024-0.028-0.074-0.038-0.093-0.069
			c0-0.016,0-0.031,0-0.047c-0.016-0.016-0.031-0.031-0.046-0.047c-0.045-0.066-0.089-0.149-0.14-0.209
			c-0.015-0.018-0.034-0.049-0.046-0.069c0-0.016,0-0.031,0-0.046c-0.015-0.016-0.031-0.031-0.046-0.047
			c-0.007-0.015-0.016-0.058-0.023-0.069c0.007-0.021-0.001-0.032-0.023-0.035S19,73.5,19.006,73.479c0-0.016,0-0.03,0-0.046
			c-0.015-0.041-0.055-0.046-0.069-0.093c-0.01-0.033-0.013-0.063-0.023-0.093c-0.013-0.041-0.012-0.073-0.023-0.116
			s-0.056-0.055-0.07-0.093c-0.01-0.026,0.004-0.065,0-0.094c-0.007-0.047-0.035-0.053-0.046-0.093
			c-0.021-0.072,0.016-0.144-0.023-0.209c-0.025-0.042-0.036-0.012-0.046-0.069c-0.005-0.029,0-0.063,0-0.093
			c0-0.086-0.035-0.135-0.046-0.209c-0.009-0.06,0-0.126,0-0.186c0-0.111-0.023-0.194-0.023-0.303c0-0.106-0.046-0.167-0.046-0.278
			c0-0.193,0-0.387,0-0.58c0-0.388,0-0.774,0-1.161c0-0.774,0-1.549,0-2.322c0-0.774,0-1.549,0-2.322
			c0-0.184,0.032-0.416-0.023-0.581c-0.018-0.053-0.009-0.104-0.023-0.162c-0.013-0.053-0.062-0.084-0.069-0.14
			c-0.009-0.063-0.021-0.086-0.047-0.14c-0.01-0.021-0.013-0.049-0.023-0.069c-0.011-0.023-0.034-0.044-0.046-0.069
			c-0.101-0.204-0.226-0.379-0.418-0.534c-0.095-0.076-0.178-0.133-0.279-0.187c-0.046-0.023-0.092-0.055-0.139-0.077
			c-0.046-0.021-0.092-0.023-0.116-0.073h-0.14c0.009-0.052-0.053-0.055-0.093-0.069h-0.116c-0.007-0.016-0.015-0.031-0.023-0.047
			h-0.279c-0.008-0.016-0.016-0.031-0.023-0.047h-0.14c0-0.007,0-0.015,0-0.022h-0.627c0,0.008,0,0.016,0,0.022h-0.163
			c-0.015,0.016-0.031,0.031-0.046,0.047H15.5c0,0.016,0,0.031,0,0.047c0,0.022,0,0.046,0,0.069c0,0.863,0,1.727,0,2.589
			c0,1.549,0,3.097,0,4.645c0,0.774,0,1.549,0,2.322c0,0.055,0,0.108,0,0.163c0,0.059,0.007,0.091,0.023,0.139
			c0,0.001,0.021,0.068,0.023,0.07c0.006,0.01,0.043,0.037,0.046,0.046c0.005,0.021-0.002,0.037-0.023,0.047
			c0.007,0.008,0.015,0.016,0.023,0.023c0,0.022,0,0.046,0,0.069c0,0.117,0.046,0.185,0.046,0.302c0,0.067,0.021,0.086,0.046,0.14
			c0.023,0.048,0.023,0.08,0.023,0.139c0,0.075,0.035,0.075,0.046,0.14c0.004,0.022-0.005,0.048,0,0.069
			c0.009,0.036,0.03,0.038,0.046,0.07c0.023,0.047,0.009,0.088,0.023,0.139c0.006,0.021,0.041,0.049,0.046,0.07
			s-0.004,0.048,0,0.069c0.011,0.064,0.06,0.072,0.07,0.14c0.003,0.021-0.007,0.051,0,0.069c0.007,0.021,0.037,0.02,0.046,0.047
			c0.007,0.021-0.006,0.049,0,0.069c0.005,0.017,0.038,0.053,0.046,0.069c0.021,0.046,0.023,0.073,0.023,0.128h0.047
			c0.007,0.016,0.015,0.031,0.023,0.047c0,0.023,0,0.046,0,0.069h0.046c0,0.016,0,0.031,0,0.047
			c-0.018,0.063,0.025,0.046,0.046,0.081c0.024,0.039,0.008,0.053,0.023,0.093c-0.001-0.004,0.048,0.049,0.046,0.047
			c-0.005,0.021,0.002,0.036,0.023,0.046c0.015,0.031,0.032,0.063,0.046,0.093c0.007,0.016,0.039,0.06,0.046,0.07
			c-0.005,0.021,0.002,0.036,0.023,0.046c0.016,0.008,0.031,0.016,0.047,0.023c0,0.016,0,0.031,0,0.046
			c0.037,0.066,0.098,0.124,0.139,0.187c0.085,0.128,0.197,0.267,0.302,0.395c0.101,0.122,0.229,0.252,0.348,0.349
			c0.264,0.213,0.477,0.404,0.767,0.557c0.04,0.021,0.074,0.049,0.116,0.07c-0.008,0.021,0,0.031,0.023,0.028
			c0.016,0.004,0.031,0.008,0.046,0.012c0.07,0.031,0.139,0.079,0.209,0.114c0.069,0.034,0.14,0.075,0.209,0.101
			c0.06,0.022,0.131,0.017,0.163,0.082h0.116c0.008,0.015,0.016,0.03,0.023,0.046h0.093c0.028,0.017,0.055,0.04,0.07,0.069h0.139
			c0.008,0.016,0.016,0.031,0.023,0.047h0.163c0.028,0.017,0.055,0.039,0.069,0.069h0.209c0.008,0.016,0.016,0.031,0.023,0.047
			h0.163c0,0.008,0,0.016,0,0.023h0.093c0.028,0.017,0.055,0.039,0.07,0.069h2.903c0.015-0.023,0.031-0.047,0.046-0.069h0.116
			c0-0.008,0-0.016,0-0.023h0.163c0.016-0.016,0.031-0.031,0.047-0.047h0.186c0.014-0.029,0.042-0.054,0.07-0.069h0.163
			c0.007-0.016,0.015-0.031,0.023-0.047h0.139c0.014-0.029,0.042-0.054,0.07-0.069h0.116c0.008-0.016,0.016-0.031,0.023-0.046h0.116
			c0.035-0.063,0.124-0.088,0.186-0.11c0.074-0.027,0.134-0.058,0.209-0.088c0.073-0.028,0.135-0.083,0.209-0.116
			c0.063-0.027,0.125-0.073,0.186-0.107c0.127-0.074,0.25-0.152,0.349-0.232c0.131-0.107,0.272-0.211,0.395-0.333
			c0.07-0.069,0.14-0.14,0.209-0.209c0.039-0.039,0.08-0.076,0.116-0.116c0.021-0.01,0.029-0.025,0.023-0.047
			c0.015-0.008,0.031-0.015,0.046-0.022c0.027-0.045,0.033-0.072,0.069-0.116c0.024-0.029,0.051-0.069,0.07-0.093
			c0.023-0.029,0.045-0.037,0.07-0.07c0.016-0.016,0.031-0.03,0.046-0.046c0-0.016,0-0.031,0-0.047
			c0.02-0.033,0.071-0.049,0.093-0.093c0.016-0.033,0.025-0.061,0.046-0.093c0.024-0.036,0.052-0.056,0.07-0.093
			c0.009-0.02,0.012-0.078,0.023-0.093c0.019-0.023,0.054-0.015,0.07-0.047c0-0.016,0-0.031,0-0.046
			c0.015-0.024,0.032-0.046,0.046-0.07c0.014-0.022,0.035-0.061,0.046-0.081c0.013-0.023,0.034-0.03,0.023-0.069
			c0.008-0.016,0.016-0.031,0.023-0.047h0.023c0-0.023,0-0.046,0-0.069c0.015-0.029,0.06-0.038,0.07-0.059
			c0.012-0.025-0.01-0.066,0-0.093c0.015-0.008,0.031-0.016,0.046-0.023c0-0.015,0-0.03,0-0.046c0.011-0.03,0.009-0.04,0.023-0.069
			c0.015-0.031,0.038-0.06,0.047-0.094c0.005-0.021-0.008-0.049,0-0.069c0.015-0.008,0.031-0.016,0.046-0.023
			c0-0.016,0-0.03,0-0.046c0.008-0.022,0.013-0.049,0.023-0.07c0.015-0.03,0.038-0.059,0.046-0.093c0.006-0.021-0.005-0.048,0-0.069
			c0.015-0.058,0.061-0.101,0.07-0.163c0.006-0.042,0.011-0.057,0.023-0.093c0.008-0.025,0.019-0.041,0.023-0.069
			c0.004-0.029-0.007-0.064,0-0.093c0.009-0.036,0.03-0.037,0.046-0.069c0.026-0.053,0.023-0.123,0.023-0.187
			c0-0.071,0.037-0.096,0.046-0.162c0.007-0.053-0.009-0.11,0-0.163c0-0.015,0-0.03,0-0.046c0.016-0.008,0.031-0.016,0.046-0.023
			c0.007-0.02-0.003-0.049,0-0.069c0.005-0.031,0.023-0.052,0.023-0.093c0-0.023,0-0.047,0-0.07c0-0.065,0.005-0.107,0.023-0.162
			s0.023-0.098,0.023-0.163c0-0.054,0-0.108,0-0.162c0-0.101,0-0.201,0-0.302c0-0.107,0.046-0.168,0.046-0.279
			c0-0.193,0-0.387,0-0.58c0-0.387,0-0.774,0-1.161c0-0.774,0-1.548,0-2.322c0-1.544,0-3.089,0-4.633c0-0.023,0-0.047,0-0.069
			c0-0.016,0-0.031,0-0.047h-0.349C27.22,62.956,27.212,62.94,27.204,62.925z M50.311,58.524c0-0.055-0.001-0.095-0.023-0.139
			c-0.016-0.033-0.037-0.034-0.047-0.07c-0.005-0.021,0.008-0.049,0-0.069c-0.01-0.027-0.038-0.026-0.046-0.047
			c-0.008-0.02,0.006-0.049,0-0.069c-0.006-0.022-0.036-0.049-0.047-0.069c-0.011-0.022-0.013-0.05-0.023-0.07
			c-0.024-0.05-0.068-0.089-0.093-0.139c-0.002-0.005-0.021-0.068-0.022-0.07c-0.02-0.025-0.052-0.024-0.07-0.046
			c0-0.016,0-0.031,0-0.047c-0.008-0.004-0.016-0.008-0.023-0.012c-0.009-0.016-0.03-0.04-0.046-0.058
			c-0.016-0.008-0.031-0.016-0.047-0.023c0-0.008,0-0.016,0-0.023c-0.023-0.022-0.045-0.048-0.069-0.069
			c-0.086-0.078-0.154-0.147-0.256-0.209c-0.089-0.055-0.156-0.102-0.255-0.151c-0.047-0.023-0.221-0.05-0.209-0.116h-0.186
			c-0.008-0.015-0.016-0.03-0.023-0.046h-0.163c0-0.008,0-0.016,0-0.023h-0.487c0,0.008,0,0.016,0,0.023h-0.14
			c-0.016,0.016-0.03,0.031-0.046,0.046h-0.163c-0.043,0.087-0.2,0.09-0.278,0.128c-0.046,0.023-0.094,0.074-0.14,0.101
			c-0.046,0.027-0.097,0.051-0.139,0.085c-0.09,0.074-0.166,0.147-0.232,0.221c-0.062,0.068-0.157,0.151-0.209,0.244
			c-0.011,0.02-0.013,0.04-0.023,0.059c-0.007,0.011-0.039,0.048-0.047,0.058c-0.029,0.041-0.042,0.096-0.069,0.14
			c-0.004,0.007-0.045,0.042-0.046,0.046c-0.008,0.021,0.007,0.05,0,0.069c-0.02,0.052-0.047,0.046-0.047,0.116
			c0,0.067-0.021,0.086-0.047,0.14c-0.022,0.049-0.022,0.08-0.022,0.14c0,0.046,0,0.093,0,0.139c0,0.071-0.028,0.065-0.047,0.116
			c-0.038,0.105,0.034,0.216,0.047,0.302c0.014,0.093-0.026,0.201,0.022,0.279c0.028,0.044,0.047,0.051,0.047,0.116
			c0,0.018-0.006,0.053,0,0.069c0.01,0.027,0.039,0.026,0.047,0.047c0.007,0.02-0.008,0.049,0,0.069
			c0.013,0.035,0.028,0.018,0.046,0.047c0.02,0.031,0.01,0.04,0.023,0.069c0.012,0.023,0.034,0.044,0.046,0.069
			c0.011,0.021,0.013,0.048,0.023,0.07c0.009,0.017,0.038,0.056,0.047,0.069c0.029,0.044,0.06,0.091,0.093,0.128
			c0.066,0.073,0.132,0.141,0.209,0.221c0.065,0.067,0.169,0.136,0.255,0.197c0.044,0.031,0.094,0.056,0.14,0.081
			c0.036,0.021,0.098,0.04,0.116,0.081h0.093c0.028,0.017,0.056,0.04,0.069,0.07h0.163c0.008,0.015,0.016,0.03,0.023,0.046h0.859
			c0.015-0.016,0.03-0.031,0.046-0.046h0.14c0.016-0.023,0.031-0.047,0.046-0.07h0.116c0.023-0.051,0.074-0.044,0.116-0.069
			c0.036-0.021,0.07-0.054,0.116-0.081c0.098-0.06,0.194-0.132,0.278-0.209c0.09-0.081,0.162-0.186,0.232-0.256
			c0.027-0.027,0.072-0.074,0.093-0.116c0.009-0.017,0.013-0.056,0.023-0.069c0.013-0.017,0.063-0.032,0.069-0.047
			c0.01-0.018-0.005-0.05,0-0.069c0.005-0.017,0.039-0.054,0.047-0.069c0.01-0.021,0.013-0.048,0.023-0.07
			c0.008-0.017,0.041-0.053,0.046-0.069c0.015-0.052,0.001-0.092,0.023-0.14c0.026-0.054,0.047-0.072,0.047-0.139
			c0-0.109,0.046-0.178,0.046-0.279c0-0.085,0-0.17,0-0.255c0-0.021,0.005-0.051,0-0.07c-0.008-0.031-0.038-0.042-0.046-0.069
			C50.299,58.625,50.311,58.565,50.311,58.524z M53.26,40.26h0.046c-0.004-0.033,0.014-0.057,0.047-0.069
			c0.008-0.016,0.016-0.031,0.023-0.046h0.022c0.016-0.023,0.031-0.047,0.047-0.07h0.023c0-0.016,0-0.03,0-0.046h0.046
			c0.016-0.023,0.031-0.047,0.047-0.07h0.023c0-0.016,0-0.031,0-0.046h0.046c0.016-0.023,0.031-0.047,0.047-0.07h0.023
			c0-0.016,0-0.031,0-0.046h0.022c0.016-0.023,0.031-0.046,0.047-0.07c0.008-0.016,0.016-0.031,0.023-0.046h0.022
			c0.016-0.023,0.031-0.046,0.047-0.07h0.023c-0.005-0.03,0.031-0.067,0.046-0.081c0.036-0.034,0.091-0.074,0.116-0.116
			c0.025-0.041,0.033-0.074,0.07-0.116c0.018-0.021,0.042-0.043,0.069-0.069c0.039-0.039,0.048-0.072,0.069-0.116
			c0.019-0.038,0.045-0.051,0.07-0.082c0.023-0.029,0.067-0.065,0.093-0.104c0-0.015,0-0.031,0-0.046
			c0.016-0.015,0.03-0.031,0.046-0.046c0.01-0.011,0.061-0.05,0.07-0.07c0.009-0.019-0.008-0.05,0-0.069
			c0.013-0.034,0.1-0.06,0.116-0.093c0.021-0.043,0.007-0.1,0.046-0.139c0.021-0.021,0.055-0.015,0.069-0.046
			c0.01-0.019-0.007-0.05,0-0.07c0.016-0.007,0.031-0.015,0.047-0.023c-0.006-0.021,0.002-0.037,0.023-0.046
			c0.026-0.03,0.032-0.008,0.046-0.046c0.008-0.02-0.009-0.051,0-0.07c0.008-0.014,0.058-0.03,0.07-0.046
			c0.001-0.002,0.021-0.065,0.022-0.07c0.014-0.027,0.03-0.044,0.047-0.07c0.033-0.049,0.066-0.087,0.093-0.139
			c0.014-0.026,0.007-0.066,0.023-0.093c0.011-0.018,0.035-0.029,0.046-0.046c0.008-0.012,0.017-0.056,0.023-0.07
			c0.013-0.027,0.03-0.044,0.047-0.07c0.012-0.018,0.031-0.047,0.046-0.069c0.005-0.007,0.045-0.062,0.047-0.07
			c0.006-0.02-0.009-0.052,0-0.07c0.011-0.021,0.056-0.018,0.069-0.046c0.01-0.019,0.018-0.074,0.023-0.093
			c0.002-0.005,0.02-0.063,0.023-0.07c0.011-0.02,0.036-0.04,0.046-0.058c0.016-0.025,0.012-0.027,0.023-0.058
			c0.013-0.03,0.009-0.032,0.023-0.058c0.015-0.026,0.036-0.024,0.046-0.058c0.007-0.021-0.006-0.048,0-0.07
			c0.005-0.016,0.039-0.054,0.047-0.07c0-0.015,0-0.031,0-0.046c0.016-0.016,0.031-0.031,0.047-0.046
			c0.007-0.015,0.016-0.058,0.022-0.07c0.005-0.007,0.045-0.042,0.047-0.046c0.008-0.02-0.008-0.049,0-0.069
			c0.013-0.036,0.028-0.018,0.046-0.046c0.023-0.038,0.011-0.032,0.023-0.07c0.015-0.044,0.04-0.096,0.047-0.14
			c0.007-0.047,0-0.046,0.023-0.077c0.021-0.029,0.03,0,0.046-0.039c0.008-0.02-0.005-0.049,0-0.07
			c0.008-0.031,0.039-0.042,0.047-0.07c0.016-0.055-0.007-0.083,0.023-0.124c0.021-0.029,0.03-0.001,0.046-0.039
			c0.008-0.019-0.003-0.049,0-0.069c0-0.016,0-0.031,0-0.046c0.016-0.008,0.031-0.016,0.047-0.023c0.007-0.019-0.003-0.049,0-0.07
			c0.008-0.056,0.056-0.086,0.069-0.139c0.006-0.022-0.006-0.048,0-0.07s0.039-0.048,0.047-0.069
			c0.021-0.01,0.028-0.026,0.022-0.046c-0.008-0.008-0.016-0.016-0.022-0.023c0.004-0.024,0.013-0.049,0.022-0.07
			c0.016-0.015,0.031-0.031,0.047-0.046c0-0.016,0-0.031,0-0.046c0.011-0.032,0.008-0.038,0.023-0.07
			c0.024-0.052,0.046-0.075,0.046-0.139c0-0.071,0.028-0.065,0.047-0.116c0.015-0.041-0.016-0.099,0-0.139
			c0.016-0.008,0.03-0.016,0.046-0.023c0-0.015,0-0.031,0-0.046c0.014-0.035,0.018-0.03,0.023-0.07c0.003-0.02-0.007-0.05,0-0.069
			c0.01-0.027,0.039-0.027,0.047-0.046c0.015-0.041-0.011-0.097,0-0.14c0.013-0.053,0.062-0.083,0.069-0.139
			c0.009-0.063,0.005-0.107,0.023-0.163c0.016-0.048,0.023-0.08,0.023-0.139c0-0.082,0.045-0.074,0.069-0.14
			c0.013-0.035,0-0.101,0-0.139c0-0.075,0.035-0.074,0.046-0.139c0.008-0.043,0-0.095,0-0.14c0-0.016-0.007-0.056,0-0.069
			c0.011-0.021,0.057-0.019,0.07-0.047c0.015-0.03,0-0.105,0-0.139c0-0.118,0.046-0.184,0.046-0.302c0-0.039-0.013-0.104,0-0.139
			c0.019-0.05,0.061-0.05,0.07-0.116c0.013-0.095-0.026-0.21,0-0.302c0.008-0.027,0.038-0.038,0.046-0.069
			c0.005-0.02,0-0.049,0-0.07c0-0.058,0.017-0.091,0.023-0.139c0.011-0.074-0.027-0.105,0-0.163
			c0.012-0.025,0.035-0.015,0.047-0.046c0.006-0.017,0-0.052,0-0.07c0-0.093,0-0.186,0-0.279c0-0.028-0.007-0.066,0-0.093
			c0.008-0.031,0.038-0.042,0.046-0.07c0.006-0.021-0.003-0.048,0-0.069c0.004-0.026,0.021-0.052,0.023-0.07
			c0.014-0.088,0-0.189,0-0.279c0-0.052,0.007-0.11,0-0.163c0.001,0.004-0.015-0.095-0.023-0.069
			c0.012-0.032,0.059-0.023,0.07-0.046c0.029-0.06,0-0.211,0-0.279c0-1.548,0-3.096,0-4.645s0-3.096,0-4.645
			c0-0.774,0-1.548,0-2.322c0-0.387,0-0.774,0-1.161c0-0.193,0-0.387,0-0.581c0-0.101,0-0.201,0-0.302c0-0.02,0.005-0.051,0-0.07
			c-0.009-0.029-0.039-0.038-0.047-0.058c-0.031-0.006-0.031-0.018,0-0.035c0-0.008,0-0.016,0-0.023c0-0.023,0-0.047,0-0.07
			c0-0.097,0.015-0.207,0-0.302c-0.003-0.018-0.02-0.043-0.023-0.07c-0.003-0.021,0.008-0.051,0-0.07
			c-0.008-0.02-0.036-0.02-0.046-0.046c-0.007-0.017,0-0.051,0-0.07c0-0.103,0.011-0.213-0.023-0.302
			c-0.008-0.021-0.018-0.044-0.023-0.058c-0.011-0.027-0.022-0.016-0.023-0.058c0-0.008,0.023-0.047,0.023-0.069
			c0,0-0.021-0.057-0.023-0.07c-0.009-0.063-0.005-0.108-0.022-0.163c-0.017-0.048-0.023-0.08-0.023-0.139
			c0-0.038,0.013-0.104,0-0.14c-0.002-0.004-0.042-0.039-0.047-0.046c-0.023-0.038-0.017-0.027-0.023-0.069
			c-0.007-0.049,0.017-0.117,0-0.163c-0.019-0.052-0.046-0.046-0.046-0.116c0-0.038,0.013-0.104,0-0.14
			c-0.002-0.004-0.042-0.039-0.047-0.046c-0.023-0.038-0.017-0.026-0.023-0.069c-0.004-0.028,0.01-0.067,0-0.093
			c-0.01-0.027-0.038-0.026-0.046-0.046c-0.015-0.039,0.006-0.098,0-0.139c-0.009-0.059-0.053-0.07-0.069-0.116
			c-0.016-0.041,0.015-0.099,0-0.139c-0.016-0.008-0.031-0.016-0.047-0.023c0-0.015,0-0.031,0-0.046
			c-0.004-0.021,0.006-0.048,0-0.069c-0.018-0.059-0.059-0.054-0.069-0.116c-0.004-0.021,0.007-0.05,0-0.07
			c-0.01-0.027-0.039-0.026-0.047-0.046c-0.015-0.04,0.019-0.102,0-0.139c-0.02-0.04-0.056-0.031-0.069-0.07
			c-0.008-0.021,0.005-0.049,0-0.07c-0.009-0.033-0.037-0.04-0.047-0.07c-0.03-0.015-0.03-0.031,0-0.046c0-0.007,0-0.015,0-0.023
			c-0.013-0.028-0.031-0.021-0.046-0.046c-0.023-0.038-0.011-0.032-0.023-0.07c-0.013-0.038,0-0.032-0.023-0.07
			c-0.004-0.007-0.045-0.042-0.046-0.046c-0.011-0.027,0.01-0.065,0-0.093c-0.008-0.02-0.037-0.02-0.047-0.046
			c-0.008-0.021,0.008-0.049,0-0.07c-0.002-0.004-0.042-0.039-0.047-0.046c-0.027-0.043-0.046-0.094-0.069-0.139
			c-0.015-0.027-0.006-0.033-0.023-0.058C56.031,12,56.015,12.005,56,11.976c0-0.023,0-0.046,0-0.07h-0.023
			c-0.008-0.016-0.016-0.031-0.023-0.046c0-0.023,0-0.046,0-0.07h-0.069c0-0.015,0-0.031,0-0.046c0-0.023,0-0.046,0-0.07h-0.047
			c-0.02-0.018-0.016-0.037-0.023-0.058c0.031-0.016,0.031-0.031,0-0.047c-0.007-0.003-0.015-0.007-0.022-0.011
			c-0.022-0.003-0.03-0.014-0.023-0.035c0-0.008,0-0.015,0-0.023c-0.016-0.008-0.031-0.016-0.047-0.023
			c-0.007-0.02,0.01-0.051,0-0.07c-0.012-0.017-0.027-0.028-0.046-0.035c-0.018-0.031-0.028-0.067-0.047-0.104
			c-0.021-0.042-0.069-0.087-0.093-0.116c-0.021-0.026-0.049-0.089-0.069-0.116c-0.012-0.015-0.038-0.036-0.047-0.047
			c-0.021-0.01-0.028-0.025-0.023-0.046c-0.021-0.042-0.062-0.078-0.093-0.116c-0.02-0.025-0.047-0.048-0.069-0.07
			c0.003,0.002-0.046-0.045-0.047-0.046c-0.007-0.013-0.016-0.055-0.022-0.07c-0.016-0.016-0.031-0.031-0.047-0.046
			c-0.056-0.062-0.105-0.116-0.162-0.186c-0.035-0.042-0.082-0.074-0.116-0.116c-0.03-0.037-0.04-0.074-0.07-0.104
			c-0.07-0.072-0.153-0.156-0.231-0.221c-0.084-0.068-0.171-0.142-0.256-0.209c-0.021-0.016-0.063-0.065-0.093-0.093
			c-0.032-0.031-0.064-0.034-0.093-0.062c-0.114-0.112-0.265-0.211-0.395-0.302c-0.021-0.014-0.049-0.024-0.07-0.039
			c-0.016-0.005-0.03-0.01-0.046-0.015c0-0.008,0-0.016,0-0.023c-0.038-0.025-0.078-0.046-0.116-0.07
			c-0.04-0.024-0.075-0.057-0.116-0.075c-0.05-0.022-0.056-0.028-0.093-0.052c-0.071-0.047-0.158-0.101-0.232-0.134
			c-0.074-0.033-0.165-0.043-0.209-0.122h-0.116c0-0.016,0-0.031,0-0.047h-0.116c-0.02-0.019-0.027-0.042-0.023-0.069h-0.116
			c-0.007-0.016-0.015-0.031-0.022-0.046h-0.116c-0.016-0.023-0.031-0.047-0.047-0.07h-0.139c-0.008-0.016-0.016-0.031-0.023-0.046
			h-0.116c-0.028-0.017-0.056-0.04-0.069-0.07H51.75c0-0.016,0-0.031,0-0.046h-0.186c-0.033-0.015-0.052-0.034-0.047-0.07h-0.209
			c-0.008-0.015-0.016-0.031-0.023-0.046h-0.139c0-0.008,0-0.016,0-0.023h-0.163c-0.02-0.02-0.027-0.043-0.022-0.07h-2.694
			c-0.016,0.023-0.031,0.046-0.046,0.07h-0.14c0,0.007,0,0.015,0,0.023h-0.163c-0.007,0.016-0.015,0.031-0.022,0.046h-0.209
			c-0.016,0.023-0.031,0.046-0.047,0.07h-0.186c-0.008,0.016-0.016,0.031-0.023,0.046h-0.162c-0.015,0.03-0.042,0.054-0.07,0.07
			h-0.116c-0.008,0.016-0.015,0.031-0.022,0.046h-0.14c-0.02,0.02-0.027,0.042-0.023,0.07h-0.14c0,0.015,0,0.031,0,0.046h-0.115
			c-0.016,0.023-0.031,0.046-0.047,0.069h-0.093c-0.008,0.016-0.016,0.031-0.023,0.047h-0.093c-0.043,0.077-0.143,0.092-0.209,0.122
			c-0.085,0.038-0.173,0.099-0.256,0.146c-0.165,0.092-0.325,0.203-0.487,0.302c-0.021,0.012-0.05,0.032-0.069,0.046
			c0.007,0.021-0.001,0.031-0.023,0.031c-0.008,0.003-0.016,0.005-0.023,0.008c-0.028,0.028-0.055,0.042-0.093,0.07
			c-0.029,0.021-0.055,0.049-0.093,0.077c0.007,0.021-0.001,0.032-0.023,0.031c-0.008,0.002-0.016,0.005-0.023,0.008
			c-0.022,0-0.03,0.01-0.023,0.031c-0.157,0.113-0.294,0.231-0.418,0.372c-0.055,0.062-0.13,0.113-0.186,0.174
			c-0.063,0.069-0.127,0.112-0.186,0.186c-0.118,0.148-0.242,0.294-0.349,0.453c-0.026,0.04-0.063,0.088-0.093,0.116
			c-0.021,0.021-0.053,0.045-0.069,0.07c0,0.016,0,0.031,0,0.046c-0.021,0.034-0.071,0.049-0.093,0.093
			c-0.022,0.046-0.037,0.072-0.07,0.116c-0.007,0.009-0.04,0.047-0.046,0.058c-0.022,0.002-0.03,0.014-0.023,0.035
			c0,0.008,0,0.016,0,0.023c-0.021,0.032-0.044,0.057-0.069,0.093c-0.01,0.013-0.037,0.052-0.047,0.07c0,0.016,0,0.031,0,0.046
			c-0.026,0.034-0.079,0.021-0.069,0.081h0.023c-0.015,0.03-0.042,0.054-0.07,0.07c0,0.016,0,0.031,0,0.046
			c-0.016,0.023-0.03,0.046-0.046,0.07h-0.023c0,0.016,0,0.031,0,0.046c-0.016,0.023-0.031,0.046-0.047,0.07
			c-0.009,0.075-0.069,0.128-0.093,0.197c-0.012,0.035-0.03,0.083-0.046,0.116c-0.016,0.016-0.031,0.031-0.047,0.046
			c0,0.016,0,0.031,0,0.046c-0.008,0.016-0.042,0.054-0.046,0.07c0,0.015,0,0.031,0,0.046c-0.015,0.026-0.06,0.048-0.07,0.069
			c-0.012,0.024,0.007,0.067,0,0.093c-0.008,0.034-0.032,0.062-0.046,0.093c-0.026,0.056-0.06,0.08-0.07,0.139
			c-0.011,0.063-0.019,0.08-0.046,0.128c-0.02,0.033-0.033,0.086-0.047,0.128c-0.013,0.039-0.008,0.098-0.023,0.139
			c-0.014,0.039-0.059,0.05-0.069,0.093c-0.005,0.021,0.008,0.049,0,0.07c-0.019,0.051-0.046,0.045-0.046,0.116
			c0,0.02,0.005,0.05,0,0.069c-0.01,0.036-0.031,0.037-0.047,0.07c-0.023,0.048-0.014,0.084-0.023,0.139
			c-0.011,0.065-0.046,0.064-0.046,0.14c0,0.064-0.022,0.087-0.047,0.139c-0.023,0.051-0.015,0.081-0.023,0.139
			c-0.008,0.058-0.038,0.082-0.046,0.14c-0.007,0.048,0.017,0.117,0,0.163c-0.024,0.065-0.07,0.057-0.07,0.139
			c0,0.042,0.011,0.1,0,0.139c-0.015,0.054-0.046,0.072-0.046,0.14c0,0.051,0.009,0.112,0,0.163
			c-0.011,0.063-0.053,0.057-0.07,0.116c-0.024,0.084,0.031,0.197,0,0.279c-0.015,0.008-0.03,0.016-0.046,0.023
			c0,0.015,0,0.031,0,0.046c-0.004,0.022,0.004,0.047,0,0.069c-0.003,0.018-0.02,0.043-0.023,0.07c-0.003,0.022,0,0.047,0,0.07
			c0,0.046-0.001,0.093,0,0.139c0.021,0.01,0.029,0.025,0.023,0.046c-0.008,0.003-0.016,0.005-0.023,0.008
			c-0.014,0.025-0.032,0.005-0.046,0.039c-0.03,0.073,0,0.222,0,0.302c0,0.046,0,0.093,0,0.139c0,0.021,0.005,0.05,0,0.07
			c-0.008,0.031-0.039,0.042-0.047,0.069c-0.014,0.049,0.007,0.112,0,0.163c-0.008,0.053-0.023,0.083-0.023,0.14
			c0,0.093,0,0.186,0,0.278c0,1.548,0,3.097,0,4.645c0,1.548,0,3.097,0,4.645c0,1.548,0,3.096,0,4.645c0,0.774,0,1.548,0,2.322
			c0,0.387,0,0.774,0,1.161c0,0.193,0,0.387,0,0.581c0,0.101,0,0.201,0,0.302c0,0.041,0.012,0.1,0,0.139
			c-0.008,0.028-0.038,0.039-0.046,0.07c-0.005,0.02,0,0.049,0,0.07c0,0.387,0,0.774,0,1.161c0,0.054,0,0.108,0,0.163
			c0,0.067-0.032,0.083-0.047,0.139c-0.011,0.043,0.007,0.095,0,0.139c-0.007,0.053-0.023,0.083-0.023,0.14c0,0.101,0,0.201,0,0.302
			c0,0.111-0.046,0.171-0.046,0.279c0,0.101,0,0.201,0,0.302c0,0.059-0.007,0.091-0.023,0.139c-0.007,0.021-0.016,0.046-0.023,0.07
			c-0.003,0.009-0.022,0.068-0.023,0.07c-0.014,0.091,0.031,0.215,0,0.302c-0.019,0.051-0.046,0.045-0.046,0.116
			c0,0.046,0,0.093,0,0.139c0,0.065-0.005,0.108-0.023,0.163c-0.017,0.051-0.038,0.083-0.046,0.139c-0.007,0.044,0,0.095,0,0.14
			c0,0.018,0.006,0.053,0,0.069c-0.01,0.027-0.039,0.027-0.047,0.047c-0.016,0.041,0,0.118,0,0.162c0,0.021,0.005,0.05,0,0.07
			c-0.009,0.035-0.031,0.037-0.047,0.069c-0.036,0.076-0.022,0.177-0.022,0.267h-0.023c-0.02-0.04-0.055-0.051-0.093-0.069H41.23
			c-0.008-0.016-0.016-0.031-0.023-0.047h-0.116c-0.036-0.073-0.167-0.083-0.231-0.115c-0.077-0.039-0.156-0.071-0.232-0.112
			c-0.174-0.094-0.309-0.177-0.465-0.294c-0.165-0.124-0.318-0.238-0.464-0.372c-0.08-0.073-0.159-0.152-0.232-0.232
			c-0.02-0.021-0.052-0.072-0.069-0.093c-0.015-0.017-0.038-0.061-0.047-0.07c-0.015-0.007-0.031-0.015-0.046-0.023
			c-0.123-0.152-0.216-0.302-0.325-0.464c-0.023-0.035-0.051-0.073-0.069-0.104c-0.018-0.031-0.028-0.067-0.046-0.104
			c-0.021-0.043-0.055-0.071-0.07-0.116c-0.015-0.045-0.048-0.073-0.07-0.116c-0.042-0.084-0.077-0.17-0.116-0.255
			c-0.01-0.021-0.014-0.05-0.023-0.07c-0.016-0.015-0.031-0.031-0.046-0.046c-0.014-0.047-0.001-0.067-0.023-0.104
			c-0.015-0.025-0.036-0.023-0.046-0.058c0-0.015,0-0.031,0-0.046c-0.016-0.043-0.037-0.039-0.046-0.093
			c-0.003-0.019,0.008-0.053,0-0.07c-0.012-0.017-0.027-0.028-0.046-0.035c-0.022-0.038-0.016-0.053-0.023-0.104
			c-0.006-0.048-0.035-0.054-0.046-0.093c-0.006-0.021,0.005-0.048,0-0.07c-0.014-0.057-0.061-0.076-0.069-0.139
			c-0.003-0.022,0.005-0.048,0-0.07c-0.008-0.031-0.039-0.042-0.046-0.07c-0.013-0.043,0.012-0.096,0-0.139
			c-0.009-0.033-0.061-0.059-0.07-0.093c-0.005-0.02,0-0.05,0-0.07c0-0.067-0.032-0.083-0.046-0.139
			c-0.011-0.044,0.007-0.095,0-0.14c-0.008-0.048-0.058-0.091-0.07-0.139c-0.013-0.051,0.013-0.112,0-0.163
			c-0.014-0.057-0.046-0.072-0.046-0.139c0-0.045,0.006-0.095,0-0.14c-0.004-0.024-0.013-0.048-0.023-0.069
			c-0.008-0.017-0.042-0.054-0.046-0.07c-0.026-0.092,0.013-0.207,0-0.302c-0.008-0.058-0.038-0.082-0.046-0.14
			c-0.006-0.044,0-0.094,0-0.139c0-0.106,0.001-0.205-0.023-0.302c-0.014-0.057-0.046-0.072-0.046-0.14c0-0.046,0-0.093,0-0.139
			c0-0.193,0-0.387,0-0.581c0-0.091,0.022-0.214,0-0.302c-0.014-0.057-0.046-0.072-0.046-0.14c0-0.046,0-0.093,0-0.139
			c0-0.193,0-0.387,0-0.581c0-1.548,0-3.096,0-4.645c0-1.548,0-3.096,0-4.645c0-0.054,0-0.108,0-0.163c0-0.022,0.003-0.047,0-0.069
			c-0.003-0.026-0.02-0.052-0.023-0.07c-0.007-0.045,0.008-0.094,0-0.139c-0.01-0.059-0.037-0.058-0.046-0.116
			c-0.017-0.098,0.014-0.204,0-0.302c-0.007-0.047-0.01-0.093-0.023-0.14c-0.009-0.032-0.042-0.031-0.046-0.07
			c0,0.003,0.023-0.055,0.023-0.069c0-0.032-0.018-0.057-0.023-0.093c-0.003-0.023,0.003-0.047,0-0.07
			c-0.008-0.058-0.039-0.081-0.046-0.139c-0.006-0.044,0-0.095,0-0.14c0-0.067-0.021-0.085-0.046-0.139
			c-0.042-0.088-0.016-0.209-0.046-0.302c-0.016-0.048-0.015-0.084-0.023-0.14c-0.003-0.021-0.013-0.053-0.023-0.07
			c-0.004-0.007-0.044-0.042-0.046-0.046c-0.018-0.047,0.013-0.113,0-0.163c-0.014-0.057-0.046-0.072-0.046-0.139
			c0-0.064-0.022-0.087-0.046-0.139c-0.023-0.05-0.009-0.084-0.023-0.14c-0.01-0.038-0.037-0.055-0.047-0.093
			c-0.005-0.022,0.006-0.048,0-0.069c-0.014-0.058-0.061-0.076-0.069-0.14c-0.003-0.021,0.007-0.05,0-0.069
			c-0.01-0.027-0.039-0.027-0.046-0.047c-0.017-0.043-0.003-0.098-0.023-0.139c-0.016-0.016-0.031-0.031-0.046-0.046
			c0-0.016,0-0.031,0-0.046c-0.011-0.033-0.008-0.038-0.023-0.07c-0.01-0.021-0.04-0.047-0.046-0.07
			c-0.006-0.021,0.006-0.048,0-0.069c-0.008-0.028-0.039-0.039-0.046-0.07c-0.005-0.021,0.007-0.049,0-0.07
			c-0.01-0.028-0.059-0.042-0.069-0.069c-0.008-0.021,0.007-0.049,0-0.07c-0.013-0.034-0.034-0.036-0.047-0.07
			c-0.007-0.02,0.009-0.051,0-0.069c-0.011-0.021-0.056-0.019-0.069-0.046c-0.009-0.019,0.005-0.05,0-0.07
			c-0.004-0.014-0.04-0.056-0.046-0.07c-0.011-0.021-0.012-0.039-0.023-0.058c-0.02-0.035-0.059-0.06-0.046-0.116h-0.023
			c-0.031-0.034-0.023-0.074-0.023-0.116h-0.046c0-0.016,0-0.031,0-0.046H36.47c0-0.008,0-0.016,0-0.023c0-0.016,0-0.031,0-0.046
			h-0.046c0-0.094-0.057-0.144-0.093-0.221c-0.022-0.046-0.065-0.071-0.093-0.116c-0.007-0.011-0.017-0.056-0.023-0.069
			c-0.016-0.016-0.031-0.031-0.046-0.047c-0.006-0.006-0.041-0.058-0.046-0.069c0-0.016,0-0.031,0-0.046
			c-0.034-0.043-0.067-0.045-0.093-0.093c-0.039-0.071-0.087-0.169-0.139-0.232c-0.063-0.076-0.156-0.146-0.209-0.232
			c-0.025-0.041-0.035-0.073-0.07-0.116c-0.031-0.038-0.067-0.084-0.093-0.116c-0.025-0.033-0.065-0.039-0.093-0.07
			c-0.025-0.028-0.047-0.075-0.07-0.093c-0.061-0.048-0.115-0.086-0.163-0.14c-0.114-0.129-0.227-0.229-0.372-0.36
			c-0.126-0.115-0.299-0.229-0.441-0.344c-0.059-0.048-0.132-0.089-0.209-0.132c-0.081-0.044-0.151-0.12-0.232-0.163
			c-0.077-0.041-0.156-0.08-0.232-0.124c-0.065-0.038-0.146-0.048-0.186-0.12h-0.093c-0.031-0.068-0.128-0.045-0.163-0.116h-0.116
			c0-0.015,0-0.031,0-0.046h-0.116c-0.033-0.015-0.051-0.034-0.046-0.07H32.87c-0.008-0.015-0.015-0.031-0.023-0.046h-0.14
			c-0.015-0.023-0.031-0.046-0.046-0.069h-0.163c-0.007-0.016-0.015-0.031-0.023-0.047h-0.14c-0.038-0.019-0.073-0.029-0.093-0.069
			h-0.209c-0.04-0.037-0.09-0.051-0.139-0.07h-0.209c-0.008-0.016-0.016-0.031-0.023-0.046h-0.372
			c-0.008-0.016-0.015-0.031-0.023-0.046h-0.163c0-0.008,0-0.016,0-0.023h-1.254c0,0.008,0,0.016,0,0.023h-0.116
			c-0.016,0.016-0.031,0.031-0.046,0.046H29.34c-0.007,0.016-0.015,0.031-0.023,0.046h-0.209c-0.038,0.019-0.073,0.03-0.093,0.07
			h-0.209c-0.02,0.04-0.055,0.051-0.093,0.069h-0.139c-0.008,0.016-0.016,0.031-0.023,0.047h-0.139
			c-0.014,0.029-0.042,0.054-0.07,0.069h-0.116c-0.007,0.016-0.015,0.031-0.023,0.046h-0.116c-0.014,0.03-0.042,0.054-0.07,0.07
			h-0.093c-0.008,0.016-0.015,0.031-0.023,0.046h-0.093c-0.035,0.071-0.132,0.047-0.162,0.116h-0.116
			c-0.043,0.078-0.137,0.089-0.209,0.128c-0.042,0.022-0.07,0.049-0.116,0.069c-0.038,0.017-0.08,0.049-0.116,0.07
			c-0.156,0.086-0.311,0.188-0.464,0.279c-0.038,0.022-0.083,0.073-0.116,0.101c-0.035,0.028-0.056,0.04-0.093,0.073
			c-0.061,0.055-0.154,0.12-0.209,0.159c-0.15,0.107-0.264,0.235-0.395,0.341c-0.152,0.123-0.311,0.296-0.418,0.43
			c-0.054,0.068-0.111,0.105-0.163,0.174c-0.058,0.079-0.132,0.152-0.186,0.232c-0.029,0.043-0.065,0.058-0.093,0.093
			c-0.025,0.032-0.042,0.083-0.07,0.116c-0.049,0.058-0.097,0.137-0.139,0.209c-0.023,0.039-0.071,0.083-0.093,0.116
			c-0.023,0.034-0.045,0.08-0.069,0.116c-0.03,0.045-0.045,0.072-0.07,0.116c-0.021,0.038-0.051,0.034-0.046,0.082
			c-0.008,0.016-0.016,0.031-0.023,0.046h-0.023c0,0.023,0,0.046,0,0.07h-0.046c-0.02,0.019-0.028,0.042-0.023,0.069
			c0.006,0.037-0.013,0.024-0.023,0.047c-0.022,0.002-0.03,0.014-0.023,0.035c0,0.008,0,0.016,0,0.023
			c-0.023,0.039-0.056,0.056-0.07,0.093c-0.007,0.021,0.008,0.049,0,0.069c-0.015,0.008-0.031,0.016-0.046,0.023
			c-0.013,0.021-0.007,0.043-0.023,0.07c0.007,0.021-0.001,0.032-0.023,0.035c-0.02,0.035-0.007,0.063-0.023,0.104
			c-0.001,0.004-0.042,0.04-0.046,0.046c-0.021,0.01-0.028,0.025-0.023,0.046c-0.037,0.077-0.066,0.152-0.093,0.232
			c-0.003,0.008-0.019,0.06-0.023,0.069c-0.016,0.016-0.031,0.031-0.046,0.046c-0.013,0.047-0.001,0.067-0.023,0.105
			c-0.015,0.025-0.036,0.023-0.046,0.058c0,0.016,0,0.031,0,0.047c-0.007,0.052-0.035,0.069-0.046,0.116
			c-0.005,0.021,0.007,0.05,0,0.07c-0.016,0.016-0.031,0.031-0.046,0.046c-0.022,0.045-0.016,0.064-0.023,0.116
			c-0.006,0.045-0.04,0.071-0.046,0.116c-0.003,0.021,0.006,0.048,0,0.069c-0.015,0.016-0.031,0.031-0.046,0.047
			c-0.019,0.038-0.023,0.069-0.023,0.116c0,0.018,0.006,0.053,0,0.07c-0.016,0.008-0.031,0.016-0.046,0.023
			c-0.013,0.032,0.005,0.082,0,0.116c-0.006,0.041-0.035,0.075-0.047,0.104c-0.014,0.035-0.023,0.053-0.023,0.104
			c0,0.053-0.009,0.073-0.023,0.116c-0.01,0.032-0.041,0.084-0.046,0.116c-0.003,0.022,0.001,0.047,0,0.07
			c0.031,0.015,0.031,0.031,0,0.046c-0.015,0.045-0.039,0.063-0.046,0.116c-0.005,0.037,0,0.079,0,0.116
			c0,0.05-0.009,0.074-0.023,0.116c-0.011,0.032-0.042,0.084-0.047,0.116c-0.012,0.076,0.011,0.157,0,0.232
			c-0.006,0.045-0.04,0.071-0.046,0.116c-0.005,0.037,0,0.079,0,0.116c0,0.212-0.069,0.369-0.069,0.581c0,0.101,0,0.201,0,0.302
			c0,0.084,0.02,0.198,0,0.279c-0.01,0.038-0.037,0.055-0.047,0.093c-0.005,0.02,0,0.049,0,0.07c0,0.046,0,0.093,0,0.139
			c0,0.093,0,0.186,0,0.279c0,0.193,0,0.387,0,0.581c0,0.774,0,1.548,0,2.322c0,1.548,0,3.096,0,4.645c0,0.387,0,0.774,0,1.161
			c0,0.193,0,0.387,0,0.581c0,0.048-0.013,0.117,0,0.163c0.008,0.027,0.039,0.038,0.047,0.069c0.005,0.02,0,0.049,0,0.07
			c0,0.093,0,0.186,0,0.279c0,0.196-0.002,0.398,0.023,0.581c0.004,0.029-0.007,0.064,0,0.093c0.008,0.031,0.039,0.042,0.046,0.07
			c0.011,0.039,0,0.098,0,0.139c0,0.093,0,0.186,0,0.279c0,0.112,0.046,0.189,0.046,0.302c0,0.046,0,0.093,0,0.139
			c0,0.058,0.016,0.091,0.023,0.14c0.004,0.027-0.01,0.067,0,0.093c0.007,0.02,0.037,0.02,0.046,0.046c0.013,0.036,0,0.101,0,0.139
			c0,0.045-0.006,0.095,0,0.14c0.005,0.039,0.011,0.036,0.023,0.07c0.015,0.015,0.031,0.031,0.046,0.046
			c-0.008,0.008-0.016,0.015-0.023,0.023c0.007,0.111,0.014,0.204,0.046,0.302c0.016,0.048,0.023,0.08,0.023,0.139
			c0,0.044-0.007,0.095,0,0.139c0.009,0.055,0.061,0.106,0.07,0.163c0.006,0.045-0.007,0.094,0,0.139
			c0.008,0.056,0.039,0.088,0.046,0.14c0.006,0.045-0.006,0.094,0,0.139c0.009,0.063,0.06,0.104,0.069,0.163
			c0.007,0.045-0.006,0.094,0,0.139c0.008,0.052,0.039,0.083,0.046,0.14c0.006,0.044-0.011,0.097,0,0.139
			c0.018,0.066,0.07,0.082,0.07,0.163c0,0.058,0.007,0.09,0.023,0.139c0.016,0.048,0.015,0.083,0.023,0.14
			c0.006,0.042,0.006,0.032,0.023,0.069c0.008,0.018,0.042,0.053,0.046,0.07c0.008,0.028-0.004,0.064,0,0.093
			c0.005,0.038,0.012,0.037,0.023,0.07c0.017,0.049,0.016,0.084,0.023,0.139c0.007,0.053,0.03,0.09,0.046,0.14
			c0.011,0.033,0.018,0.032,0.023,0.069c0.003,0.022-0.005,0.048,0,0.07c0.009,0.038,0.037,0.055,0.046,0.093
			c0.005,0.022-0.005,0.048,0,0.07c0.013,0.053,0.062,0.083,0.069,0.139c0.015,0.102,0.035,0.187,0.07,0.279
			c0,0.016,0,0.031,0,0.046c0.016,0.008,0.031,0.016,0.046,0.023c0.006,0.017,0,0.052,0,0.069c0,0.064,0.022,0.088,0.046,0.14
			c0.01,0.021,0.015,0.047,0.023,0.069c0.008,0.022,0.017,0.044,0.023,0.059c0.01,0.024,0.017,0.021,0.023,0.058
			c0.004,0.022-0.005,0.048,0,0.07c0.011,0.043,0.055,0.054,0.07,0.093c0.007,0.02-0.004,0.049,0,0.069
			c0.01,0.059,0.036,0.058,0.046,0.116c0.011,0.063,0.019,0.08,0.046,0.128c0.019,0.033,0.033,0.086,0.046,0.127
			c0.018,0.053,0.018,0.115,0.046,0.163c0.018,0.028,0.034,0.011,0.046,0.046c0.008,0.021-0.005,0.049,0,0.07
			c0.008,0.031,0.039,0.042,0.047,0.069c0.006,0.021-0.008,0.049,0,0.069c0.016,0.046,0.061,0.058,0.069,0.116
			c0.006,0.043,0.011,0.057,0.023,0.093c0.001,0.006,0.02,0.063,0.023,0.07c0.027,0.051,0.06,0.058,0.07,0.116
			c0.011,0.061,0.021,0.086,0.046,0.139c0.021,0.045,0.058,0.093,0.07,0.14c0,0.016,0,0.031,0,0.047
			c-0.007,0.021,0,0.032,0.023,0.034c0.022,0.003,0.03,0.015,0.023,0.035c0,0.008,0,0.016,0,0.023
			c0.028,0.051,0.051,0.084,0.07,0.139c0.015,0.047,0.042,0.1,0.069,0.14c0.004,0.007,0.044,0.062,0.046,0.069
			c0.006,0.021-0.007,0.05,0,0.07c0.011,0.03,0.056,0.064,0.07,0.093c0.005,0.011,0.02,0.061,0.023,0.069
			c0,0.001,0.022,0.067,0.023,0.07c0.011,0.018,0.036,0.028,0.046,0.046c0.02,0.032,0.009,0.041,0.023,0.069
			c0.013,0.027,0.027,0.042,0.046,0.07c0.031,0.046,0.046,0.091,0.07,0.14c0.011,0.023,0.03,0.073,0.046,0.093
			s0.061,0.046,0.069,0.069c0.008,0.021-0.006,0.049,0,0.069c0.002,0.009,0.042,0.063,0.047,0.07
			c0.008,0.013,0.038,0.052,0.046,0.069c0.006,0.014,0.016,0.059,0.023,0.069c0.034,0.055,0.074,0.081,0.093,0.14
			c0.009,0.027,0.039,0.061,0.047,0.081c0.022,0.003,0.03,0.015,0.023,0.035c0,0.008,0,0.016,0,0.023
			c0.029,0.049,0.066,0.065,0.093,0.116c0.023,0.041,0.048,0.09,0.07,0.127c0.021,0.037,0.042,0.082,0.07,0.116
			c0.067,0.085,0.12,0.199,0.186,0.29c0.032,0.045,0.067,0.068,0.093,0.116c0.029,0.055,0.042,0.091,0.093,0.14
			c0.064,0.063,0.124,0.184,0.186,0.256c0.042,0.049,0.054,0.087,0.093,0.139c0.023,0.031,0.077,0.064,0.07,0.104h0.023
			c0.047,0.019,0.049,0.068,0.069,0.104c0.021,0.038,0.051,0.034,0.046,0.082h0.047c0,0.015,0,0.03,0,0.046h0.023
			c0.016,0.023,0.031,0.047,0.046,0.069h0.023c0.008,0.016,0.015,0.031,0.023,0.047c0.016,0.023,0.031,0.047,0.046,0.069
			c0.008,0.016,0.016,0.031,0.023,0.047h0.023c0.015,0.023,0.031,0.046,0.046,0.069h0.023c0.008,0.016,0.016,0.031,0.023,0.047
			c0,0.008,0,0.016,0,0.023h0.046c0.046,0.083,0.109,0.118,0.163,0.186c0.056,0.069,0.138,0.149,0.209,0.221
			c0.077,0.076,0.131,0.134,0.209,0.209c0.022,0.021,0.063,0.062,0.093,0.093c0.021,0.01,0.029,0.025,0.023,0.046
			c0.015,0.008,0.031,0.016,0.046,0.023c0.056,0.063,0.129,0.112,0.186,0.175c0.047,0.052,0.123,0.116,0.186,0.174
			c0.068,0.063,0.149,0.12,0.209,0.174c0.032,0.029,0.08,0.058,0.116,0.081c0.021,0.015,0.061,0.065,0.069,0.07
			c0.021,0.012,0.05,0.01,0.07,0.023c0.021,0.01,0.029,0.025,0.023,0.046c0.033,0.028,0.081,0.044,0.116,0.069
			c0.071,0.054,0.138,0.109,0.209,0.163c0.074,0.056,0.151,0.104,0.232,0.151c0.073,0.042,0.136,0.111,0.209,0.15
			c0.152,0.083,0.282,0.15,0.418,0.24c0.073,0.048,0.158,0.067,0.232,0.116c0.064,0.042,0.145,0.046,0.186,0.12h0.116
			c-0.01,0.061,0.225,0.138,0.279,0.162c0.053,0.023,0.103,0.048,0.139,0.063c0.053,0.024,0.11,0.016,0.139,0.076h0.116
			c0.008,0.016,0.016,0.03,0.023,0.046h0.116c0.015,0.023,0.031,0.047,0.046,0.07h0.116c0.008,0.015,0.016,0.03,0.023,0.046h0.139
			c0.028,0.017,0.055,0.04,0.07,0.07h0.139c0,0.015,0,0.03,0,0.046h0.163c0.028,0.017,0.055,0.04,0.07,0.069h0.163
			c0.008,0.016,0.016,0.031,0.023,0.047h0.163c0.031,0.023,0.062,0.047,0.093,0.069h0.209c0.007,0.016,0.015,0.031,0.023,0.047
			h0.255c0.016,0.023,0.031,0.046,0.046,0.069h0.325c0.008,0.016,0.016,0.031,0.023,0.047h0.186c0,0.008,0,0.016,0,0.023h0.256
			c0.015,0.015,0.031,0.03,0.046,0.046h0.65c0.016,0.016,0.031,0.031,0.046,0.047h0.558c0,0.008,0,0.016,0,0.022h0.093
			c0-0.007,0-0.015,0-0.022h0.557c0.016-0.016,0.031-0.031,0.047-0.047h0.65c0.023-0.016,0.046-0.031,0.07-0.046h0.279
			c0-0.008,0-0.016,0-0.023h0.186c0.008-0.016,0.016-0.031,0.023-0.047h0.302c0.014-0.029,0.042-0.054,0.07-0.069h0.232
			c0.008-0.016,0.016-0.031,0.023-0.047h0.209c0.02-0.04,0.055-0.051,0.093-0.069h0.163c0.008-0.016,0.016-0.031,0.023-0.047h0.162
			c0.028-0.017,0.055-0.039,0.07-0.069h0.163c0-0.016,0-0.031,0-0.046h0.163c0.016-0.023,0.031-0.047,0.046-0.07h0.116
			c0.008-0.016,0.016-0.031,0.023-0.046h0.116c0.014-0.03,0.042-0.055,0.07-0.07h0.093c0.008-0.016,0.016-0.03,0.023-0.046h0.116
			c0.047-0.085,0.197-0.11,0.278-0.151c0.071-0.035,0.217-0.071,0.255-0.15h0.094c0.041-0.075,0.121-0.094,0.186-0.122
			c0.037-0.017,0.081-0.045,0.116-0.068c0.025-0.017,0.042-0.021,0.069-0.042c0.051-0.039,0.123-0.069,0.186-0.116
			c0.066-0.049,0.134-0.077,0.187-0.12c0.124-0.102,0.279-0.204,0.395-0.298c0.131-0.107,0.255-0.196,0.371-0.302
			c0.132-0.12,0.291-0.233,0.418-0.36c0.126-0.124,0.242-0.293,0.372-0.418c0.023-0.022,0.045-0.062,0.069-0.093
			c0.026-0.033,0.044-0.04,0.07-0.069c0.05-0.058,0.089-0.126,0.139-0.187c0.023-0.027,0.042-0.061,0.07-0.093
			c0.016-0.008,0.03-0.016,0.046-0.022c0-0.016,0-0.031,0-0.047c0.041-0.048,0.123-0.097,0.116-0.174h0.047c0-0.008,0-0.016,0-0.023
			h0.022c0-0.016,0-0.031,0-0.047h0.023c0.02-0.02,0.027-0.042,0.023-0.069c0.008-0.016,0.016-0.031,0.023-0.047h0.046
			c0-0.022,0-0.046,0-0.069h0.023c0.008-0.016,0.016-0.031,0.023-0.047c-0.004-0.033,0.013-0.057,0.046-0.069h0.023
			c0-0.016,0-0.031,0-0.046c0.016-0.023,0.031-0.047,0.047-0.07c0.015-0.029,0.06-0.037,0.069-0.058c0.009-0.02-0.007-0.05,0-0.07
			c0.01-0.026,0.055-0.045,0.07-0.069c0-0.001,0.022-0.069,0.022-0.069c0.021-0.061,0.063-0.087,0.093-0.14c0-0.016,0-0.031,0-0.046
			c0.008-0.004,0.016-0.008,0.023-0.012c0.022-0.003,0.03-0.015,0.023-0.035c0-0.008,0-0.016,0-0.023
			c0.014-0.023,0.06-0.05,0.069-0.069c0.009-0.019-0.005-0.051,0-0.07c0.005-0.016,0.039-0.053,0.047-0.069
			c0.014-0.028,0.004-0.038,0.023-0.069c0.011-0.019,0.035-0.028,0.046-0.047c0.002-0.002,0.023-0.069,0.023-0.069
			c0.011-0.032,0.02-0.099,0.047-0.128h0.348c0.008-0.016,0.016-0.031,0.023-0.046h0.58c0-0.008,0-0.016,0-0.023h0.116
			c0.016-0.016,0.031-0.031,0.047-0.047h0.465c0.007-0.016,0.015-0.03,0.022-0.046h0.302c0.045-0.017,0.096-0.023,0.116-0.07h0.303
			c0.007-0.016,0.015-0.03,0.022-0.046h0.14c0-0.008,0-0.016,0-0.023h0.162c0.008-0.016,0.016-0.031,0.023-0.047h0.256
			c0.014-0.029,0.041-0.054,0.069-0.069h0.186c0.008-0.016,0.016-0.031,0.023-0.046h0.232c-0.004-0.034,0.013-0.058,0.046-0.07
			h0.187c0-0.016,0-0.03,0-0.046h0.186c0.014-0.03,0.041-0.055,0.069-0.07h0.14c0.008-0.016,0.016-0.03,0.023-0.046h0.162
			c0.016-0.023,0.031-0.047,0.047-0.07h0.139c0.008-0.015,0.016-0.03,0.023-0.046h0.14c0.016-0.023,0.031-0.047,0.046-0.07h0.14
			c0.008-0.015,0.016-0.03,0.023-0.046h0.116c0.016-0.023,0.031-0.047,0.046-0.069h0.14c0-0.016,0-0.031,0-0.047h0.116
			c0.016-0.023,0.031-0.047,0.047-0.069h0.115c0.031-0.063,0.175-0.056,0.163-0.116h0.116c-0.004-0.027,0.003-0.05,0.023-0.07h0.115
			c0-0.015,0-0.03,0-0.046h0.116c0.044-0.079,0.135-0.089,0.209-0.122c0.078-0.034,0.152-0.08,0.232-0.116
			c0.158-0.069,0.313-0.177,0.465-0.261c0.038-0.021,0.077-0.05,0.116-0.07c0.022-0.012,0.048-0.021,0.069-0.034
			c0.022-0.003,0.03-0.015,0.023-0.035c0.021-0.011,0.049-0.007,0.069-0.018c0.023,0.002,0.031-0.007,0.023-0.029
			c0.036-0.021,0.08-0.052,0.116-0.069c0.072-0.035,0.126-0.084,0.186-0.124c0.072-0.048,0.161-0.083,0.232-0.132
			c0.021-0.015,0.054-0.073,0.093-0.093c0.049-0.023,0.074-0.031,0.116-0.069c0.059-0.054,0.138-0.082,0.209-0.14
			c0.013-0.01,0.057-0.084,0.069-0.093c0.02-0.013,0.05-0.011,0.07-0.023c-0.008-0.021,0-0.032,0.022-0.034
			c0.078-0.053,0.13-0.109,0.209-0.175c0.15-0.123,0.29-0.223,0.418-0.348c0.04-0.039,0.054-0.06,0.093-0.093
			c0.044-0.037,0.06-0.055,0.094-0.093c0.027-0.032,0.066-0.038,0.093-0.07c0.021-0.026,0.031-0.056,0.069-0.081
			c0.008-0.016,0.016-0.031,0.023-0.047h0.023c0.014-0.029,0.041-0.054,0.069-0.069C53.244,40.291,53.252,40.275,53.26,40.26z
			 M40,43.743h-0.023c-0.008,0.016-0.016,0.031-0.023,0.047H39.93c0,0.008,0,0.016,0,0.023c-0.007,0.016-0.015,0.03-0.023,0.046
			h-0.023c0.004,0.034-0.013,0.057-0.046,0.07h-0.023c0,0.016,0,0.03,0,0.046h-0.023c-0.008,0.016-0.016,0.031-0.023,0.047h-0.047
			c0,0.008,0,0.016,0,0.023c-0.008,0.015-0.015,0.03-0.023,0.046h-0.023c-0.013,0.026-0.056,0.068-0.069,0.081
			c-0.029,0.028-0.066,0.055-0.093,0.082c-0.053,0.054-0.099,0.099-0.163,0.15c-0.006,0.005-0.031,0.034-0.046,0.047
			c-0.012,0.017-0.027,0.028-0.046,0.034c-0.031,0.023-0.062,0.047-0.093,0.07c-0.06,0.044-0.126,0.082-0.186,0.128
			c-0.038,0.028-0.073,0.071-0.116,0.093c-0.016,0.005-0.031,0.01-0.046,0.016c-0.023-0.001-0.031,0.01-0.023,0.03
			c-0.059,0.04-0.123,0.06-0.186,0.093c-0.042,0.022-0.069,0.05-0.116,0.07c-0.027,0.011-0.063,0.027-0.093,0.04
			c-0.041,0.019-0.144,0.067-0.163,0.11h-0.116c-0.016,0.023-0.031,0.047-0.046,0.07h-0.116c-0.008,0.015-0.016,0.03-0.023,0.046
			h-0.116c-0.014,0.029-0.041,0.054-0.069,0.069h-0.116c-0.008,0.016-0.016,0.031-0.023,0.047h-0.162
			c-0.028,0.017-0.055,0.04-0.07,0.069h-0.209c-0.008,0.016-0.016,0.031-0.023,0.047h-0.209c-0.041,0.021-0.081,0.039-0.116,0.069
			H36.47c-0.008,0.016-0.016,0.031-0.023,0.047h-0.348c0,0.008,0,0.016,0,0.023h-1.3c0-0.008,0-0.016,0-0.023h-0.325
			c-0.023-0.016-0.046-0.031-0.07-0.047h-0.302c-0.04-0.037-0.09-0.051-0.139-0.069h-0.209c-0.008-0.016-0.016-0.031-0.023-0.047
			h-0.186c-0.031-0.022-0.062-0.046-0.093-0.069h-0.163c-0.007-0.016-0.015-0.031-0.023-0.047h-0.139
			c-0.014-0.029-0.042-0.054-0.07-0.069H32.94c-0.008-0.016-0.016-0.031-0.023-0.046h-0.116c-0.062-0.041-0.119-0.08-0.186-0.104
			c-0.062-0.023-0.104-0.018-0.139-0.082h-0.116c-0.02-0.045-0.054-0.039-0.093-0.058c-0.2-0.096-0.387-0.218-0.581-0.325
			c-0.1-0.056-0.175-0.117-0.279-0.186c-0.045-0.03-0.097-0.055-0.139-0.085c-0.035-0.025-0.071-0.067-0.116-0.102
			c-0.055-0.041-0.111-0.067-0.163-0.115c-0.037-0.035-0.069-0.063-0.116-0.094c-0.044-0.028-0.084-0.058-0.116-0.093
			c-0.025-0.027-0.024-0.032-0.046-0.054c-0.015-0.005-0.031-0.011-0.046-0.016c0-0.008,0-0.016,0-0.023
			c-0.095-0.069-0.163-0.14-0.255-0.232c-0.086-0.086-0.187-0.181-0.255-0.267c-0.074-0.093-0.166-0.2-0.255-0.29
			c-0.086-0.086-0.139-0.189-0.209-0.279c-0.023-0.029-0.045-0.036-0.07-0.069c-0.018-0.023-0.033-0.05-0.046-0.069
			c-0.034-0.052-0.07-0.095-0.116-0.14c-0.029-0.028-0.049-0.073-0.07-0.116c-0.021-0.046-0.065-0.099-0.093-0.14
			c-0.022-0.033-0.045-0.063-0.069-0.093c-0.004-0.004-0.042-0.039-0.047-0.046c-0.007-0.013-0.016-0.056-0.023-0.07
			c-0.013-0.026-0.03-0.044-0.046-0.069c-0.035-0.053-0.058-0.087-0.093-0.14c-0.03-0.045-0.043-0.096-0.07-0.139
			c-0.038-0.062-0.085-0.101-0.116-0.163c-0.021-0.044-0.042-0.098-0.07-0.139c-0.027-0.042-0.048-0.095-0.069-0.14
			c-0.022-0.047-0.053-0.09-0.07-0.14c-0.02-0.058-0.064-0.108-0.093-0.162c0-0.016,0-0.031,0-0.047
			c-0.008-0.004-0.016-0.008-0.023-0.012c-0.022-0.002-0.03-0.014-0.023-0.034c0-0.008,0-0.016,0-0.023
			c-0.012-0.03-0.009-0.033-0.023-0.059c-0.011-0.02-0.033-0.032-0.046-0.058c-0.003-0.007-0.021-0.064-0.023-0.069
			c-0.002-0.009-0.018-0.06-0.023-0.07c-0.017-0.034-0.034-0.056-0.046-0.093c-0.003-0.009-0.018-0.059-0.023-0.069
			c-0.009-0.019-0.04-0.052-0.046-0.069c-0.031-0.016-0.031-0.031,0-0.047c0-0.008,0-0.016,0-0.023
			c-0.014-0.022-0.061-0.028-0.07-0.046c-0.009-0.018,0.005-0.051,0-0.07c-0.012-0.049-0.053-0.091-0.069-0.139
			c0-0.016,0-0.031,0-0.047c-0.016-0.016-0.031-0.031-0.046-0.046c-0.006-0.021,0.005-0.048,0-0.07
			c-0.013-0.049-0.052-0.091-0.07-0.139c-0.008-0.022-0.017-0.043-0.023-0.058c-0.01-0.025-0.017-0.022-0.023-0.058
			c-0.004-0.021,0.006-0.048,0-0.07c-0.01-0.034-0.032-0.032-0.046-0.058c-0.046-0.081-0.05-0.201-0.093-0.291
			c-0.01-0.021-0.04-0.047-0.046-0.07c-0.006-0.021,0.005-0.048,0-0.069c-0.008-0.031-0.039-0.042-0.046-0.07
			c-0.006-0.021,0.003-0.048,0-0.07c-0.009-0.066-0.06-0.099-0.069-0.163c-0.003-0.021,0.005-0.048,0-0.069
			c-0.006-0.021-0.041-0.049-0.047-0.07c-0.015-0.054,0-0.09-0.023-0.139c-0.024-0.052-0.046-0.075-0.046-0.14
			c0-0.072-0.037-0.096-0.046-0.163c-0.008-0.055,0-0.092-0.023-0.139c-0.016-0.032-0.038-0.034-0.046-0.07
			c-0.005-0.021,0.003-0.047,0-0.069c-0.008-0.056-0.039-0.087-0.046-0.14c-0.009-0.063,0.003-0.108-0.023-0.163
			c-0.024-0.052-0.046-0.075-0.046-0.139c0-0.021,0.005-0.05,0-0.07c-0.008-0.031-0.039-0.042-0.046-0.069
			c-0.012-0.042,0.006-0.096,0-0.14c-0.01-0.069-0.054-0.1-0.07-0.163c-0.011-0.043,0.007-0.095,0-0.139
			c-0.007-0.052-0.039-0.083-0.046-0.139c-0.006-0.045,0.007-0.094,0-0.14c-0.009-0.058-0.061-0.099-0.069-0.162
			c-0.006-0.045,0-0.095,0-0.14c0-0.046-0.004-0.102-0.023-0.139c-0.017-0.034-0.042-0.03-0.046-0.07
			c0,0.003,0.023-0.055,0.023-0.07c0-0.045-0.032-0.119-0.046-0.163c-0.015-0.045-0.023-0.087-0.023-0.139
			c0-0.045,0.006-0.095,0-0.139c-0.006-0.043-0.008-0.099-0.023-0.14c-0.015-0.007-0.031-0.015-0.046-0.023c0-0.016,0-0.031,0-0.046
			c-0.004-0.021,0-0.048,0-0.07c0-0.046,0-0.093,0-0.139c0-0.111-0.046-0.167-0.046-0.279c0-0.054,0-0.108,0-0.163
			c0-0.058-0.016-0.091-0.023-0.139c-0.003-0.021,0.007-0.051,0-0.07c-0.007-0.02-0.037-0.02-0.046-0.046
			c-0.013-0.036,0-0.101,0-0.139c0-0.101,0-0.202,0-0.302c0-0.107-0.046-0.171-0.046-0.278c0-0.194,0-0.387,0-0.581
			c0-0.387,0-0.774,0-1.161c0-1.548,0-3.097,0-4.645c0-0.774,0-1.548,0-2.322c0-0.387,0-0.774,0-1.161c0-0.193,0-0.387,0-0.581
			c0-0.101,0-0.201,0-0.302c0-0.068,0.032-0.083,0.046-0.14c0.01-0.041,0-0.097,0-0.139c0-0.054,0-0.108,0-0.163
			c0-0.067,0.021-0.085,0.046-0.139c0.022-0.045,0.023-0.084,0.023-0.14c0-0.059,0.007-0.091,0.023-0.139
			c0.018-0.053,0.023-0.102,0.023-0.163c0-0.067,0.021-0.085,0.046-0.139c0.024-0.051,0.015-0.081,0.023-0.14
			c0.008-0.057,0.035-0.083,0.046-0.139c-0.005-0.021,0.002-0.037,0.023-0.046c-0.021-0.01-0.028-0.025-0.023-0.046
			c0.013-0.027,0.059-0.042,0.07-0.07c0.007-0.02-0.004-0.049,0-0.07c0.006-0.036,0.013-0.033,0.023-0.058
			c0.006-0.015,0.015-0.036,0.023-0.058c0.009-0.024,0.014-0.046,0.023-0.07c0.008-0.021,0.018-0.044,0.023-0.058
			c0.022-0.002,0.03-0.014,0.023-0.035c0-0.008,0-0.016,0-0.023c0-0.016,0-0.031,0-0.046c0.016-0.008,0.031-0.016,0.046-0.023
			c0.007-0.019-0.003-0.049,0-0.069c0.006-0.039,0.049-0.108,0.07-0.14c0.057-0.085,0.096-0.187,0.14-0.278
			c0.05-0.106,0.135-0.196,0.186-0.302c0.041-0.085,0.116-0.163,0.163-0.244c0.026-0.046,0.083-0.082,0.116-0.128
			c0.038-0.051,0.074-0.088,0.116-0.139c0.076-0.092,0.158-0.176,0.256-0.255c0.095-0.077,0.199-0.172,0.278-0.244
			c0.084-0.077,0.188-0.121,0.279-0.186c0.03-0.021,0.063-0.031,0.093-0.05c0.021-0.013,0.049-0.044,0.07-0.054
			s0.048-0.008,0.07-0.018c0.036-0.016,0.01-0.019,0.046-0.035c0.045-0.021,0.096-0.045,0.139-0.064
			c0.045-0.02,0.094-0.005,0.116-0.058h0.116c0.028-0.017,0.055-0.04,0.069-0.069h0.186c0.021-0.046,0.072-0.053,0.116-0.07h0.209
			c0.015-0.016,0.031-0.031,0.046-0.046h0.743c0.015,0.016,0.031,0.031,0.046,0.046h0.232c0,0.008,0,0.016,0,0.023h0.116
			c0.008,0.015,0.016,0.031,0.023,0.046h0.186c0.039,0.085,0.174,0.033,0.209,0.116h0.116c0.047,0.086,0.155,0.079,0.232,0.122
			c0.02,0.011,0.042,0.05,0.046,0.052c0.016,0.004,0.031,0.008,0.046,0.012c0.034,0.025,0.059,0.022,0.093,0.05
			c0.074,0.06,0.162,0.104,0.232,0.17c0.033,0.031,0.06,0.038,0.093,0.069c0.032,0.031,0.071,0.072,0.093,0.093
			c0.144,0.138,0.287,0.292,0.395,0.418c0.038,0.044,0.042,0.071,0.069,0.116c0.021,0.033,0.071,0.049,0.093,0.093
			c0.01,0.02,0.012,0.047,0.023,0.07c0.016,0.015,0.031,0.031,0.046,0.046c0.006,0.006,0.041,0.058,0.046,0.069
			c0,0.016,0,0.031,0,0.046c0.013,0.017,0.063,0.032,0.07,0.047c0.009,0.018-0.007,0.05,0,0.069c0.013,0.035,0.044,0.058,0.07,0.093
			c0.024,0.034,0.029,0.081,0.046,0.116c0.008,0.016,0.042,0.054,0.046,0.07c0,0.016,0,0.031,0,0.046
			c0.019,0.039,0.059,0.074,0.07,0.116c0.005,0.021-0.008,0.049,0,0.069c0.015,0.008,0.031,0.016,0.046,0.023
			c0.018,0.046-0.005,0.072,0.023,0.116c0.004,0.007,0.045,0.042,0.046,0.046c0,0.016,0,0.031,0,0.046
			c0.008,0.021,0.017,0.051,0.023,0.07c0.021,0.01,0.029,0.025,0.023,0.046c0.011,0.044,0.003,0.076,0.023,0.116
			c0.027,0.055,0.046,0.048,0.046,0.116c0,0.049,0.009,0.074,0.023,0.116c0.014,0.042,0.016,0.068,0.023,0.116
			c0.007,0.042,0.059,0.078,0.07,0.116c0.009,0.033,0,0.082,0,0.116c0,0.02-0.005,0.05,0,0.069c0.016,0.016,0.031,0.031,0.046,0.046
			c0.008,0.028-0.004,0.064,0,0.093c0.004,0.026,0.021,0.051,0.023,0.069c0.008,0.052,0.007,0.092,0.023,0.14
			c0.017,0.048,0.023,0.08,0.023,0.139c0,0.058,0.016,0.091,0.023,0.139c0.005,0.035,0.018,0.067,0.023,0.093
			c0.031,0.015,0.031,0.031,0,0.046c0,0.008,0,0.015,0,0.023c0.009,0.052,0.023,0.083,0.023,0.14c0,0.046,0,0.093,0,0.139
			c0,0.021-0.005,0.05,0,0.07c0.008,0.031,0.039,0.042,0.046,0.069c0.024,0.085,0,0.213,0,0.302c0,0.093,0,0.186,0,0.278
			c0,0.194,0,0.387,0,0.581c0,0.774,0,1.548,0,2.322c0,1.548,0,3.097,0,4.645c0,0.774,0,1.548,0,2.322
			c0,0.104,0.023,0.191,0.023,0.302c0,0.047,0,0.093,0,0.14c0,0.07,0.028,0.064,0.046,0.116c0.028,0.077,0,0.219,0,0.302
			c0,0.093,0,0.186,0,0.279c0,0.052-0.007,0.111,0,0.162c0.007,0.049,0.04,0.091,0.047,0.14c0.013,0.088,0,0.189,0,0.279
			c0,0.06,0.004,0.11,0.023,0.162c0.008,0.022,0.017,0.043,0.023,0.058c0.01,0.025,0.017,0.022,0.023,0.058
			c0.016,0.09-0.013,0.188,0,0.279c0.009,0.066,0.046,0.09,0.046,0.163c0,0.045-0.006,0.095,0,0.139
			c0.008,0.056,0.03,0.09,0.046,0.14c0.017,0.048,0.023,0.08,0.023,0.139c0,0.065,0.005,0.108,0.023,0.163
			c0.016,0.049,0.023,0.082,0.023,0.139c0,0.107,0.07,0.17,0.07,0.279c0,0.071,0.037,0.101,0.046,0.163
			c0.006,0.044-0.012,0.097,0,0.139c0.015,0.054,0.061,0.078,0.07,0.14c0.008,0.056,0.007,0.091,0.023,0.139
			c0.017,0.051,0.023,0.113,0.046,0.163c0.024,0.052,0.046,0.075,0.046,0.139c0,0.064,0.022,0.087,0.046,0.14
			c0.02,0.04,0.033,0.097,0.047,0.139c0.017,0.051,0.023,0.113,0.046,0.163c0.01,0.021,0.041,0.047,0.046,0.069
			c0.006,0.021-0.007,0.049,0,0.07c0.01,0.027,0.039,0.027,0.046,0.046c0.007,0.019-0.003,0.05,0,0.07
			c0.006,0.043,0,0.032,0.023,0.07c0.005,0.007,0.045,0.042,0.047,0.046c0.01,0.027-0.008,0.065,0,0.093
			c0.008,0.027,0.039,0.039,0.046,0.07c0.005,0.021-0.007,0.049,0,0.069c0.013,0.036,0.029,0.018,0.046,0.046
			c0.022,0.037,0.01,0.034,0.023,0.07c0.008,0.022,0.017,0.043,0.023,0.058c0.022,0.002,0.03,0.014,0.023,0.035
			c0,0.008,0,0.016,0,0.023c0.011,0.021,0.035,0.046,0.046,0.07c0.013,0.027,0.01,0.066,0.023,0.093
			c0.01,0.021,0.041,0.047,0.046,0.07c0.005,0.02-0.009,0.051,0,0.069c0.014,0.028,0.059,0.025,0.07,0.046
			c0.009,0.019-0.007,0.05,0,0.07c0.013,0.036,0.029,0.018,0.046,0.046c0.02,0.032,0.009,0.041,0.023,0.07
			c0.008,0.016,0.042,0.054,0.046,0.069c0.012,0.042,0.004,0.049,0.023,0.082c0.007,0.011,0.04,0.048,0.047,0.058
			c0.026,0.036,0.05,0.094,0.069,0.128c0.02,0.034,0.056,0.08,0.07,0.116c0.005,0.013,0.015,0.038,0.023,0.058
			c0.011,0.028-0.001,0.031,0.023,0.058h0.046c0,0.016,0,0.031,0,0.047c0.016,0.023,0.031,0.047,0.046,0.069
			c0,0.016,0,0.031,0,0.047h0.023c0.066,0.12,0.138,0.206,0.209,0.313c0.023,0.035,0.04,0.059,0.069,0.093
			c0.003,0.004,0.042,0.04,0.047,0.047c0,0.015,0,0.03,0,0.046c0.015,0.016,0.031,0.031,0.046,0.047
			c0.021,0.025,0.049,0.044,0.069,0.069c0.05,0.062,0.078,0.126,0.14,0.186c0.034,0.033,0.076,0.091,0.116,0.14
			c0.037,0.045,0.077,0.124,0.116,0.162c0.027,0.027,0.052,0.049,0.07,0.07c0.014,0.017,0.038,0.061,0.046,0.069
			c0.109,0.108,0.236,0.214,0.349,0.325c0.052,0.052,0.112,0.09,0.162,0.14c0.03,0.029,0.048,0.055,0.07,0.077
			c0.016,0.005,0.031,0.011,0.046,0.016c0,0.008,0,0.016,0,0.023c0.119,0.086,0.231,0.187,0.349,0.271
			c0.039,0.028,0.089,0.075,0.139,0.112c0.05,0.037,0.107,0.059,0.139,0.116h0.07c0,0.016,0,0.031,0,0.046h0.07
			c0.015,0.023,0.031,0.047,0.046,0.07h0.046c0.026,0.054,0.127,0.054,0.116,0.116h0.093c0.016,0.022,0.031,0.046,0.046,0.069h0.07
			c0,0.016,0,0.031,0,0.047h0.093c-0.004,0.034,0.013,0.057,0.046,0.069h0.046c0.008,0.016,0.016,0.031,0.023,0.046h0.093
			c0.016,0.023,0.031,0.047,0.046,0.07h0.07c0.008,0.016,0.016,0.031,0.023,0.046h0.116c0.02,0.02,0.028,0.043,0.023,0.07h0.116
			c0,0.016,0,0.03,0,0.046h0.116c0.016,0.023,0.031,0.047,0.047,0.07h0.116c0.008,0.016,0.016,0.03,0.023,0.046h0.116
			c0.015,0.023,0.031,0.047,0.046,0.07H40c0.008,0.015,0.016,0.03,0.024,0.046C40.027,43.701,40.02,43.724,40,43.743z M53.189,32.98
			c-0.027,0.046-0.022,0.083-0.022,0.139c0,0.075-0.035,0.075-0.047,0.14c-0.007,0.042,0.015,0.1,0,0.139
			c-0.024,0.066-0.069,0.058-0.069,0.14c0,0.02,0.005,0.05,0,0.069c-0.008,0.031-0.039,0.042-0.047,0.07
			c-0.017,0.059,0.009,0.11-0.023,0.163c-0.018,0.029-0.033,0.011-0.046,0.046c-0.007,0.02,0.003,0.049,0,0.07
			c-0.009,0.058-0.038,0.081-0.047,0.139c-0.003,0.02,0.008,0.051,0,0.07c-0.016,0.038-0.024,0.009-0.046,0.039
			c-0.034,0.045-0.003,0.089-0.023,0.147c-0.01,0.027-0.039,0.027-0.047,0.046c-0.007,0.019,0.003,0.05,0,0.07
			c-0.009,0.066-0.051,0.066-0.069,0.116c-0.008,0.021,0.006,0.048,0,0.069c-0.005,0.016-0.039,0.054-0.047,0.07
			c-0.013,0.027-0.006,0.066-0.022,0.093c-0.005,0.008-0.045,0.042-0.047,0.046c-0.008,0.021,0.008,0.049,0,0.07
			c-0.01,0.027-0.039,0.027-0.046,0.046c-0.008,0.021,0.005,0.049,0,0.07c-0.007,0.022-0.037,0.049-0.047,0.07
			c-0.022,0.045-0.02,0.095-0.047,0.139c-0.015,0.008-0.03,0.016-0.046,0.023c-0.006,0.021,0.002,0.036,0.023,0.046
			c-0.012,0.028-0.033,0.035-0.047,0.058c-0.021,0.035-0.023,0.082-0.046,0.112c-0.02,0.025-0.031,0.009-0.047,0.039
			c-0.019,0.034,0.021,0.026,0,0.069c-0.012,0.025-0.035,0.016-0.047,0.046c-0.006,0.017,0.011,0.055,0,0.07
			c-0.02,0.028-0.052,0.013-0.069,0.046c-0.018,0.034,0.021,0.026,0,0.07c-0.005,0.011-0.039,0.034-0.046,0.046
			c-0.008,0.012-0.017,0.055-0.023,0.07c-0.025,0.052-0.064,0.088-0.093,0.139c-0.011,0.02-0.013,0.04-0.023,0.058
			c-0.01,0.017-0.036,0.04-0.047,0.058c0,0.016,0,0.031,0,0.046c-0.016,0.008-0.03,0.016-0.046,0.023
			c-0.008,0.012-0.017,0.055-0.023,0.069c-0.021,0.046-0.065,0.099-0.093,0.14c-0.025,0.037-0.072,0.092-0.093,0.127
			c-0.024,0.042-0.031,0.081-0.07,0.128c-0.083,0.103-0.15,0.202-0.231,0.302c-0.044,0.053-0.066,0.083-0.094,0.139
			c-0.016,0.033-0.072,0.101-0.093,0.116c-0.056,0.045-0.091,0.081-0.139,0.14c-0.017,0.02-0.035,0.056-0.047,0.069
			c-0.012,0.014-0.03,0.028-0.046,0.046c-0.067,0.076-0.138,0.16-0.209,0.232c-0.085,0.087-0.179,0.159-0.256,0.244
			c-0.065,0.072-0.146,0.127-0.232,0.198c-0.101,0.081-0.155,0.165-0.255,0.232c-0.09,0.06-0.181,0.144-0.256,0.197
			c-0.031,0.022-0.063,0.033-0.093,0.058c-0.013,0.011-0.043,0.044-0.047,0.046c-0.044,0.033-0.094,0.049-0.139,0.082
			c-0.049,0.034-0.089,0.054-0.14,0.081c0.01-0.005-0.043,0.036-0.047,0.039c-0.016,0.013-0.051,0.044-0.069,0.054
			c-0.174,0.092-0.363,0.209-0.558,0.296c-0.101,0.045-0.197,0.123-0.302,0.168c-0.067,0.03-0.193,0.048-0.232,0.127h-0.115
			c-0.016,0.023-0.031,0.046-0.047,0.07h-0.116c0,0.016,0,0.031,0,0.046h-0.116c-0.014,0.03-0.041,0.054-0.069,0.07h-0.116
			c0,0.016,0,0.031,0,0.046h-0.14c-0.016,0.023-0.03,0.046-0.046,0.07h-0.14c-0.008,0.015-0.016,0.031-0.023,0.046h-0.162
			c0.004,0.027-0.004,0.05-0.023,0.07h-0.186c-0.008,0.016-0.016,0.03-0.023,0.046h-0.162c-0.016,0.023-0.031,0.047-0.047,0.07
			h-0.209c-0.008,0.015-0.016,0.03-0.023,0.046h-0.209c-0.028,0.017-0.055,0.04-0.069,0.069h-0.232
			c-0.008,0.016-0.016,0.031-0.023,0.047h-0.255c-0.038,0.02-0.073,0.029-0.093,0.069h-0.349c-0.008,0.016-0.016,0.031-0.023,0.047
			h-0.047c0-0.016,0-0.031,0-0.047c0.009-0.066,0.061-0.109,0.07-0.174c0.008-0.052,0-0.11,0-0.162c0-0.077,0.036-0.115,0.046-0.186
			c0.008-0.052,0-0.11,0-0.163c0-0.025-0.008-0.069,0-0.093c0.015-0.04,0.051-0.03,0.07-0.07c0.017-0.035,0-0.123,0-0.163
			c0-0.06-0.009-0.127,0-0.186c0.009-0.062,0.046-0.092,0.046-0.163c0-0.101,0-0.202,0-0.302c0-0.114,0.07-0.163,0.07-0.278
			c0-0.101,0-0.202,0-0.302c0-0.046,0-0.093,0-0.139c0-0.071,0.027-0.065,0.046-0.116c0.028-0.077,0-0.219,0-0.302
			c0-0.093,0-0.186,0-0.279c0-0.101,0-0.201,0-0.302c0-0.04-0.012-0.102,0-0.139c0.018-0.057,0.06-0.054,0.07-0.116
			c0.031-0.181,0-0.396,0-0.581c0-0.194,0-0.387,0-0.581c0-0.387,0-0.774,0-1.161c0-1.548,0-3.096,0-4.645s0-3.096,0-4.645
			c0-1.548,0-3.096,0-4.645c0-0.774,0-1.548,0-2.322c0-0.193,0-0.387,0-0.581c0-0.101,0-0.201,0-0.302c0-0.044-0.008-0.096,0-0.139
			c0.01-0.059,0.036-0.058,0.046-0.116c0.009-0.053-0.008-0.11,0-0.163s0.023-0.083,0.023-0.139c0-0.047,0-0.093,0-0.14
			c0-0.048-0.037-0.099-0.023-0.139c0.009-0.025,0.059-0.031,0.069-0.07c0.006-0.019,0-0.05,0-0.069c0-0.047,0-0.093,0-0.14
			c0-0.042-0.01-0.099,0-0.139c0.009-0.031,0.039-0.042,0.047-0.07c0.006-0.021-0.004-0.048,0-0.069
			c0.005-0.031,0.023-0.052,0.023-0.093c0-0.023,0-0.046,0-0.069c0-0.068,0.032-0.083,0.046-0.14c0.012-0.043-0.006-0.095,0-0.139
			c0.008-0.053,0.03-0.089,0.047-0.14c0.013-0.038,0.023-0.046,0.023-0.093c0-0.021-0.005-0.05,0-0.069
			c0.014-0.057,0.046-0.072,0.046-0.14c0-0.018-0.006-0.053,0-0.069c0.013-0.036,0.029-0.018,0.047-0.047
			c0.02-0.033,0.023-0.096,0.023-0.139c0-0.075,0.035-0.074,0.046-0.139c0.004-0.021-0.007-0.05,0-0.07
			c0.011-0.028,0.06-0.042,0.069-0.07c0.016-0.041,0.011-0.1,0.023-0.139c0.014-0.042,0.027-0.095,0.047-0.128
			c0.019-0.006,0.034-0.018,0.046-0.035c0-0.016,0-0.031,0-0.046c0.008-0.023,0.017-0.049,0.023-0.07
			c0.016-0.046,0.021-0.097,0.047-0.139c0.018-0.029,0.033-0.011,0.046-0.046c0.008-0.021-0.008-0.049,0-0.07
			c0.002-0.005,0.042-0.039,0.047-0.046c0.012-0.02,0.008-0.045,0.023-0.07c0.015-0.007,0.03-0.015,0.046-0.023
			c0-0.016,0-0.031,0-0.046c0-0.016,0-0.031,0-0.046c0.008-0.004,0.016-0.008,0.023-0.012c-0.004,0.009,0.028-0.064,0.023-0.058
			c0.019-0.023,0.054-0.015,0.069-0.046c0.009-0.019-0.008-0.05,0-0.07c0.002-0.005,0.042-0.039,0.047-0.046
			c0.01-0.016,0.013-0.055,0.022-0.07c0.019-0.026,0.05-0.037,0.07-0.058c0.072-0.074,0.115-0.199,0.186-0.267
			c0.046-0.044,0.099-0.089,0.14-0.139c0.037-0.046,0.059-0.09,0.093-0.128c0.036-0.04,0.092-0.061,0.139-0.104
			c0.039-0.035,0.072-0.074,0.116-0.116c0.038-0.036,0.067-0.063,0.116-0.093c0.016-0.009,0.056-0.027,0.07-0.039
			c0.024-0.02,0.016-0.035,0.046-0.054c0.053-0.034,0.084-0.04,0.14-0.069c0.019-0.01,0.054-0.042,0.069-0.054
			c0.001-0.001,0.06-0.045,0.047-0.039c0.021-0.01,0.048-0.008,0.069-0.017c0.028-0.013,0.043-0.04,0.069-0.052
			c0.038-0.018,0.104,0,0.094-0.058h0.115c0.016-0.023,0.031-0.046,0.047-0.07h0.116c0.008-0.016,0.016-0.031,0.023-0.046h0.139
			c0.028-0.017,0.056-0.04,0.07-0.07h0.209c0-0.015,0-0.031,0-0.046h0.255c0.041-0.021,0.081-0.039,0.116-0.07h1.115
			c0.03,0.023,0.062,0.047,0.093,0.07h0.255c0.008,0.016,0.016,0.031,0.023,0.046h0.186c0.015,0.03,0.042,0.054,0.07,0.07h0.139
			c0,0.016,0,0.031,0,0.046H51.1c0.016,0.023,0.031,0.046,0.047,0.07h0.116c-0.01,0.047,0.08,0.059,0.116,0.081
			c-0.008,0.021,0,0.031,0.022,0.029c0.008,0.002,0.016,0.004,0.023,0.006c0.013,0.008,0.059,0.03,0.07,0.035
			c0.058,0.024,0.077,0.046,0.115,0.077c0.039,0.032,0.097,0.055,0.14,0.085c-0.007,0.021,0,0.031,0.023,0.031
			c0.008,0.002,0.016,0.005,0.023,0.008c0.023,0.02,0.022,0.019,0.046,0.039c0.038,0.032,0.072,0.05,0.116,0.085
			c0.001,0,0.038,0.038,0.047,0.046c0.022,0.023,0.046,0.046,0.069,0.069c0.046,0.046,0.099,0.09,0.14,0.14
			c0.073,0.09,0.163,0.175,0.231,0.279c0.02,0.029,0.024,0.042,0.047,0.069c0.009,0.011,0.035,0.032,0.047,0.046
			c0.03,0.039,0.043,0.097,0.069,0.14c0.001,0.002,0.047,0.047,0.046,0.046c-0.007-0.007,0.05,0.055,0.047,0.046
			c0.008,0.02-0.008,0.05,0,0.07c0.016,0.038,0.024,0.009,0.047,0.039c0.021,0.028,0.008,0.019,0.022,0.054c0,0.016,0,0.031,0,0.046
			c0.008,0.004,0.016,0.008,0.023,0.012c0.022,0.002,0.03,0.014,0.023,0.035c0,0.008,0,0.016,0,0.023
			c0.011,0.018,0.037,0.042,0.046,0.058c0.019,0.03,0.01,0.044,0.023,0.081c0.01,0.027,0.039,0.026,0.047,0.046s-0.009,0.05,0,0.07
			c0.016,0.038,0.024,0.009,0.046,0.039c0.021,0.028,0.033,0.083,0.047,0.124c0.012,0.036,0.007,0.105,0.023,0.139
			c0.019,0.04,0.056,0.03,0.069,0.07c0.008,0.02-0.005,0.048,0,0.069c0.008,0.031,0.039,0.042,0.047,0.07
			c0.006,0.021-0.004,0.048,0,0.07c0.003,0.021,0.013,0.053,0.022,0.07c0.005,0.007,0.045,0.042,0.047,0.046
			c0.016,0.041-0.015,0.098,0,0.139c0.013,0.034,0.034,0.036,0.047,0.07c0.007,0.019-0.003,0.049,0,0.069
			c0.006,0.042,0.005,0.032,0.022,0.07c0.008,0.017,0.042,0.053,0.047,0.07c0.011,0.039,0,0.098,0,0.139c0,0.016-0.007,0.056,0,0.07
			c0.012,0.023,0.058,0.014,0.069,0.046c-0.005-0.013-0.023,0.084-0.023,0.093c0,0.022-0.003,0.048,0,0.07
			c0.008,0.048,0.058,0.091,0.07,0.139c0.023,0.094-0.02,0.193,0.023,0.279c0.015,0.015,0.03,0.031,0.046,0.046
			c0.006,0.021-0.002,0.037-0.023,0.046c-0.001,0.023,0,0.046,0,0.07c0,0.022-0.003,0.047,0,0.069
			c0.004,0.026,0.021,0.052,0.023,0.07c0.009,0.055,0.008,0.091,0.023,0.139c0.016,0.049,0.023,0.081,0.023,0.14
			c0,0.101,0,0.201,0,0.302c0,0.038-0.014,0.104,0,0.139c0.001,0.004,0.042,0.04,0.046,0.046c0.024,0.039,0.018,0.027,0.023,0.07
			c0.026,0.185,0,0.394,0,0.581c0,0.193,0,0.387,0,0.581c0,1.548,0,3.096,0,4.645s0,3.096,0,4.645c0,0.774,0,1.548,0,2.322
			c0,0.052,0.007,0.111,0,0.163c-0.009,0.066-0.052,0.066-0.069,0.116c-0.026,0.071,0,0.202,0,0.278c0,0.101,0,0.201,0,0.302
			c0,0.111-0.047,0.167-0.047,0.278c0,0.099-0.039,0.193-0.023,0.302c0.004,0.026,0.033,0.043,0.023,0.069
			c-0.006,0.017-0.059,0.023-0.069,0.046c-0.015,0.03,0,0.105,0,0.14c0,0.054,0,0.108,0,0.163c0,0.059-0.007,0.09-0.023,0.139
			c-0.017,0.049-0.039,0.083-0.047,0.139c-0.006,0.044,0,0.095,0,0.14c-0.005,0.021,0.003,0.036,0.023,0.046
			c-0.012,0.017-0.027,0.028-0.046,0.035c-0.012,0.026-0.018,0.021-0.023,0.058c-0.008,0.043,0,0.095,0,0.139
			c0,0.114-0.069,0.163-0.069,0.279c0,0.027,0.007,0.067,0,0.093c-0.006,0.021-0.041,0.049-0.047,0.07c-0.011,0.04,0,0.098,0,0.139
			c0,0.019,0.006,0.053,0,0.07C53.224,32.969,53.208,32.951,53.189,32.98z"/>
	</g>
</g>
</svg>
