<?xml version="1.0" encoding="utf-8"?>
<!-- Generator: Adobe Illustrator 16.0.0, SVG Export Plug-In . SVG Version: 6.00 Build 0)  -->
<!DOCTYPE svg PUBLIC "-//W3C//DTD SVG 1.1//EN" "http://www.w3.org/Graphics/SVG/1.1/DTD/svg11.dtd">
<svg version="1.1" id="Camada_1" xmlns="http://www.w3.org/2000/svg" xmlns:xlink="http://www.w3.org/1999/xlink" x="0px" y="0px"
	 width="80px" height="80px" viewBox="0 0 80 80" enable-background="new 0 0 80 80" xml:space="preserve">
<g>
	<g>
		
			<image overflow="visible" width="2726" height="3000" xlink:href="../../marcas para hotsite/KROT0003.AF.140805.Unime PREF POSITIVA_RGB copy.png"  transform="matrix(0.0233 0 0 0.0233 8.001 7.0005)">
		</image>
	</g>
	<g>
		<path fill="#FFFFFF" d="M71.538,68.239c-0.011-0.041,0-0.099,0-0.141c0-0.071-0.038-0.102-0.047-0.163
			c-0.007-0.044,0.012-0.098,0-0.14c-0.012-0.04-0.04-0.046-0.047-0.094c-0.003-0.021,0.006-0.049,0-0.07
			c-0.013-0.045-0.063-0.093-0.07-0.14c-0.011-0.066-0.026-0.104-0.047-0.163c-0.015-0.045-0.04-0.097-0.046-0.141
			c-0.01-0.064-0.025-0.104-0.047-0.163c-0.008-0.022-0.018-0.043-0.023-0.059c-0.006-0.015-0.015-0.036-0.023-0.058
			c-0.013-0.035-0.032-0.061-0.047-0.094c-0.008-0.02,0.008-0.05,0-0.07c-0.02-0.054-0.086-0.056-0.069-0.128h-0.023
			c-0.008-0.016-0.016-0.031-0.023-0.047c0-0.016,0-0.031,0-0.047c-0.033-0.015-0.052-0.033-0.047-0.069
			c0.009-0.054-0.027-0.026-0.047-0.059c0-0.016,0-0.031,0-0.047c-0.016-0.016-0.031-0.031-0.046-0.047
			c-0.017-0.032-0.025-0.061-0.047-0.093c-0.019-0.027-0.049-0.062-0.07-0.094c0-0.016,0-0.031,0-0.047
			c-0.016-0.007-0.031-0.015-0.047-0.022c-0.016-0.021-0.032-0.072-0.046-0.094c-0.041-0.062-0.098-0.123-0.141-0.187
			c-0.084-0.127-0.174-0.221-0.28-0.327c-0.12-0.12-0.226-0.225-0.35-0.326c-0.215-0.177-0.49-0.364-0.724-0.473
			c-0.104-0.049-0.225-0.11-0.35-0.151c-0.064-0.021-0.128-0.052-0.187-0.076c-0.063-0.026-0.136-0.032-0.187-0.082h-0.141
			c-0.008-0.016-0.016-0.03-0.023-0.046h-0.163c-0.008-0.016-0.016-0.031-0.023-0.047h-0.187c-0.016-0.016-0.031-0.031-0.047-0.047
			h-0.233c-0.016-0.016-0.03-0.031-0.046-0.047h-0.42c-0.016-0.016-0.031-0.031-0.047-0.046h-1.073
			c-0.016,0.015-0.031,0.03-0.047,0.046h-0.42c-0.008,0.016-0.016,0.031-0.023,0.047h-0.28c-0.008,0.016-0.016,0.031-0.023,0.047
			h-0.21c-0.008,0.016-0.016,0.031-0.023,0.047h-0.163c-0.008,0.016-0.016,0.03-0.023,0.046h-0.14
			c-0.026,0.061-0.131,0.059-0.187,0.082c-0.059,0.024-0.122,0.055-0.188,0.076c-0.134,0.044-0.257,0.105-0.373,0.151
			c-0.137,0.054-0.264,0.151-0.396,0.216c-0.067,0.033-0.149,0.094-0.21,0.14c-0.032,0.024-0.06,0.048-0.094,0.07
			c-0.027,0.019-0.055,0.059-0.069,0.07c-0.128,0.101-0.256,0.164-0.374,0.279c-0.111,0.11-0.181,0.205-0.303,0.327
			c-0.112,0.112-0.214,0.238-0.304,0.373c-0.047,0.07-0.094,0.123-0.14,0.187c-0.016,0.021-0.031,0.072-0.047,0.094
			c-0.022,0.031-0.056,0.006-0.047,0.059c0.004,0.034-0.013,0.057-0.046,0.069c-0.008,0.016-0.016,0.031-0.023,0.047
			s-0.016,0.031-0.023,0.047c-0.019,0.032-0.052,0.052-0.07,0.082c0.031,0.016,0.031,0.03,0,0.046
			c-0.008,0.008-0.016,0.016-0.023,0.023c-0.011,0.03-0.036,0.063-0.047,0.094c0,0-0.021,0.067-0.023,0.07
			c-0.024,0.04-0.052,0.083-0.069,0.128c-0.022,0.003-0.03,0.014-0.023,0.035c0,0.008,0,0.016,0,0.023
			c-0.008,0.014-0.043,0.056-0.047,0.069c-0.012,0.041-0.006,0.056-0.023,0.094c-0.012,0.024-0.033,0.044-0.047,0.07
			c-0.005,0.009-0.021,0.062-0.022,0.069c-0.008,0.021-0.016,0.047-0.023,0.07c0,0.016,0,0.031,0,0.047
			c-0.016,0.016-0.031,0.031-0.047,0.047c-0.006,0.021,0.005,0.048,0,0.069c-0.008,0.031-0.039,0.043-0.047,0.07
			c-0.006,0.021,0.006,0.048,0,0.07c-0.01,0.038-0.037,0.055-0.047,0.093c-0.005,0.022,0.006,0.049,0,0.07
			c-0.009,0.034-0.041,0.054-0.047,0.093c-0.003,0.022,0.006,0.049,0,0.07c-0.016,0.063-0.06,0.094-0.069,0.163
			c-0.003,0.022,0.006,0.049,0,0.07s-0.041,0.049-0.047,0.07c-0.008,0.028,0.004,0.063,0,0.093c-0.005,0.038-0.013,0.037-0.023,0.07
			c-0.017,0.049-0.023,0.082-0.023,0.14c0,0.071-0.037,0.102-0.047,0.164c-0.006,0.04,0,0.087,0,0.128c0,0.019,0.004,0.041,0,0.059
			c-0.007,0.033-0.038,0.041-0.046,0.069c-0.012,0.04,0,0.1,0,0.141c0,0.047,0,0.093,0,0.14c0,0.019,0.006,0.053,0,0.07
			c-0.01,0.026-0.039,0.026-0.047,0.047c-0.026,0.07,0,0.203,0,0.279c0,0.094,0,0.187,0,0.28c0,0.369,0,0.739,0,1.108
			c0,0.071-0.01,0.151,0,0.222c0.011,0.079,0.047,0.122,0.047,0.21c0,0.067-0.01,0.143,0,0.21c0.01,0.074,0.036,0.136,0.046,0.21
			c0.006,0.037,0,0.079,0,0.117c0,0.047,0.011,0.055,0.023,0.093c0.015,0.043,0.023,0.063,0.023,0.117c0,0.027-0.007,0.066,0,0.093
			c0.012,0.044,0.04,0.065,0.047,0.117c0.004,0.029-0.007,0.063,0,0.093c0.012,0.047,0.039,0.064,0.047,0.117
			c0.006,0.043,0.011,0.057,0.023,0.093c0.013,0.04,0.04,0.075,0.046,0.117c0.005,0.027-0.009,0.066,0,0.093
			c0.011,0.028,0.039,0.025,0.047,0.047c0,0.016,0,0.031,0,0.047c0.011,0.031,0.014,0.064,0.023,0.093
			c0.011,0.033,0.011,0.082,0.023,0.117c0.011,0.029,0.031,0.045,0.047,0.07c0.001,0.002,0.023,0.069,0.023,0.069
			c-0.006,0.021,0.002,0.037,0.023,0.047c0.009,0.035,0.013,0.063,0.023,0.094c0.011,0.034,0.03,0.083,0.046,0.116
			c0.016,0.016,0.031,0.031,0.047,0.047c0,0.016,0,0.031,0,0.047c0.008,0.016,0.042,0.054,0.047,0.069c0,0.016,0,0.031,0,0.047
			c0.015,0.023,0.031,0.047,0.047,0.07c0,0.016,0,0.031,0,0.047c0.008,0.004,0.016,0.008,0.023,0.012
			c0.022,0.002,0.03,0.014,0.022,0.034c0,0.016,0,0.031,0,0.047c0.016,0.008,0.031,0.016,0.047,0.023
			c0.008,0.013,0.017,0.056,0.023,0.07c0.021,0.01,0.029,0.025,0.023,0.046c0.024,0.035,0.051,0.036,0.047,0.082h0.023
			c0,0.016,0,0.031,0,0.047h0.023c0.008,0.016,0.016,0.031,0.023,0.047c0.007,0.016,0.015,0.031,0.022,0.046h0.023
			c0,0.008,0,0.016,0,0.023s0,0.016,0,0.023c0.057,0.022,0.025,0.05,0.047,0.082c0.023,0.035,0.066,0.061,0.094,0.093
			c0.035,0.044,0.057,0.111,0.093,0.152c0.078,0.087,0.171,0.207,0.257,0.303c0.151,0.169,0.311,0.314,0.514,0.479
			c0.207,0.167,0.384,0.29,0.606,0.432c0.111,0.071,0.235,0.119,0.35,0.183c0.054,0.03,0.11,0.058,0.164,0.086
			c0.04,0.021,0.12,0.035,0.14,0.082h0.093c0.008,0.016,0.016,0.03,0.023,0.046h0.117c0,0.016,0,0.031,0,0.047h0.116
			c0.008,0.016,0.016,0.031,0.023,0.047h0.117c0.016,0.016,0.031,0.031,0.046,0.047h0.117c0.02,0.04,0.056,0.051,0.094,0.069h0.116
			c0.016,0.016,0.031,0.031,0.047,0.047h0.163c0.016,0.016,0.031,0.031,0.047,0.047h0.187c0.016,0.016,0.031,0.031,0.047,0.047
			h0.257c0.028,0.017,0.055,0.04,0.069,0.069h2.311c0.028-0.017,0.055-0.039,0.069-0.069h0.21c0.016-0.016,0.031-0.031,0.047-0.047
			h0.187c0.016-0.016,0.031-0.031,0.047-0.047h0.141c0.015-0.016,0.03-0.031,0.046-0.047h0.117c0.031-0.022,0.062-0.046,0.093-0.069
			h0.117c0.008-0.016,0.016-0.031,0.023-0.047h0.116c0.008-0.016,0.016-0.031,0.023-0.047h0.094
			c0.008-0.016,0.016-0.031,0.022-0.047h0.117c0-0.016,0-0.03,0-0.046h0.116c-0.009-0.048,0.225-0.132,0.28-0.16
			c0.105-0.052,0.199-0.128,0.304-0.179c0.105-0.052,0.194-0.138,0.303-0.21c0.104-0.068,0.179-0.134,0.257-0.222
			c0.034-0.038,0.083-0.063,0.117-0.104c0.043-0.054,0.08-0.109,0.116-0.164c0.021-0.031,0.055-0.055,0.07-0.081
			c0.022-0.003,0.03-0.015,0.023-0.035c0-0.008,0-0.016,0-0.023c0.003-0.005,0.045-0.044,0.046-0.047
			c0.008-0.021-0.005-0.049,0-0.069c0.015-0.052,0.062-0.108,0.07-0.164c0.007-0.04,0.006-0.1,0-0.14
			c-0.014-0.1-0.023-0.2-0.07-0.292c0-0.008,0-0.016,0-0.023s0-0.016,0-0.023c0-0.015,0-0.03,0-0.046h-0.022
			c-0.008-0.016-0.016-0.031-0.023-0.047c0-0.016,0-0.031,0-0.047s0-0.031,0-0.047h-0.047c0-0.081-0.028-0.112-0.07-0.175
			c-0.03-0.046-0.058-0.12-0.093-0.163c-0.094-0.112-0.166-0.241-0.257-0.351c-0.104-0.125-0.215-0.215-0.327-0.326
			c-0.048-0.048-0.08-0.104-0.116-0.14c-0.031-0.031-0.103-0.052-0.094-0.105h-0.116c-0.079,0.173-0.271,0.317-0.396,0.443
			c-0.063,0.063-0.155,0.133-0.233,0.198c-0.064,0.054-0.114,0.073-0.187,0.117c0.004-0.003-0.04,0.04-0.047,0.046
			c-0.024,0.021-0.044,0.029-0.07,0.047c-0.038,0.025-0.077,0.047-0.116,0.07c-0.075,0.045-0.16,0.083-0.233,0.128
			c-0.065,0.041-0.133,0.074-0.21,0.1c-0.045,0.015-0.076,0.042-0.117,0.059c-0.04,0.016-0.073,0.006-0.093,0.052h-0.117
			c-0.008,0.016-0.016,0.031-0.023,0.047h-0.116c-0.008,0.016-0.016,0.031-0.023,0.047h-0.163c-0.008,0.016-0.016,0.031-0.023,0.047
			h-0.233c-0.008,0.016-0.016,0.031-0.023,0.046h-0.304c0,0.008,0,0.016,0,0.023h-0.116c0,0.008,0,0.016,0,0.023h-0.514
			c0-0.008,0-0.016,0-0.023h-0.163c0-0.008,0-0.016,0-0.023h-0.28c-0.016-0.015-0.031-0.03-0.047-0.046h-0.187
			c-0.016-0.016-0.031-0.031-0.047-0.047h-0.14c-0.008-0.016-0.016-0.031-0.023-0.047h-0.116c-0.024-0.058-0.176-0.085-0.233-0.116
			c-0.08-0.044-0.135-0.072-0.21-0.105c-0.079-0.035-0.134-0.079-0.21-0.128c-0.077-0.05-0.169-0.111-0.233-0.175
			c-0.034-0.034-0.071-0.08-0.117-0.117c-0.04-0.032-0.083-0.077-0.116-0.116c-0.027-0.033-0.056-0.081-0.094-0.117
			c-0.003-0.003-0.039-0.037-0.046-0.047c-0.016-0.016-0.031-0.031-0.047-0.046c-0.023-0.026-0.049-0.084-0.07-0.117
			c-0.03-0.045-0.048-0.07-0.07-0.116c-0.016-0.033-0.049-0.092-0.069-0.117c-0.005-0.006-0.042-0.038-0.047-0.047
			c0-0.016,0-0.031,0-0.046c-0.011-0.021-0.036-0.055-0.047-0.07c-0.004-0.007-0.044-0.062-0.047-0.07
			c-0.006-0.021,0.008-0.049,0-0.069c0.007-0.021,0-0.033-0.023-0.035c-0.011-0.027-0.035-0.071-0.046-0.105
			c-0.011-0.031-0.03-0.09-0.047-0.116c-0.033-0.054-0.083-0.137-0.094-0.21c-0.007-0.05-0.009-0.075-0.023-0.117
			c-0.014-0.042-0.016-0.067-0.022-0.116c-0.008-0.053-0.035-0.07-0.047-0.117c-0.01-0.036,0.005-0.079,0-0.116
			c-0.008-0.052-0.035-0.073-0.047-0.117c-0.009-0.033,0-0.082,0-0.116c0-0.163-0.047-0.297-0.047-0.455h0.023
			c0,0.008,0,0.016,0,0.023h7.747c0-0.008,0-0.016,0-0.023h0.046c0.03-0.055,0.047-0.063,0.047-0.128c0-0.047,0-0.094,0-0.141
			c0-0.093,0-0.187,0-0.28c0-0.187,0-0.373,0-0.56c0-0.361,0-0.724,0-1.085c0-0.206,0-0.412,0-0.618
			C71.607,68.32,71.555,68.308,71.538,68.239z M68.971,69.021h-5.203c0.007-0.056,0.015-0.113,0.023-0.175
			c0.009-0.063,0.047-0.092,0.047-0.163c0-0.08,0.047-0.107,0.047-0.188c0-0.075,0.035-0.074,0.046-0.14
			c0.008-0.041,0.012-0.058,0.023-0.094c0.011-0.03,0.035-0.063,0.047-0.093c0-0.016,0-0.031,0-0.047
			c0.016-0.008,0.031-0.016,0.047-0.023c0.005-0.021-0.003-0.036-0.023-0.047c0.008-0.008,0.016-0.016,0.023-0.022
			c0.016-0.016,0.031-0.031,0.047-0.047c0-0.016,0-0.031,0-0.047c0.016-0.016,0.03-0.031,0.046-0.047c0-0.016,0-0.031,0-0.047
			c0.012-0.023,0.031-0.073,0.047-0.093c0.005-0.006,0.042-0.039,0.047-0.047c0-0.016,0-0.031,0-0.047
			c0.016-0.016,0.031-0.031,0.047-0.047c0.015-0.022,0.031-0.07,0.046-0.093c0.041-0.062,0.092-0.104,0.141-0.163
			c0.095-0.116,0.21-0.232,0.326-0.339c0.045-0.04,0.104-0.088,0.164-0.128c0.053-0.036,0.106-0.089,0.163-0.117
			c0.055-0.026,0.106-0.046,0.163-0.069c0.039-0.017,0.122-0.039,0.141-0.082h0.116c0.008-0.016,0.016-0.031,0.023-0.047h0.116
			c0.008-0.016,0.016-0.031,0.023-0.047h0.163c0.042-0.021,0.082-0.039,0.117-0.069h1.026c0.047,0.023,0.094,0.046,0.141,0.069h0.14
			c0.016,0.016,0.031,0.031,0.047,0.047h0.116c0.008,0.016,0.016,0.031,0.023,0.047h0.117c0.024,0.055,0.114,0.07,0.163,0.098
			c0.054,0.029,0.111,0.053,0.163,0.089c0.114,0.081,0.227,0.168,0.327,0.269c0.104,0.104,0.18,0.212,0.256,0.326
			c0.034,0.052,0.067,0.108,0.094,0.164c0.014,0.028,0.062,0.063,0.07,0.093c0.006,0.021-0.007,0.049,0,0.07
			c0.016,0.016,0.031,0.031,0.046,0.047c0,0.016,0,0.031,0,0.046c0.008,0.017,0.043,0.055,0.047,0.07
			c0.009,0.029-0.008,0.064,0,0.094c0.008,0.027,0.039,0.038,0.047,0.069c0.008,0.029-0.008,0.064,0,0.094
			c0.008,0.027,0.039,0.038,0.047,0.07c0.007,0.028-0.004,0.063,0,0.093c0.005,0.038,0.012,0.037,0.023,0.07
			c0.031,0.095,0.032,0.228,0.047,0.326c0.004,0.03-0.008,0.064,0,0.094c0.008,0.031,0.038,0.042,0.046,0.07
			C68.983,68.912,68.971,68.976,68.971,69.021z M58.704,68.869c0-0.099,0.014-0.207,0-0.304c-0.014-0.098-0.047-0.173-0.047-0.28
			c0-0.065-0.005-0.108-0.022-0.163c-0.016-0.046-0.023-0.088-0.023-0.14c0-0.059-0.007-0.091-0.023-0.141
			c-0.017-0.049-0.015-0.085-0.023-0.14s-0.062-0.106-0.07-0.163c-0.008-0.056-0.007-0.092-0.023-0.141
			c-0.015-0.043-0.032-0.096-0.046-0.14c-0.016-0.046-0.01-0.091-0.023-0.14c-0.016-0.016-0.031-0.031-0.047-0.047
			c0-0.016,0-0.031,0-0.047c-0.008-0.023-0.017-0.049-0.023-0.07c-0.015-0.043-0.032-0.096-0.047-0.14c0,0-0.021-0.067-0.023-0.07
			c-0.011-0.018-0.035-0.028-0.047-0.046c-0.022-0.038-0.012-0.092-0.046-0.129c-0.008-0.016-0.016-0.031-0.023-0.047
			c-0.02-0.02-0.028-0.042-0.023-0.069h-0.023c0.017-0.065-0.046-0.103-0.07-0.152c-0.026-0.055-0.051-0.113-0.093-0.163
			c-0.034-0.04-0.059-0.087-0.094-0.14c-0.029-0.044-0.062-0.092-0.093-0.141c-0.034-0.051-0.082-0.11-0.117-0.163
			c-0.03-0.045-0.063-0.102-0.093-0.14c-0.02-0.024-0.051-0.038-0.07-0.059c-0.022-0.022-0.023-0.025-0.047-0.047
			c-0.045-0.041-0.066-0.063-0.094-0.116h-0.022c-0.041-0.074-0.114-0.103-0.164-0.151c-0.022-0.023-0.057-0.066-0.093-0.094
			c-0.032-0.023-0.063-0.045-0.094-0.07c-0.128-0.104-0.26-0.188-0.396-0.279c-0.132-0.088-0.277-0.171-0.42-0.233
			c-0.09-0.04-0.333-0.084-0.373-0.176h-0.117c-0.008-0.016-0.016-0.03-0.023-0.046h-0.116c-0.008-0.016-0.016-0.031-0.023-0.047
			h-0.14c-0.008-0.016-0.016-0.031-0.023-0.047h-0.164c-0.016-0.016-0.03-0.031-0.046-0.047h-0.187
			c-0.016-0.016-0.031-0.031-0.047-0.046h-0.257c-0.008-0.016-0.016-0.031-0.023-0.047h-0.116c0-0.008,0-0.016,0-0.023h-0.374
			c0-0.008,0-0.016,0-0.023h-0.21c0-0.008,0-0.016,0-0.023h-0.7c0,0.008,0,0.016,0,0.023h-0.21c0,0.008,0,0.016,0,0.023h-0.373
			c0,0.008,0,0.016,0,0.023h-0.116c-0.016,0.016-0.031,0.031-0.047,0.047h-0.257c-0.008,0.015-0.016,0.03-0.023,0.046h-0.21
			c-0.008,0.016-0.016,0.031-0.023,0.047h-0.163c-0.016,0.016-0.031,0.031-0.047,0.047h-0.14c-0.008,0.016-0.016,0.031-0.023,0.047
			h-0.14c-0.008,0.016-0.016,0.03-0.023,0.046h-0.117c-0.027,0.061-0.152,0.085-0.21,0.113c-0.076,0.038-0.158,0.06-0.233,0.097
			c-0.075,0.038-0.157,0.064-0.233,0.105c0.01-0.005-0.043,0.036-0.047,0.039c-0.02,0.003-0.035,0.013-0.046,0.031
			c-0.032,0.018-0.059,0.031-0.094,0.046c-0.073,0.033-0.135,0.082-0.187,0.125c-0.053,0.044-0.111,0.06-0.163,0.108
			c-0.068,0.065-0.153,0.104-0.21,0.164c-0.047,0.047-0.17,0.104-0.164,0.175h-0.069c-0.078-0.141-0.255-0.239-0.374-0.339
			c-0.121-0.101-0.26-0.2-0.396-0.279c-0.129-0.075-0.264-0.151-0.396-0.21c-0.071-0.031-0.141-0.065-0.21-0.094
			c-0.054-0.022-0.137-0.023-0.163-0.082h-0.117c-0.008-0.016-0.016-0.03-0.023-0.046h-0.116c-0.008-0.016-0.016-0.031-0.023-0.047
			h-0.14c-0.008-0.016-0.016-0.031-0.023-0.047h-0.163c-0.008-0.016-0.016-0.031-0.023-0.047h-0.21
			c-0.016-0.016-0.031-0.031-0.047-0.046h-0.233c-0.047-0.023-0.094-0.047-0.141-0.07h-0.396c0-0.008,0-0.016,0-0.023h-0.21
			c0-0.008,0-0.016,0-0.023h-0.677c0,0.008,0,0.016,0,0.023h-0.21c0,0.008,0,0.016,0,0.023h-0.396
			c-0.05,0.019-0.101,0.032-0.14,0.07h-0.257c-0.008,0.015-0.016,0.03-0.023,0.046h-0.21c-0.008,0.016-0.016,0.031-0.023,0.047
			h-0.163c-0.008,0.016-0.016,0.031-0.023,0.047h-0.14c-0.008,0.016-0.016,0.031-0.023,0.047h-0.141
			c-0.008,0.016-0.016,0.03-0.023,0.046h-0.093c-0.126,0.109-0.308,0.127-0.443,0.21c-0.053,0.033-0.113,0.058-0.163,0.09
			c-0.066,0.043-0.144,0.076-0.21,0.12c-0.144,0.096-0.269,0.165-0.397,0.269c-0.067,0.055-0.116,0.116-0.163,0.164
			c-0.049,0.049-0.122,0.077-0.163,0.151h-0.023c-0.032,0.059-0.076,0.088-0.117,0.128c-0.029,0.03-0.063,0.087-0.093,0.117
			c-0.056,0.054-0.099,0.106-0.14,0.163c-0.033,0.044-0.067,0.068-0.094,0.116c-0.055,0.102-0.122,0.206-0.187,0.304
			c-0.032,0.049-0.061,0.115-0.094,0.163c-0.021,0.033-0.057,0.08-0.047,0.129H41.32c-0.02,0.02-0.027,0.043-0.022,0.069
			c-0.008,0.016-0.016,0.031-0.023,0.047h-0.023c0,0.016,0,0.031,0,0.047h-0.023c0,0.048-0.011,0.062-0.023,0.094
			c-0.022,0.002-0.03,0.014-0.022,0.034c0,0.016,0,0.031,0,0.047c-0.009,0.027-0.039,0.039-0.047,0.07c0,0.016,0,0.031,0,0.047
			c-0.009,0.033-0.033,0.063-0.047,0.093c-0.006,0.011-0.021,0.061-0.023,0.07c0.006,0.021-0.002,0.036-0.023,0.047
			c-0.01,0.034-0.014,0.062-0.023,0.093s-0.039,0.063-0.047,0.094c-0.008,0.028,0.008,0.064,0,0.093
			c-0.011,0.04-0.039,0.046-0.047,0.094c-0.003,0.022,0.004,0.047,0,0.07c-0.01,0.059-0.036,0.058-0.047,0.116
			c-0.009,0.055-0.007,0.093-0.022,0.14c-0.017,0.05-0.023,0.083-0.023,0.141c0,0.114-0.047,0.186-0.047,0.303
			c0,0.038,0.013,0.105,0,0.141c-0.007,0.02-0.036,0.02-0.046,0.047c-0.007,0.017,0,0.051,0,0.069c0,0.102,0,0.202,0,0.304
			c0,0.041,0.01,0.1,0,0.14c-0.016,0.055-0.047,0.073-0.047,0.141c0,0.194,0,0.389,0,0.583c0,0.777,0,1.556,0,2.333
			c0,1.552,0,3.104,0,4.655c0,0.016,0,0.031,0,0.047c0.021,0.046,0.072,0.053,0.116,0.069h0.257c0,0.008,0,0.016,0,0.023h0.163
			c0,0.008,0,0.016,0,0.023h0.351c0-0.008,0-0.016,0-0.023h0.163c0-0.008,0-0.016,0-0.023h0.21c0.05-0.019,0.101-0.032,0.14-0.069
			h0.141c0.008-0.016,0.015-0.031,0.022-0.047h0.117c0.026-0.059,0.114-0.063,0.163-0.094c0.047-0.028,0.085-0.048,0.141-0.081
			c0.112-0.068,0.204-0.153,0.279-0.233c0.035-0.038,0.082-0.093,0.117-0.141c0.021-0.01,0.028-0.025,0.023-0.046
			c0.016-0.008,0.03-0.016,0.046-0.023c0.008-0.02-0.009-0.052,0-0.07c0.016-0.008,0.031-0.016,0.047-0.023
			c0.021-0.01,0.029-0.025,0.023-0.047c0.003-0.004,0.045-0.063,0.047-0.069c0.01-0.034,0.013-0.063,0.023-0.094
			c0.007-0.021,0.016-0.046,0.023-0.069c0.019-0.056,0.038-0.105,0.046-0.164c0.008-0.056,0.008-0.091,0.023-0.14
			c0.017-0.049,0.023-0.081,0.023-0.14c0-0.047,0-0.094,0-0.141c0-0.194,0-0.389,0-0.583c0-0.389,0-0.778,0-1.167
			c0-0.777,0-1.556,0-2.333c0-0.389,0-0.778,0-1.167c0-0.194,0-0.389,0-0.583c0-0.028-0.007-0.066,0-0.094
			c0.008-0.031,0.039-0.042,0.047-0.069c0.012-0.043-0.007-0.097,0-0.141c0.003-0.018,0.02-0.043,0.023-0.069
			c0.003-0.022,0-0.048,0-0.07c0-0.058,0.007-0.091,0.023-0.14c0.019-0.056,0.015-0.103,0.023-0.164
			c0.008-0.056,0.039-0.088,0.046-0.14c0.009-0.056,0.008-0.092,0.023-0.14c0.015-0.044,0.032-0.097,0.047-0.141
			c0.035-0.104,0.069-0.204,0.117-0.303c0.01-0.022,0.012-0.047,0.022-0.07c0.009-0.018,0.038-0.057,0.047-0.07
			c0.028-0.042,0.046-0.095,0.07-0.14c0.019-0.035,0.053-0.042,0.07-0.07c0.01-0.016,0.013-0.05,0.023-0.07
			c0.025-0.048,0.061-0.072,0.093-0.116c0.071-0.097,0.167-0.188,0.257-0.28c0.069-0.071,0.187-0.147,0.28-0.21
			c0.065-0.044,0.224-0.079,0.256-0.151h0.117c0.008-0.016,0.016-0.031,0.023-0.047h0.116c0.008-0.016,0.016-0.031,0.023-0.047
			h0.141c0.041-0.021,0.081-0.039,0.116-0.069h0.934c0.047,0.023,0.093,0.046,0.14,0.069h0.14c0.008,0.016,0.016,0.031,0.023,0.047
			h0.141c0,0.016,0,0.031,0,0.047h0.116c0.032,0.071,0.191,0.108,0.257,0.151c0.079,0.053,0.176,0.106,0.233,0.164
			c0.009,0.008,0.032,0.031,0.047,0.046c0.022,0.024,0.047,0.047,0.069,0.07c0.039,0.039,0.08,0.076,0.117,0.116
			c0.037,0.042,0.056,0.076,0.093,0.117c0.021,0.023,0.053,0.044,0.07,0.07c0,0.016,0,0.03,0,0.046
			c0.018,0.029,0.051,0.035,0.07,0.07c0.01,0.02,0.014,0.051,0.023,0.07c0.025,0.052,0.067,0.088,0.093,0.14
			c0.011,0.021,0.013,0.048,0.023,0.07c0.012,0.023,0.036,0.048,0.047,0.069c-0.031,0.016-0.031,0.031,0,0.047
			c0.008,0.008,0.016,0.016,0.023,0.023c0.004,0.012,0.018,0.058,0.023,0.07c0.025,0.053,0.051,0.107,0.069,0.163
			c0.017,0.049,0.015,0.085,0.023,0.14c0.011,0.06,0.037,0.059,0.047,0.117c0.01,0.055,0.007,0.091,0.023,0.14
			c0.031,0.093,0.031,0.206,0.047,0.304c0.003,0.018,0.02,0.043,0.023,0.07c0.003,0.021,0,0.047,0,0.069
			c0,0.045-0.007,0.096,0,0.141c0.026,0.189,0.046,0.383,0.046,0.583c0,0.777,0,1.556,0,2.333c0,0.778,0,1.556,0,2.334
			c0,0.389,0,0.777,0,1.166c0,0.194,0,0.39,0,0.584c0,0.101,0,0.202,0,0.303c0,0.072-0.027,0.213,0.023,0.269h2.66
			c0-0.377,0-0.755,0-1.132c0-1.556,0-3.111,0-4.667c0-0.389,0-0.777,0-1.166c0-0.105-0.007-0.212,0.023-0.304
			c0.028-0.085,0.023-0.182,0.023-0.28c0-0.054,0-0.108,0-0.163c0-0.06,0.007-0.091,0.023-0.14c0.009-0.025,0.015-0.045,0.023-0.07
			c0.003-0.009,0.022-0.068,0.023-0.069c0.007-0.046-0.007-0.095,0-0.141c0.006-0.039,0.037-0.059,0.046-0.093
			c0.006-0.021-0.003-0.049,0-0.07c0.009-0.057,0.039-0.088,0.047-0.14c0.004-0.022-0.006-0.049,0-0.07s0.041-0.049,0.047-0.07
			s-0.006-0.048,0-0.069c0.008-0.032,0.039-0.043,0.047-0.07c0-0.016,0-0.031,0-0.047c-0.007-0.021,0.001-0.032,0.023-0.035
			c0.022-0.002,0.03-0.014,0.023-0.035c0-0.008,0-0.016,0-0.023c0-0.015,0-0.03,0-0.046c0.008-0.004,0.016-0.008,0.023-0.012
			c0.022-0.003,0.029-0.015,0.022-0.035c0-0.008,0-0.016,0-0.023c0.05-0.075,0.105-0.17,0.164-0.257
			c0.031-0.047,0.059-0.119,0.093-0.163c0.007-0.009,0.044-0.044,0.047-0.047c0.023-0.022,0.048-0.046,0.07-0.07
			c0.064-0.072,0.131-0.144,0.21-0.21c0.088-0.073,0.171-0.142,0.279-0.202c0.023-0.013,0.049-0.023,0.07-0.038
			c0.006-0.005,0.056-0.044,0.047-0.039c0.045-0.021,0.094-0.005,0.116-0.059h0.094c0.008-0.016,0.016-0.031,0.023-0.047h0.116
			c0.016-0.016,0.031-0.031,0.047-0.047h0.14c0.042-0.021,0.082-0.039,0.117-0.069h0.934c0.039,0.037,0.09,0.051,0.14,0.069h0.116
			c0.016,0.016,0.031,0.031,0.047,0.047h0.117c0.019,0.045,0.121,0.072,0.163,0.088c0.07,0.025,0.123,0.058,0.187,0.095
			c0.124,0.072,0.237,0.158,0.351,0.249c0.126,0.103,0.216,0.247,0.303,0.351c0.026,0.03,0.028,0.063,0.047,0.093
			c0.016,0.008,0.031,0.016,0.047,0.023c0,0.016,0,0.031,0,0.047c0.02,0.036,0.053,0.057,0.069,0.093
			c0.007,0.015,0.017,0.059,0.023,0.07c0.015,0.024,0.032,0.046,0.047,0.07c0.001,0.002,0.023,0.069,0.023,0.069
			c0.007,0.021,0.016,0.047,0.023,0.07c0,0.001,0.021,0.067,0.023,0.07c0.011,0.018,0.035,0.028,0.047,0.047
			c0.001,0.002,0.022,0.069,0.022,0.069c0.016,0.047,0.011,0.09,0.023,0.141c0.01,0.038,0.037,0.055,0.047,0.093
			c0.006,0.021-0.003,0.048,0,0.07c0.008,0.052,0.039,0.084,0.047,0.14c0.006,0.045-0.012,0.098,0,0.141
			c0.015,0.054,0.047,0.072,0.047,0.14c0,0.21,0.046,0.372,0.046,0.583c0,0.194,0,0.39,0,0.584c0,0.777,0,1.556,0,2.333
			s0,1.556,0,2.333c0,0.194,0,0.39,0,0.584c0,0.068,0.038,0.106,0.047,0.163c0.008,0.044-0.012,0.097,0,0.14
			c0.014,0.05,0.063,0.086,0.07,0.141c0.003,0.021-0.007,0.05,0,0.069c0.01,0.027,0.039,0.027,0.047,0.047c0,0.016,0,0.031,0,0.047
			c-0.006,0.021,0.002,0.036,0.023,0.047c0,0,0.021,0.067,0.023,0.069c0.023,0.039,0.043,0.072,0.069,0.117
			c0.03,0.052,0.086,0.093,0.117,0.14c0.034,0.053,0.068,0.088,0.116,0.129c0.097,0.08,0.194,0.158,0.304,0.222
			c0.021,0.012,0.05,0.022,0.069,0.034c0.016,0.004,0.031,0.008,0.047,0.012c0,0.008,0,0.016,0,0.023
			c0.045,0.021,0.094,0.005,0.117,0.059h0.116c0.008,0.016,0.016,0.031,0.023,0.047h0.14c0.016,0.016,0.031,0.031,0.047,0.047h0.094
			c0,0.008,0,0.016,0,0.022h0.21c0,0.008,0,0.016,0,0.023h0.14c0,0.008,0,0.016,0,0.023h0.373c0-0.008,0-0.016,0-0.023h0.164
			c0-0.008,0-0.016,0-0.023h0.233c0-0.007,0-0.015,0-0.022h0.116c0.008-0.016,0.016-0.031,0.023-0.047c0-0.016,0-0.031,0-0.047
			c0-0.276,0-0.552,0-0.828c0-1.556,0-3.111,0-4.667c0-0.389,0-0.777,0-1.167c0-0.194,0-0.389,0-0.583c0-0.101,0-0.202,0-0.304
			c0-0.018,0.006-0.053,0-0.069c-0.01-0.027-0.039-0.027-0.047-0.047C58.691,68.974,58.704,68.906,58.704,68.869z M31.778,69.405
			c0-0.016,0-0.031,0-0.047c-0.004-0.021,0-0.048,0-0.069c0-0.047,0-0.094,0-0.141c0-0.093,0-0.187,0-0.279c0-0.055,0-0.109,0-0.164
			c0-0.059-0.007-0.091-0.023-0.14c-0.029-0.086-0.023-0.182-0.023-0.28c0-0.071-0.038-0.102-0.046-0.163
			c-0.007-0.046,0.006-0.094,0-0.14c-0.008-0.057-0.039-0.088-0.047-0.141c-0.008-0.056-0.007-0.092-0.023-0.14
			c-0.019-0.056-0.013-0.101-0.023-0.163c-0.007-0.048-0.058-0.095-0.07-0.141c-0.026-0.094-0.04-0.188-0.07-0.279
			c-0.011-0.032-0.014-0.058-0.023-0.094c-0.008-0.031-0.039-0.042-0.047-0.07c-0.006-0.021,0.008-0.049,0-0.069
			c-0.01-0.027-0.039-0.027-0.046-0.047c-0.008-0.021,0.005-0.049,0-0.07c-0.009-0.036-0.031-0.037-0.047-0.069
			c-0.021-0.043-0.043-0.079-0.046-0.129h-0.023c0-0.016,0-0.031,0-0.047c-0.033-0.015-0.052-0.033-0.047-0.069
			c0.009-0.055-0.034-0.026-0.046-0.059c0-0.016,0-0.031,0-0.047c0.007-0.021-0.001-0.032-0.023-0.035
			c-0.022-0.002-0.03-0.014-0.023-0.034c0-0.016,0-0.031,0-0.047c-0.008-0.022-0.058-0.076-0.07-0.094
			c-0.038-0.056-0.095-0.12-0.117-0.175c-0.023-0.058-0.076-0.091-0.117-0.151c-0.04-0.061-0.1-0.126-0.14-0.188
			c-0.045-0.066-0.075-0.11-0.14-0.163c-0.064-0.052-0.114-0.12-0.163-0.175c-0.037-0.041-0.092-0.08-0.14-0.128
			c-0.208-0.208-0.433-0.343-0.677-0.49c-0.114-0.069-0.251-0.118-0.35-0.179c-0.084-0.052-0.283-0.063-0.326-0.16h-0.117
			c-0.008-0.016-0.016-0.03-0.023-0.046h-0.117c-0.008-0.016-0.016-0.031-0.023-0.047h-0.14c-0.008-0.016-0.015-0.031-0.023-0.047
			h-0.164c-0.016-0.016-0.031-0.031-0.046-0.047h-0.187c-0.016-0.016-0.031-0.031-0.046-0.046h-0.257
			c-0.04-0.038-0.09-0.052-0.14-0.07h-0.396c0-0.008,0-0.016,0-0.023h-0.21c0-0.008,0-0.016,0-0.023h-0.677c0,0.008,0,0.016,0,0.023
			h-0.21c0,0.008,0,0.016,0,0.023h-0.397c-0.046,0.023-0.093,0.047-0.14,0.07h-0.257c-0.008,0.015-0.016,0.03-0.023,0.046h-0.21
			c-0.008,0.016-0.016,0.031-0.023,0.047h-0.163c-0.008,0.016-0.016,0.031-0.023,0.047h-0.14c-0.008,0.016-0.016,0.031-0.023,0.047
			h-0.14c-0.008,0.016-0.016,0.03-0.023,0.046h-0.093c-0.026,0.06-0.11,0.059-0.163,0.082c-0.059,0.026-0.125,0.058-0.187,0.086
			c-0.128,0.058-0.221,0.108-0.35,0.183c-0.248,0.144-0.507,0.32-0.7,0.513c-0.092,0.092-0.193,0.183-0.28,0.269
			c-0.039,0.039-0.079,0.09-0.117,0.141c-0.026,0.035-0.045,0.06-0.07,0.093c-0.027,0.038-0.039,0.039-0.07,0.07
			c-0.041,0.041-0.053,0.114-0.093,0.163c-0.052,0.063-0.106,0.117-0.14,0.187c-0.03,0.063-0.063,0.124-0.093,0.187
			c-0.024,0.051-0.085,0.086-0.07,0.152h-0.023c-0.02,0.02-0.028,0.043-0.023,0.069c-0.008,0.016-0.016,0.031-0.023,0.047
			c-0.01,0.019-0.041,0.042-0.047,0.059c0,0.016,0,0.031,0,0.047c-0.004,0.008-0.044,0.041-0.046,0.046c0,0.016,0,0.031,0,0.047
			c-0.021,0.041-0.04,0.067-0.047,0.117c-0.003,0.021,0.007,0.051,0,0.069c-0.016,0.008-0.031,0.016-0.046,0.023
			c-0.013,0.034-0.013,0.085-0.023,0.117c-0.013,0.037-0.012,0.074-0.023,0.116c-0.006,0.022-0.036,0.049-0.046,0.07
			c0,0.016,0,0.031,0,0.047c-0.031,0.016-0.031,0.031,0,0.046c-0.016,0.016-0.031,0.031-0.047,0.047
			c-0.02,0.054-0.009,0.106-0.023,0.164c-0.014,0.057-0.046,0.072-0.046,0.14c0,0.107-0.047,0.169-0.047,0.28
			c0,0.071-0.038,0.102-0.047,0.163c-0.006,0.044,0,0.095,0,0.14c0,0.107-0.046,0.173-0.046,0.28c0,0.101,0,0.202,0,0.304
			c0,0.038,0.013,0.104,0,0.14c-0.019,0.052-0.047,0.046-0.047,0.116c0,0.195,0,0.39,0,0.584c0,0.777,0,1.556,0,2.333
			c0,1.552,0,3.104,0,4.655h0.023c0,0.016,0,0.031,0,0.047h0.117c0,0.008,0,0.016,0,0.022h0.233c0,0.008,0,0.016,0,0.023h0.187
			c0,0.008,0,0.016,0,0.023h0.327c0-0.008,0-0.016,0-0.023h0.164c0-0.008,0-0.016,0-0.023h0.21c0-0.007,0-0.015,0-0.022h0.093
			c0.016-0.016,0.031-0.031,0.047-0.047h0.14c0.052-0.054,0.146-0.063,0.21-0.098c0.069-0.037,0.132-0.054,0.187-0.093
			c0.036-0.026,0.079-0.053,0.117-0.078c0.021-0.015,0.061-0.064,0.07-0.07c0.045-0.026,0.06-0.026,0.093-0.058
			c0.02-0.02,0.051-0.035,0.07-0.059c0.044-0.056,0.107-0.141,0.14-0.198c0.033-0.058,0.093-0.129,0.117-0.198
			c0.011-0.034,0.036-0.078,0.047-0.105c0.011-0.029,0.017-0.039,0.023-0.081c0.01-0.073,0.047-0.104,0.047-0.188
			c0-0.071,0.038-0.102,0.047-0.163c0.006-0.044,0-0.095,0-0.14c0-0.094,0-0.187,0-0.28c0-0.194,0-0.389,0-0.583
			c0-0.39,0-0.778,0-1.167c0-0.777,0-1.556,0-2.333c0-0.39,0-0.778,0-1.167c0-0.101,0-0.202,0-0.304c0-0.038-0.013-0.104,0-0.14
			c0.019-0.052,0.046-0.046,0.046-0.116c0-0.064,0.023-0.1,0.023-0.164c0-0.046,0-0.093,0-0.14c0-0.067,0.032-0.086,0.047-0.14
			c0.011-0.043-0.006-0.096,0-0.141c0.009-0.063,0.038-0.1,0.046-0.163c0.003-0.021-0.006-0.049,0-0.07
			c0.008-0.027,0.039-0.038,0.047-0.069c0.005-0.021-0.008-0.05,0-0.07c0.01-0.027,0.039-0.026,0.046-0.047
			c0.007-0.02-0.003-0.049,0-0.069c0.006-0.037,0.014-0.034,0.023-0.059c0.022-0.003,0.03-0.015,0.023-0.035
			c0-0.016,0-0.031,0-0.047c0.004-0.016,0.039-0.054,0.046-0.07c0.01-0.021,0.013-0.047,0.023-0.069
			c0.012-0.025,0.034-0.044,0.047-0.07c0.01-0.02,0.013-0.048,0.023-0.07c0.013-0.026,0.033-0.043,0.046-0.069
			c0.022-0.046,0.041-0.082,0.07-0.117c0.033-0.04,0.059-0.106,0.093-0.14c0.048-0.047,0.079-0.094,0.117-0.14
			c0.08-0.098,0.184-0.179,0.28-0.257c0.09-0.074,0.196-0.143,0.303-0.187c0.044-0.019,0.096-0.054,0.14-0.07
			c0.045-0.017,0.095-0.007,0.117-0.059h0.117c0.008-0.016,0.016-0.031,0.023-0.047h0.14c0.042-0.021,0.082-0.039,0.117-0.069h0.957
			c0.035,0.03,0.075,0.049,0.116,0.069h0.14c0.008,0.016,0.016,0.031,0.023,0.047h0.14c0.021,0.05,0.119,0.065,0.163,0.09
			c0.063,0.033,0.125,0.063,0.187,0.097c0.13,0.072,0.225,0.144,0.327,0.245c0.116,0.116,0.245,0.228,0.326,0.351
			c0.016,0.022,0.032,0.07,0.047,0.093c0.016,0.016,0.031,0.031,0.047,0.047c0,0.016,0,0.031,0,0.047
			c0.031,0.063,0.078,0.102,0.117,0.163c0,0.016,0,0.031,0,0.047c0.015,0.016,0.031,0.031,0.046,0.047
			c0.005,0.009,0.021,0.062,0.023,0.069c0.003,0.01,0.018,0.06,0.023,0.07c0.008,0.016,0.042,0.054,0.046,0.07
			c0.014,0.049,0.008,0.094,0.023,0.14c0.015,0.044,0.032,0.097,0.047,0.14c0.018,0.053,0.008,0.107,0.023,0.164
			c0.015,0.054,0.047,0.072,0.047,0.14c0,0.111,0.047,0.172,0.047,0.28s0.009,0.205,0.023,0.303c0.006,0.046-0.008,0.095,0,0.141
			c0.016,0.016,0.031,0.031,0.047,0.046c-0.008,0.008-0.016,0.016-0.023,0.023c0.001,0.023,0,0.047,0,0.07c0,0.194,0,0.389,0,0.583
			c0,0.778,0,1.556,0,2.334c0,0.777,0,1.556,0,2.333c0,0.187-0.029,0.399,0,0.583c0.021,0.011,0.029,0.026,0.023,0.047
			c0,0.016,0,0.031,0,0.047c0.004,0.028,0.015,0.044,0.023,0.07c0.016,0.048,0.015,0.084,0.023,0.14
			c0.004,0.028,0.015,0.044,0.023,0.07c0.003,0.009,0.018,0.059,0.023,0.069c0.008,0.017,0.042,0.055,0.047,0.07
			c0.006,0.021-0.006,0.049,0,0.07c0.008,0.029,0.056,0.064,0.07,0.093c0.006,0.014,0.017,0.06,0.023,0.07
			c0.034,0.054,0.082,0.088,0.117,0.14c0.065,0.099,0.162,0.167,0.256,0.245c0.096,0.08,0.163,0.127,0.28,0.175
			c0.043,0.019,0.096,0.054,0.14,0.07c0.051,0.019,0.099,0.017,0.14,0.059h0.14c0.008,0.016,0.016,0.031,0.023,0.047h0.093
			c0,0.008,0,0.016,0,0.022h0.233c0,0.008,0,0.016,0,0.023h0.14c0,0.008,0,0.016,0,0.023h0.35c0-0.008,0-0.016,0-0.023h0.164
			c0-0.008,0-0.016,0-0.023h0.233c0-0.007,0-0.015,0-0.022h0.14c0-0.016,0-0.031,0-0.047h0.023c0-0.292,0-0.584,0-0.875
			c0-1.556,0-3.111,0-4.667c0-0.389,0-0.777,0-1.167c0-0.101,0-0.202,0-0.303c0-0.076,0.027-0.21,0-0.28
			C31.809,69.421,31.793,69.413,31.778,69.405z M37.681,65.603c-0.008-0.049-0.058-0.092-0.07-0.141
			c-0.013-0.051-0.007-0.093-0.023-0.14c-0.003-0.01-0.019-0.06-0.023-0.07c-0.008-0.016-0.042-0.054-0.047-0.069
			c0-0.016,0-0.031,0-0.047c0.007-0.021-0.001-0.032-0.023-0.035s-0.03-0.015-0.023-0.035c0-0.008,0-0.016,0-0.023
			c-0.037-0.054-0.082-0.087-0.117-0.14c-0.015-0.021-0.025-0.045-0.047-0.07c-0.013-0.015-0.027-0.027-0.047-0.047
			c-0.008-0.008-0.032-0.031-0.046-0.046c-0.023-0.024-0.046-0.048-0.07-0.07c-0.018-0.017-0.039-0.049-0.07-0.07
			c-0.023-0.016-0.047-0.031-0.07-0.047c-0.043-0.028-0.094-0.07-0.14-0.093c-0.068-0.033-0.224-0.056-0.257-0.129h-0.116
			c-0.008-0.016-0.016-0.03-0.023-0.046h-0.187c-0.007-0.016-0.015-0.031-0.023-0.047h-0.35c-0.016-0.016-0.031-0.031-0.047-0.047
			h-0.303c-0.016,0.016-0.031,0.031-0.047,0.047h-0.42c-0.023,0.016-0.046,0.031-0.07,0.047h-0.023c0,0.016,0,0.03,0,0.046
			c0,1.124,0,2.248,0,3.372c0,1.556,0,3.111,0,4.667c0,0.777,0,1.556,0,2.333c0,0.188-0.026,0.397,0,0.583
			c0.009,0.061,0.038,0.106,0.047,0.164c0.008,0.056,0.007,0.092,0.023,0.14c0.015,0.046,0.009,0.091,0.023,0.14
			c0.005,0.017,0.039,0.054,0.047,0.07c0.01,0.021,0.012,0.047,0.023,0.07c0.016,0.016,0.031,0.031,0.046,0.046
			c0,0.016,0,0.031,0,0.047c0.009,0.019,0.038,0.057,0.047,0.07c0.029,0.044,0.066,0.085,0.093,0.116
			c0.08,0.093,0.157,0.177,0.257,0.257c0.101,0.082,0.184,0.137,0.303,0.187c0.043,0.019,0.096,0.054,0.14,0.07
			c0.051,0.019,0.099,0.017,0.14,0.059h0.117c0.04,0.037,0.09,0.051,0.14,0.069h0.233c0,0.008,0,0.016,0,0.023h0.14
			c0,0.008,0,0.016,0,0.023h0.35c0-0.008,0-0.016,0-0.023h0.164c0-0.008,0-0.016,0-0.023h0.257c0.039-0.015,0.103-0.018,0.093-0.069
			h0.023c0-1.124,0-2.248,0-3.372c0-1.556,0-3.111,0-4.666c0-0.778,0-1.556,0-2.334c0-0.101,0-0.202,0-0.303
			c0-0.047,0-0.094,0-0.141c0-0.058-0.016-0.091-0.023-0.14C37.673,65.712,37.689,65.655,37.681,65.603z M18.151,64.237h-1.05
			c-0.008,0.016-0.016,0.031-0.023,0.047h-0.187c-0.008,0.016-0.016,0.03-0.023,0.046h-0.14c-0.023,0.053-0.138,0.085-0.187,0.113
			c-0.061,0.035-0.126,0.059-0.187,0.097c-0.126,0.081-0.214,0.168-0.304,0.257c-0.024,0.024-0.048,0.061-0.07,0.082
			c-0.016,0.008-0.031,0.016-0.047,0.023c0,0.016,0,0.031,0,0.047c-0.019,0.034-0.049,0.062-0.07,0.093
			c-0.016,0.016-0.031,0.031-0.046,0.047c0,0.016,0,0.031,0,0.047c-0.016,0.016-0.031,0.031-0.047,0.047c0,0.015,0,0.03,0,0.046
			s0,0.031,0,0.047c-0.016,0.008-0.031,0.016-0.047,0.023c-0.01,0.027,0.007,0.065,0,0.094c-0.009,0.038-0.037,0.055-0.046,0.093
			c-0.007,0.029,0.004,0.063,0,0.094c-0.005,0.038-0.012,0.037-0.023,0.069c-0.016,0.049-0.023,0.081-0.023,0.141
			c0,0.057-0.016,0.087-0.023,0.14c-0.006,0.045,0,0.095,0,0.14c0,0.195,0,0.39,0,0.584c0,0.389,0,0.777,0,1.166
			c0,0.778,0,1.556,0,2.334c0,0.389,0,0.777,0,1.166c0,0.102,0,0.203,0,0.304c0,0.047,0,0.094,0,0.14c0,0.022,0.003,0.048,0,0.07
			c-0.003,0.026-0.02,0.052-0.023,0.07c-0.017,0.104-0.023,0.194-0.023,0.303c0,0.107-0.047,0.173-0.047,0.28
			c0,0.027,0.007,0.067,0,0.094c-0.008,0.027-0.039,0.038-0.046,0.069c-0.013,0.051-0.008,0.094-0.023,0.141
			c-0.031,0.093-0.063,0.187-0.093,0.279c-0.02,0.059-0.043,0.108-0.07,0.164c-0.005,0.011-0.02,0.061-0.023,0.069
			c0.002-0.007-0.027,0.075-0.023,0.07c-0.013,0.017-0.063,0.032-0.07,0.047c-0.009,0.019,0.008,0.05,0,0.07
			c0.002-0.005-0.048,0.049-0.046,0.046c-0.009,0.012-0.035,0.053-0.047,0.07c-0.07,0.105-0.132,0.206-0.233,0.304
			c-0.029,0.028-0.06,0.083-0.094,0.116c-0.041,0.04-0.096,0.059-0.14,0.094c-0.015,0.012-0.042,0.051-0.07,0.069
			c-0.023,0.016-0.047,0.032-0.07,0.047c-0.046,0.03-0.092,0.045-0.14,0.07c-0.047,0.024-0.089,0.073-0.14,0.093
			c-0.045,0.019-0.094,0.007-0.116,0.059h-0.117c-0.008,0.016-0.016,0.031-0.023,0.047h-0.164c-0.008,0.016-0.016,0.031-0.023,0.047
			h-0.233c-0.023,0.016-0.047,0.031-0.07,0.046h-0.606c-0.023-0.015-0.047-0.03-0.07-0.046h-0.233
			c-0.008-0.016-0.016-0.031-0.023-0.047h-0.164c-0.024-0.056-0.136-0.068-0.187-0.094c-0.07-0.035-0.143-0.06-0.21-0.104
			c-0.139-0.093-0.243-0.139-0.374-0.257c-0.271-0.246-0.435-0.516-0.583-0.816c-0.026-0.053-0.03-0.105-0.047-0.164
			c-0.008-0.027-0.039-0.038-0.046-0.069c-0.006-0.022,0.006-0.049,0-0.07c-0.008-0.027-0.039-0.038-0.047-0.07
			c-0.005-0.021,0.005-0.048,0-0.069c-0.014-0.058-0.047-0.072-0.047-0.141c0-0.024,0.009-0.07,0-0.093
			c-0.007-0.021-0.037-0.02-0.046-0.047c-0.015-0.039,0.006-0.098,0-0.14c-0.007-0.053-0.04-0.095-0.047-0.141
			c-0.007-0.044,0-0.095,0-0.14c0-0.112-0.023-0.195-0.023-0.304c0-0.018,0.006-0.053,0-0.069c-0.01-0.027-0.039-0.027-0.046-0.047
			c-0.013-0.035,0-0.103,0-0.14c0-0.195,0-0.39,0-0.584c0-0.777,0-1.556,0-2.333c0-0.778,0-1.556,0-2.333c0-0.195,0-0.39,0-0.584
			c0-0.072-0.038-0.097-0.047-0.163c-0.003-0.022,0.004-0.048,0-0.07c-0.006-0.036-0.013-0.033-0.023-0.058
			c-0.01-0.025-0.017-0.022-0.023-0.059c-0.004-0.022,0.006-0.049,0-0.07c-0.004-0.014-0.04-0.056-0.047-0.07
			c0-0.016,0-0.03,0-0.046c-0.008-0.004-0.016-0.008-0.023-0.012c-0.034-0.086-0.099-0.177-0.163-0.257
			c-0.068-0.085-0.168-0.177-0.257-0.257c-0.041-0.037-0.087-0.062-0.14-0.098c-0.032-0.021-0.069-0.057-0.116-0.077
			c-0.063-0.028-0.228-0.063-0.257-0.129H9.424c-0.016-0.016-0.031-0.03-0.047-0.046H9.214c-0.008-0.016-0.016-0.031-0.023-0.047
			H8.118c-0.016,0.016-0.031,0.031-0.047,0.047h-0.07c0,0.016,0,0.03,0,0.046c0,0.3,0,0.6,0,0.898c0,1.556,0,3.111,0,4.667
			c0,0.777,0,1.556,0,2.333c0,0.102,0,0.202,0,0.304c0,0.047,0,0.093,0,0.14c0,0.06,0.007,0.092,0.023,0.141
			c0.02,0.059,0.046,0.093,0.046,0.163c0,0.06,0.007,0.091,0.023,0.14c0.017,0.049,0.023,0.082,0.023,0.141
			c0,0.067,0.032,0.085,0.046,0.14c0.017,0.06-0.003,0.108,0.023,0.163c0.027,0.056,0.038,0.075,0.047,0.141
			c0.007,0.053,0.03,0.09,0.046,0.14c0.015,0.044,0.041,0.096,0.047,0.14c0,0.016,0,0.031,0,0.047
			c-0.007,0.021,0.001,0.032,0.023,0.035c0.006,0.015,0.015,0.036,0.023,0.059c0.009,0.024,0.015,0.045,0.023,0.069
			c0.003,0.01,0.018,0.06,0.023,0.07c0.008,0.017,0.042,0.054,0.047,0.07c0.006,0.021-0.008,0.05,0,0.069
			c0.001,0.005,0.042,0.04,0.046,0.047c0.014,0.022,0,0.033,0.023,0.059c0.008,0.016,0.016,0.031,0.023,0.047h0.023
			c0,0.016,0,0.031,0,0.046c0.026,0.058,0.056,0.13,0.093,0.176c0.036,0.043,0.038,0.088,0.07,0.14
			c0.016,0.008,0.031,0.016,0.047,0.023c0,0.016,0,0.031,0,0.047c0.019,0.034,0.049,0.062,0.07,0.093
			c0.038,0.057,0.078,0.105,0.117,0.164c0.155,0.231,0.354,0.45,0.583,0.642c0.111,0.093,0.218,0.158,0.327,0.256
			c0.09,0.082,0.19,0.131,0.303,0.199c0.114,0.068,0.233,0.129,0.35,0.194c0.054,0.029,0.105,0.04,0.163,0.062
			c0.038,0.015,0.123,0.041,0.14,0.082h0.117c0.008,0.016,0.016,0.031,0.023,0.047h0.117c0.014,0.029,0.042,0.054,0.07,0.069h0.117
			c0.008,0.016,0.016,0.031,0.023,0.047h0.14c0.016,0.016,0.031,0.031,0.047,0.047h0.187c0.008,0.016,0.016,0.031,0.023,0.047h0.233
			c0.028,0.017,0.055,0.04,0.07,0.069h2.24c0.02-0.04,0.055-0.051,0.093-0.069h0.21c0.008-0.016,0.016-0.031,0.023-0.047h0.21
			c0.008-0.016,0.016-0.031,0.023-0.047h0.14c0.016-0.016,0.031-0.031,0.047-0.047h0.093c0.031-0.022,0.063-0.046,0.093-0.069h0.117
			c0.008-0.016,0.016-0.031,0.023-0.047h0.117c0.018-0.042,0.04-0.026,0.07-0.047c0.029-0.019,0.045-0.029,0.07-0.041
			c0.061-0.027,0.123-0.039,0.187-0.063c0.063-0.025,0.127-0.074,0.187-0.109c0.054-0.031,0.11-0.062,0.164-0.093
			c0.12-0.07,0.242-0.151,0.35-0.241c0.05-0.042,0.106-0.07,0.163-0.117c0.053-0.043,0.102-0.101,0.14-0.14
			c0.097-0.098,0.171-0.164,0.256-0.257c0.105-0.114,0.193-0.231,0.28-0.35c0.02-0.027,0.056-0.047,0.07-0.07
			c0.019-0.03,0.021-0.063,0.047-0.094c0.035-0.041,0.067-0.085,0.093-0.14c0.032-0.067,0.08-0.121,0.117-0.187
			c0-0.016,0-0.031,0-0.047c0.016-0.008,0.031-0.016,0.046-0.023c0.002-0.005,0.001-0.053,0-0.059
			c0.016-0.015,0.031-0.03,0.047-0.046c0-0.016,0-0.031,0-0.047c0.008-0.016,0.016-0.031,0.023-0.047h0.023
			c0.034-0.036,0.012-0.063,0.023-0.104c0.006-0.022,0.037-0.05,0.047-0.07c0-0.016,0-0.031,0-0.047
			c0.013-0.025,0.035-0.046,0.047-0.07c0-0.015,0-0.03,0-0.046c0.015-0.016,0.031-0.031,0.046-0.047c0-0.016,0-0.031,0-0.047
			c0.008-0.023,0.016-0.049,0.023-0.07c0.021-0.01,0.029-0.025,0.023-0.046c0.007-0.028-0.01-0.066,0-0.094
			c0.007-0.02,0.037-0.02,0.046-0.047c0-0.016,0-0.031,0-0.047c0.005-0.037,0.008-0.062,0.023-0.093
			c0.022-0.046,0.039-0.04,0.047-0.094c0.003-0.022-0.003-0.047,0-0.069c0.007-0.053,0.039-0.084,0.046-0.141
			c0.008-0.056,0.007-0.091,0.023-0.14s0.023-0.081,0.023-0.14c0-0.072,0.038-0.102,0.046-0.164c0.007-0.044,0-0.095,0-0.14
			c0-0.038-0.013-0.105,0-0.14c0.008-0.021,0.037-0.021,0.047-0.047c0.006-0.018,0-0.052,0-0.07c0-0.101,0-0.202,0-0.303
			c0-0.109,0.047-0.178,0.047-0.28c0-0.194,0-0.389,0-0.584c0-0.777,0-1.555,0-2.333c0-1.552,0-3.104,0-4.655
			c0-0.016,0-0.03,0-0.046h-0.14C18.182,64.269,18.167,64.253,18.151,64.237z M37.868,60.422c0-0.02,0.005-0.051,0-0.069
			c-0.016-0.016-0.031-0.031-0.047-0.047c-0.006-0.021,0.004-0.048,0-0.07c-0.006-0.036-0.013-0.033-0.023-0.059
			c-0.022-0.002-0.03-0.014-0.023-0.034c0-0.008,0-0.016,0-0.023c0-0.016,0-0.031,0-0.047c0.001,0.004-0.049-0.049-0.047-0.047
			c0.006-0.021-0.002-0.036-0.023-0.047c-0.021-0.045-0.068-0.072-0.093-0.116c-0.01-0.02-0.013-0.041-0.023-0.059
			c-0.011-0.019-0.031-0.036-0.047-0.059c-0.03-0.041-0.053-0.076-0.093-0.116c-0.074-0.074-0.132-0.114-0.21-0.175
			c-0.066-0.052-0.124-0.089-0.21-0.137c-0.055-0.03-0.184-0.061-0.21-0.12h-0.117c-0.008-0.016-0.016-0.031-0.023-0.047h-0.187
			c-0.016-0.016-0.031-0.031-0.047-0.047h-0.374c-0.015,0.016-0.031,0.031-0.046,0.047h-0.187c-0.008,0.016-0.016,0.031-0.023,0.047
			h-0.117c-0.035,0.07-0.167,0.099-0.233,0.128c-0.081,0.036-0.133,0.089-0.21,0.141c-0.167,0.11-0.275,0.272-0.374,0.42
			c-0.029,0.044-0.064,0.097-0.093,0.14c-0.024,0.037-0.033,0.075-0.046,0.117c-0.008,0.023-0.017,0.049-0.023,0.069
			c-0.021,0.011-0.029,0.025-0.023,0.047c-0.005,0.021,0.006,0.049,0,0.07c-0.016,0.016-0.031,0.031-0.047,0.046
			c-0.021,0.072,0.019,0.161,0,0.233c-0.012,0.048-0.039,0.065-0.046,0.117c-0.005,0.037,0,0.079,0,0.116
			c0,0.067,0.032,0.086,0.046,0.141c0.009,0.033,0,0.082,0,0.116c0,0.093,0.02,0.153,0.047,0.233
			c0.054,0.163,0.126,0.321,0.233,0.455c0.117,0.146,0.249,0.295,0.42,0.408c0.076,0.051,0.15,0.101,0.233,0.141
			c0.056,0.026,0.185,0.045,0.21,0.104h0.187c0.008,0.016,0.016,0.031,0.023,0.047h0.513c0.008-0.016,0.016-0.031,0.023-0.047h0.187
			c0.03-0.068,0.171-0.075,0.233-0.104c0.045-0.021,0.096-0.067,0.14-0.094c0.039-0.023,0.079-0.045,0.117-0.07
			c0.096-0.063,0.174-0.15,0.257-0.233c0.039-0.038,0.067-0.077,0.093-0.116c0.028-0.042,0.071-0.072,0.093-0.117
			c0.021-0.041,0.04-0.104,0.07-0.14c-0.002,0.003,0.048-0.051,0.047-0.047c0-0.016,0-0.031,0-0.046
			c0.021-0.042,0.04-0.068,0.046-0.117c0.003-0.021-0.007-0.051,0-0.07c0.016-0.008,0.031-0.016,0.047-0.023
			c0.013-0.034,0-0.102,0-0.14c0-0.052,0.009-0.07,0.023-0.104c0.014-0.035,0.023-0.054,0.023-0.105c0-0.039,0-0.078,0-0.116
			c0-0.045,0.007-0.096,0-0.141c-0.006-0.045-0.04-0.071-0.046-0.116C37.862,60.502,37.868,60.46,37.868,60.422z M40.854,53.037
			h0.187c0-0.008,0-0.016,0-0.023h0.094c0.016-0.016,0.031-0.031,0.047-0.047h0.232c0.016-0.016,0.031-0.031,0.047-0.046h0.187
			c0.008-0.016,0.016-0.031,0.023-0.047h0.21c0.008-0.016,0.016-0.031,0.023-0.047h0.187c0.008-0.016,0.016-0.031,0.023-0.047h0.163
			c0.008-0.016,0.016-0.031,0.023-0.047h0.141c0.034-0.03,0.075-0.049,0.116-0.069h0.094c0.016-0.016,0.03-0.031,0.046-0.047h0.117
			c0.016-0.016,0.031-0.031,0.047-0.047h0.116c0.008-0.016,0.016-0.031,0.023-0.047h0.14c0.008-0.016,0.016-0.03,0.023-0.046h0.117
			c0.008-0.016,0.016-0.031,0.023-0.047h0.116c0.022-0.053,0.178-0.093,0.233-0.111c0.056-0.018,0.186-0.041,0.21-0.099h0.117
			c0-0.016,0-0.031,0-0.047h0.116c0-0.016,0-0.031,0-0.047h0.116c0.02-0.042,0.122-0.085,0.164-0.104
			c0.055-0.027,0.106-0.044,0.163-0.064c0.121-0.044,0.231-0.122,0.35-0.169c0.069-0.027,0.122-0.05,0.187-0.086
			c0.05-0.027,0.104-0.066,0.141-0.083c0.091-0.043,0.198-0.088,0.28-0.143c0.104-0.069,0.236-0.152,0.35-0.202
			c0.104-0.046,0.193-0.123,0.304-0.187c0.119-0.069,0.24-0.139,0.35-0.218c0.047-0.034,0.085-0.067,0.14-0.109
			c0.046-0.034,0.113-0.05,0.141-0.104h0.046c0.008-0.016,0.016-0.031,0.023-0.047h0.047c0.008-0.016,0.016-0.031,0.023-0.047h0.047
			c0-0.008,0-0.016,0-0.023h0.023c0.016-0.015,0.031-0.03,0.047-0.046h0.022c0.008-0.016,0.016-0.031,0.023-0.047h0.023
			c0.008-0.016,0.016-0.031,0.023-0.047h0.047c0.008-0.016,0.016-0.031,0.023-0.047h0.047c0.008-0.016,0.015-0.031,0.022-0.046
			h0.023c0.015-0.03,0.042-0.055,0.07-0.07h0.023c0.016-0.016,0.031-0.031,0.047-0.047s0.031-0.031,0.047-0.047h0.022
			c0.008-0.016,0.016-0.031,0.023-0.046h0.023c0.008-0.016,0.016-0.031,0.023-0.047h0.047c0.008-0.016,0.016-0.031,0.023-0.047
			h0.023c0.008-0.016,0.016-0.031,0.023-0.047h0.046c-0.004-0.034,0.014-0.057,0.047-0.07h0.023c0.008-0.015,0.016-0.03,0.023-0.046
			h0.023c0.008-0.016,0.016-0.031,0.023-0.047h0.047c0-0.016,0-0.031,0-0.047h0.046c-0.011-0.065,0.204-0.196,0.257-0.245
			c0.098-0.088,0.188-0.187,0.28-0.279c0.1-0.101,0.196-0.2,0.28-0.304c0.037-0.046,0.084-0.093,0.116-0.129
			c0.02-0.021,0.027-0.024,0.047-0.046c0.011-0.013,0.041-0.054,0.047-0.059c0.17-0.154,0.296-0.359,0.443-0.537
			c0.086-0.104,0.156-0.198,0.233-0.303c0.016-0.021,0.036-0.04,0.046-0.059c0.011-0.018,0.013-0.039,0.023-0.059
			c0.024-0.044,0.068-0.086,0.094-0.116c0.032-0.04,0.092-0.114,0.116-0.163c0.01-0.02,0.013-0.053,0.023-0.07
			c0.016-0.024,0.061-0.043,0.07-0.07c0.008-0.021-0.008-0.05,0-0.069c-0.002,0.004,0.049-0.05,0.047-0.047
			c0.024-0.03,0.073-0.101,0.093-0.141c0-0.016,0-0.03,0-0.046c0.016-0.016,0.031-0.031,0.047-0.047
			c0.01-0.021,0.013-0.048,0.023-0.07c0.01-0.021,0.04-0.048,0.047-0.07c0.005-0.021-0.008-0.049,0-0.069
			c0.007-0.021,0.036-0.02,0.046-0.047c0.008-0.021-0.006-0.049,0-0.07c0.006-0.021,0.041-0.049,0.047-0.069
			c0.006-0.021-0.003-0.049,0-0.07c0.009-0.061,0.038-0.106,0.047-0.163c0.007-0.045,0-0.096,0-0.141c0-0.093,0-0.187,0-0.279
			c0-0.068-0.032-0.083-0.047-0.141c-0.011-0.044,0.012-0.097,0-0.14c-0.006-0.021-0.041-0.049-0.047-0.07s0.007-0.048,0-0.069
			c-0.004-0.016-0.039-0.056-0.046-0.07c-0.014-0.026,0.002-0.031-0.023-0.059h-0.07c-0.052,0.094-0.119,0.139-0.187,0.222
			c-0.065,0.08-0.145,0.172-0.21,0.245c-0.115,0.128-0.273,0.284-0.42,0.432c-0.31,0.31-0.565,0.565-0.91,0.84
			c-0.015,0.012-0.044,0.051-0.07,0.07c-0.024,0.018-0.046,0.04-0.069,0.059c-0.046,0.034-0.083,0.062-0.117,0.093
			c-0.081,0.074-0.183,0.15-0.257,0.21c-0.092,0.075-0.178,0.146-0.279,0.222c-0.089,0.066-0.195,0.117-0.28,0.187
			c-0.178,0.146-0.337,0.254-0.514,0.351c-0.094,0.051-0.205,0.144-0.28,0.194c-0.083,0.057-0.189,0.093-0.256,0.147
			c-0.093,0.075-0.195,0.124-0.304,0.171c-0.097,0.043-0.187,0.114-0.28,0.164c-0.101,0.053-0.2,0.123-0.303,0.163
			c-0.092,0.036-0.164,0.057-0.257,0.108c-0.188,0.104-0.383,0.187-0.583,0.259c-0.103,0.037-0.2,0.089-0.304,0.135
			c-0.063,0.028-0.229,0.052-0.257,0.116h-0.116c-0.008,0.016-0.016,0.031-0.023,0.047h-0.117c-0.008,0.016-0.016,0.031-0.023,0.047
			h-0.116c-0.008,0.016-0.016,0.031-0.023,0.046h-0.116c-0.015,0.03-0.042,0.055-0.07,0.07h-0.117
			c-0.016,0.016-0.03,0.031-0.046,0.047h-0.117c-0.008,0.016-0.016,0.031-0.023,0.047h-0.14c-0.016,0.016-0.031,0.031-0.047,0.047
			h-0.14c0,0.015,0,0.03,0,0.046h-0.163c-0.016,0.016-0.031,0.031-0.047,0.047h-0.164c-0.008,0.016-0.015,0.031-0.022,0.047h-0.141
			c-0.047,0.023-0.093,0.047-0.14,0.07h-0.164c-0.016,0.015-0.031,0.03-0.046,0.046h-0.21c-0.008,0.016-0.016,0.031-0.023,0.047
			h-0.233c-0.016,0.016-0.031,0.031-0.047,0.047h-0.279c-0.008,0.016-0.016,0.031-0.023,0.047h-0.304
			c-0.023,0.016-0.047,0.031-0.07,0.046h-0.35c0,0.008,0,0.016,0,0.023h-0.14c-0.016,0.016-0.031,0.031-0.047,0.047h-0.677
			c-0.008,0.016-0.016,0.031-0.023,0.047h-1.47c-0.016-0.016-0.031-0.031-0.046-0.047h-0.7c-0.023-0.016-0.047-0.031-0.07-0.047
			h-0.117c0-0.008,0-0.016,0-0.023h-0.35c-0.023-0.015-0.047-0.03-0.07-0.046h-0.327c-0.008-0.016-0.016-0.031-0.023-0.047h-0.303
			c-0.016-0.016-0.031-0.031-0.047-0.047h-0.257c-0.008-0.016-0.016-0.031-0.023-0.047h-0.233c-0.016-0.016-0.031-0.031-0.047-0.046
			h-0.187c-0.04-0.038-0.09-0.052-0.14-0.07h-0.14c-0.015-0.016-0.031-0.031-0.046-0.047h-0.187
			c-0.008-0.016-0.016-0.031-0.023-0.047h-0.187c-0.007-0.016-0.015-0.031-0.023-0.046h-0.164c-0.008-0.016-0.016-0.031-0.023-0.047
			h-0.163c-0.008-0.016-0.016-0.031-0.023-0.047h-0.163c-0.008-0.016-0.016-0.031-0.023-0.047h-0.117
			c-0.038-0.019-0.074-0.029-0.093-0.07h-0.14c-0.008-0.015-0.016-0.03-0.023-0.046h-0.14c-0.008-0.016-0.016-0.031-0.023-0.047
			h-0.117c-0.008-0.016-0.016-0.031-0.023-0.047h-0.14c-0.026-0.062-0.172-0.079-0.233-0.099c-0.056-0.019-0.21-0.058-0.233-0.111
			h-0.116c0-0.016,0-0.031,0-0.047h-0.117c-0.029-0.065-0.112-0.027-0.14-0.093h-0.117c-0.028-0.063-0.217-0.124-0.28-0.152
			c-0.094-0.041-0.188-0.068-0.28-0.11c-0.037-0.017-0.089-0.055-0.14-0.076c-0.047-0.02-0.094-0.035-0.14-0.059
			c-0.05-0.024-0.093-0.053-0.14-0.081c-0.037-0.022-0.098-0.039-0.117-0.082h-0.164c0.009,0.055-0.034,0.025-0.046,0.059
			c-0.006,0.017,0,0.052,0,0.07c0,0.054,0,0.108,0,0.163c0,0.044,0.016,0.122,0,0.163c-0.009,0.022-0.037,0.016-0.047,0.047
			c-0.003,0.012,0,0.046,0,0.059c0,0.031,0,0.062,0,0.093h0.023c0,0.016,0,0.031,0,0.047c0.044,0.048,0.023,0.148,0.023,0.21
			c0,0.016,0,0.031,0,0.047s0,0.031,0,0.047s0,0.031,0,0.046c0,0.023,0,0.047,0,0.07c0,0.016,0,0.031,0,0.047s0,0.031,0,0.047
			s0,0.031,0,0.047c0,0.015,0,0.03,0,0.046s0,0.031,0,0.047c0.008,0.016,0.016,0.031,0.023,0.047c-0.025,0.021-0.028,0.047,0,0.07
			c0.008,0.015,0.016,0.03,0.023,0.046c0,0.016,0,0.031,0,0.047s0,0.031,0,0.047s0,0.031,0,0.047s0,0.031,0,0.046
			c0,0.008,0,0.016,0,0.023c0,0.016,0,0.031,0,0.047s0,0.031,0,0.047h0.023c0,0.075,0.023,0.122,0.023,0.198
			c0,0.069,0.003,0.126,0.023,0.187c0.014,0.042,0.016,0.067,0.023,0.117c0.005,0.038,0.01,0.059,0.023,0.093
			c0,0.016,0,0.031,0,0.047c0.016,0.008,0.031,0.016,0.047,0.023c0.009,0.023,0,0.068,0,0.093c0,0.021-0.005,0.052,0,0.07
			c0.016,0.016,0.031,0.031,0.047,0.047c0.008,0.028-0.007,0.064,0,0.093c0.009,0.039,0.037,0.056,0.046,0.094
			c0.009,0.036,0.013,0.062,0.023,0.094c0.021,0.01,0.029,0.025,0.023,0.046c0,0.016,0,0.031,0,0.047
			c0.016,0.008,0.031,0.016,0.046,0.023c0,0.016,0,0.031,0,0.047c0.042,0.062,0.132,0.088,0.164,0.151h0.046
			c0,0.016,0,0.031,0,0.047h0.07c0.008,0.016,0.016,0.031,0.023,0.047h0.07c-0.014,0.073,0.313,0.127,0.35,0.21h0.117
			c0.008,0.016,0.016,0.031,0.023,0.047h0.094c0.007,0.016,0.015,0.03,0.023,0.046h0.117c0.016,0.016,0.031,0.031,0.047,0.047h0.117
			c0.008,0.016,0.016,0.031,0.023,0.047h0.14c0.016,0.016,0.031,0.031,0.047,0.047h0.117c0.038,0.019,0.073,0.029,0.093,0.069h0.14
			c0.015,0.016,0.031,0.031,0.046,0.047h0.164c0.008,0.016,0.016,0.031,0.023,0.047h0.21c0.008,0.016,0.015,0.031,0.023,0.047h0.21
			c0.008,0.016,0.016,0.031,0.023,0.047h0.233c0.008,0.015,0.016,0.03,0.023,0.046h0.257c0.008,0.016,0.015,0.031,0.023,0.047h0.117
			c0,0.008,0,0.016,0,0.023h0.233c0.016,0.016,0.031,0.031,0.047,0.047h0.303c0.016,0.016,0.031,0.031,0.047,0.047h0.373
			c0.016,0.016,0.031,0.03,0.047,0.046h0.466c0.016,0.016,0.031,0.031,0.047,0.047h0.747c0.016,0.016,0.031,0.031,0.047,0.047h1.937
			c0.008-0.016,0.016-0.031,0.023-0.047h0.77c0.016-0.016,0.031-0.031,0.046-0.047h0.443c0.023-0.016,0.047-0.03,0.07-0.046h0.351
			c0.022-0.016,0.046-0.031,0.069-0.047h0.28C40.808,53.068,40.831,53.053,40.854,53.037z M26.084,39.819
			c0,0.082-0.013,0.176,0,0.257c0.006,0.037,0.041,0.102,0.046,0.139s0,0.08,0,0.117c0,0.103,0.034,0.165,0.047,0.257
			c0.008,0.058,0.004,0.09,0.023,0.141c0.008,0.021,0.018,0.043,0.023,0.058c0.023,0.003,0.03,0.015,0.023,0.035
			c0.015,0.04-0.006,0.098,0,0.14c0.007,0.045,0.04,0.072,0.047,0.117c0.008,0.056,0.007,0.092,0.023,0.14
			c0.014,0.042,0.017,0.069,0.023,0.116c0.008,0.059,0.039,0.082,0.047,0.141c0.003,0.021-0.006,0.049,0,0.07
			c0.016,0.016,0.031,0.031,0.047,0.047c0.008,0.028-0.008,0.063,0,0.093c0.008,0.031,0.039,0.042,0.046,0.069
			c0.013,0.045,0,0.103,0.023,0.141c0.011,0.018,0.036,0.029,0.046,0.047c0.001,0.002,0.023,0.069,0.023,0.069
			c0.015,0.046,0.032,0.096,0.047,0.141c0.01,0.031,0.014,0.059,0.023,0.093c0.005,0.021,0.041,0.049,0.046,0.07s-0.008,0.05,0,0.07
			c0.002,0.005,0.042,0.039,0.047,0.047c0.001,0.002,0.023,0.069,0.023,0.069c0.003,0.009,0.019,0.061,0.023,0.07
			c0.022,0.044,0.045,0.1,0.07,0.14c0.015,0.024,0.032,0.046,0.046,0.07c0.001,0.002,0.023,0.069,0.023,0.07
			c0,0,0.022,0.067,0.023,0.069c0.005,0.008,0.044,0.042,0.046,0.047c0.008,0.021-0.008,0.05,0,0.07
			c0.002,0.005,0.042,0.039,0.047,0.047c0.007,0.012,0.016,0.055,0.023,0.069c0.008,0.018,0.038,0.057,0.046,0.07
			c0.037,0.055,0.065,0.106,0.093,0.163c0.012,0.023,0.036,0.049,0.047,0.07s0.012,0.039,0.023,0.059s0.033,0.032,0.046,0.058
			c0.011,0.021,0.014,0.055,0.023,0.07c0.011,0.018,0.036,0.029,0.047,0.047c0.01,0.017,0.013,0.053,0.023,0.069
			c0.018,0.029,0.051,0.035,0.07,0.07c0.01,0.019,0.013,0.053,0.023,0.07c0.004,0.007,0.042,0.042,0.046,0.047
			c0.023,0.026,0.027,0.04,0.047,0.069c0.027,0.04,0.066,0.101,0.093,0.141c0.031,0.047,0.076,0.091,0.117,0.14
			c0.071,0.086,0.117,0.196,0.187,0.28c0.039,0.046,0.084,0.099,0.117,0.14c0.011,0.015,0.038,0.037,0.047,0.047
			c0.018,0.021,0.034,0.055,0.046,0.07c0.167,0.201,0.345,0.352,0.514,0.56c0.077,0.095,0.158,0.161,0.256,0.257
			c-0.007,0.021,0.001,0.032,0.023,0.035c0.008,0.004,0.016,0.008,0.023,0.012c0.023,0.023,0.046,0.046,0.07,0.069
			c0.046,0.046,0.09,0.1,0.14,0.141c0.187,0.152,0.341,0.287,0.537,0.443c0.013,0.01,0.046,0.05,0.07,0.069
			c0.015,0.013,0.041,0.042,0.047,0.047c0.043,0.035,0.096,0.058,0.14,0.094c0.047,0.038,0.093,0.077,0.14,0.116
			c0.044,0.037,0.066,0.04,0.117,0.07c0.009,0.005,0.048,0.056,0.07,0.069c0.023,0.016,0.047,0.032,0.07,0.047
			c0.047,0.031,0.093,0.063,0.14,0.094c0.093,0.062,0.187,0.124,0.28,0.187c0.094,0.063,0.202,0.142,0.28,0.194
			c0.088,0.06,0.19,0.096,0.28,0.155c0.189,0.127,0.388,0.226,0.583,0.335c0.184,0.102,0.366,0.203,0.537,0.267
			c0.202,0.075,0.365,0.186,0.56,0.256c0.102,0.037,0.202,0.092,0.303,0.129c0.051,0.019,0.093,0.044,0.14,0.064
			c0.045,0.02,0.094,0.005,0.117,0.058h0.116c0,0.016,0,0.031,0,0.047h0.117c0.008,0.016,0.016,0.031,0.023,0.047h0.117
			c0.008,0.016,0.016,0.031,0.023,0.047h0.117c0.008,0.016,0.016,0.031,0.023,0.046h0.117c0.031,0.023,0.062,0.047,0.093,0.07h0.093
			c0.008,0.016,0.016,0.031,0.023,0.047h0.14c0.008,0.016,0.016,0.031,0.023,0.047h0.14c0.008,0.016,0.016,0.031,0.023,0.046h0.163
			c0.008,0.016,0.016,0.031,0.023,0.047h0.14c0.016,0.016,0.031,0.031,0.046,0.047h0.14c0.016,0.016,0.031,0.031,0.047,0.047h0.14
			c0.039,0.019,0.074,0.029,0.093,0.07h0.21c0.007,0.015,0.015,0.03,0.023,0.046h0.21c0.008,0.016,0.016,0.031,0.023,0.047h0.233
			c0.008,0.016,0.016,0.031,0.023,0.047h0.28c0.008,0.016,0.016,0.031,0.023,0.047h0.327c0.016,0.016,0.031,0.031,0.047,0.046h0.373
			c0.023,0.016,0.047,0.031,0.07,0.047h0.14c0,0.008,0,0.016,0,0.023h0.677c0,0.008,0,0.016,0,0.023h0.77c0-0.008,0-0.016,0-0.023
			h0.63c0-0.008,0-0.016,0-0.023h0.164c0.008-0.016,0.016-0.031,0.023-0.047h0.443c0.016-0.015,0.031-0.03,0.047-0.046h0.327
			c0.023-0.016,0.047-0.031,0.069-0.047h0.28c0.008-0.016,0.016-0.031,0.023-0.047h0.256c0.008-0.016,0.016-0.031,0.023-0.047h0.234
			c0.008-0.016,0.016-0.031,0.023-0.046h0.21c0.035-0.031,0.074-0.05,0.116-0.07h0.14c0.016-0.016,0.031-0.031,0.047-0.047h0.14
			c0.016-0.016,0.031-0.031,0.047-0.047h0.163c0.008-0.016,0.016-0.031,0.023-0.047h0.164c0.008-0.015,0.016-0.03,0.023-0.046h0.14
			c0.008-0.016,0.016-0.031,0.023-0.047h0.14c0.008-0.016,0.016-0.031,0.023-0.047h0.116c0.028-0.017,0.056-0.04,0.07-0.07h0.14
			c0.008-0.015,0.016-0.03,0.023-0.046h0.117c0.008-0.016,0.016-0.031,0.023-0.047h0.116c0.008-0.016,0.016-0.031,0.023-0.047h0.094
			c0.008-0.016,0.016-0.031,0.023-0.047h0.116c0.022-0.053,0.071-0.038,0.117-0.058c0.036-0.017,0.077-0.045,0.116-0.063
			c0.074-0.034,0.156-0.059,0.233-0.094c0.167-0.075,0.302-0.125,0.467-0.206c0.164-0.08,0.32-0.146,0.467-0.233
			c0.16-0.096,0.32-0.186,0.489-0.268c0.159-0.077,0.323-0.207,0.443-0.288c0.16-0.107,0.328-0.211,0.49-0.319
			c0.313-0.209,0.627-0.495,0.91-0.723c0.106-0.087,0.206-0.183,0.304-0.28c0.046-0.047,0.094-0.093,0.14-0.14
			c0.015-0.015,0.038-0.038,0.047-0.047c0.015-0.016,0.037-0.038,0.047-0.047c0.138-0.138,0.317-0.301,0.466-0.467
			c0.17-0.189,0.325-0.36,0.49-0.56c0.037-0.045,0.083-0.113,0.117-0.164c0.033-0.05,0.075-0.089,0.116-0.14
			c0.073-0.091,0.146-0.183,0.21-0.28c0.063-0.095,0.12-0.18,0.187-0.279c0.031-0.047,0.07-0.087,0.094-0.129
			c0.019-0.032,0.043-0.096,0.07-0.128c0.083-0.101,0.14-0.198,0.21-0.304c0.025-0.038,0.05-0.093,0.069-0.128
			c0.022-0.039,0.049-0.084,0.07-0.129c0.031-0.063,0.075-0.103,0.116-0.163c0-0.016,0-0.031,0-0.047
			c0.008-0.004,0.016-0.008,0.023-0.012c0.022-0.002,0.03-0.014,0.023-0.035c0-0.007,0-0.015,0-0.022
			c0.004-0.006,0.046-0.044,0.047-0.047c0.008-0.021-0.006-0.049,0-0.07c0.002-0.008,0.042-0.063,0.047-0.07
			c0.015-0.022,0.034-0.052,0.047-0.069c0.062-0.094,0.114-0.202,0.163-0.304c0.043-0.09,0.072-0.19,0.116-0.28
			c0.016-0.015,0.031-0.03,0.047-0.046c0-0.016,0-0.031,0-0.047c0.012-0.023,0.035-0.049,0.047-0.07c0-0.016,0-0.031,0-0.047
			c0.008-0.004,0.016-0.008,0.023-0.012c0.022-0.002,0.03-0.014,0.023-0.035c0-0.008,0-0.016,0-0.023
			c0.007-0.014,0.042-0.055,0.046-0.069c0.007-0.021-0.007-0.05,0-0.069c0.01-0.027,0.039-0.027,0.047-0.047
			c0.008-0.021-0.006-0.049,0-0.07c0.016-0.016,0.031-0.031,0.047-0.047c0-0.016,0-0.031,0-0.047
			c0.008-0.023,0.013-0.049,0.023-0.07c0.022-0.047,0.054-0.09,0.07-0.139c0.006-0.02,0.016-0.05,0.022-0.07
			c0.009-0.023,0.018-0.043,0.023-0.059c0.022-0.003,0.03-0.014,0.023-0.035c0-0.008,0-0.016,0-0.023
			c0.008-0.014,0.043-0.056,0.047-0.07c0.008-0.028-0.007-0.064,0-0.093c0.008-0.031,0.039-0.042,0.047-0.07
			c0.006-0.021-0.008-0.05,0-0.069c0.01-0.027,0.039-0.027,0.047-0.047c0.007-0.02-0.003-0.05,0-0.07
			c0.005-0.038,0.012-0.037,0.023-0.07c0.011-0.033,0.018-0.031,0.022-0.07c0.003-0.02-0.007-0.051,0-0.069
			c0.016-0.008,0.031-0.016,0.047-0.023c0-0.016,0-0.031,0-0.047c0.014-0.035,0.018-0.029,0.023-0.07
			c0.003-0.02-0.007-0.051,0-0.069c0.008-0.021,0.037-0.02,0.047-0.047c0.007-0.021-0.006-0.049,0-0.069
			c0.008-0.032,0.039-0.043,0.047-0.07c0.012-0.042-0.016-0.099,0-0.14c0.012-0.034,0.034-0.036,0.046-0.07
			c0.007-0.017,0-0.052,0-0.07c0-0.067,0.032-0.085,0.047-0.14c0.012-0.043-0.006-0.096,0-0.14c0.008-0.052,0.039-0.084,0.047-0.14
			c0.007-0.052-0.013-0.112,0-0.163c0.008-0.032,0.039-0.042,0.047-0.07c0.006-0.021-0.004-0.048,0-0.07
			c0.007-0.049,0.023-0.083,0.023-0.14c0-0.045-0.007-0.096,0-0.14c0.015-0.101,0.046-0.192,0.046-0.303c0-0.046,0-0.093,0-0.14
			c0-0.058,0.017-0.091,0.023-0.14c0.027-0.184,0.023-0.376,0.023-0.572c0-0.016,0-0.031,0-0.047c0-0.032-0.008-0.074,0-0.105
			c0.012-0.047,0.04-0.064,0.047-0.117c0.01-0.067,0-0.142,0-0.21c0-0.147,0-0.295,0-0.443c0-0.288,0-0.575,0-0.863
			c0-0.052,0.009-0.112,0-0.163c-0.01-0.059-0.036-0.058-0.047-0.117c-0.015-0.087,0-0.191,0-0.28c0-0.054,0-0.109,0-0.163
			c0-0.058-0.016-0.091-0.023-0.14c-0.014-0.094-0.023-0.177-0.023-0.28c0-0.053,0.008-0.112,0-0.164
			c-0.006-0.044-0.039-0.098-0.046-0.14c-0.008-0.044,0-0.096,0-0.14c0-0.022,0.003-0.048,0-0.07
			c-0.004-0.026-0.021-0.052-0.023-0.07c-0.007-0.042-0.012-0.057-0.023-0.093c-0.011-0.033-0.019-0.032-0.023-0.07
			c-0.006-0.045,0-0.095,0-0.14c0-0.021,0.005-0.05,0-0.07c-0.008-0.032-0.039-0.042-0.047-0.07c-0.011-0.039,0-0.099,0-0.14
			c0-0.027,0.008-0.067,0-0.093c-0.008-0.027-0.039-0.039-0.047-0.07c-0.011-0.043,0.007-0.095,0-0.14
			c-0.007-0.052-0.038-0.084-0.046-0.14c-0.007-0.044,0.012-0.097,0-0.14c-0.01-0.035-0.041-0.054-0.047-0.093
			c-0.003-0.022,0-0.048,0-0.07c0-0.071-0.028-0.065-0.047-0.117c-0.015-0.041,0.012-0.097,0-0.14
			c-0.014-0.05-0.062-0.086-0.07-0.14c-0.016-0.107-0.036-0.204-0.069-0.303c-0.016-0.047-0.011-0.089-0.023-0.14
			c-0.008-0.031-0.039-0.042-0.047-0.07c-0.006-0.021,0.003-0.048,0-0.07c-0.007-0.048-0.035-0.054-0.047-0.093
			c-0.006-0.021,0.003-0.048,0-0.07c-0.007-0.054-0.029-0.09-0.047-0.14c-0.011-0.032-0.008-0.038-0.022-0.07
			c-0.01-0.02-0.041-0.051-0.047-0.07c-0.006-0.021,0.002-0.037,0.023-0.046c-0.008-0.008-0.016-0.016-0.023-0.023
			c-0.008-0.031-0.015-0.037-0.023-0.059c-0.022-0.002-0.03-0.014-0.023-0.035c0-0.016,0-0.031,0-0.047
			c-0.006-0.037-0.014-0.033-0.023-0.058s-0.017-0.022-0.023-0.059c-0.004-0.022,0.006-0.048,0-0.07
			c-0.004-0.016-0.039-0.054-0.047-0.07c-0.005-0.011-0.02-0.061-0.022-0.07c-0.016-0.045-0.032-0.095-0.047-0.14
			c-0.011-0.032-0.015-0.057-0.023-0.093c-0.009-0.036-0.03-0.037-0.047-0.07c-0.01-0.02-0.014-0.049-0.023-0.07
			c-0.008-0.018-0.042-0.053-0.047-0.07c-0.006-0.021,0.008-0.049,0-0.07c-0.01-0.027-0.039-0.027-0.046-0.047
			c-0.008-0.02,0.005-0.049,0-0.07c-0.009-0.031-0.039-0.042-0.047-0.07c-0.01-0.034-0.014-0.063-0.023-0.094
			c0,0-0.022-0.068-0.023-0.07c-0.005-0.008-0.045-0.042-0.047-0.047c-0.008-0.02,0.006-0.049,0-0.07
			c-0.009-0.036-0.03-0.038-0.047-0.07c-0.011-0.023-0.013-0.048-0.022-0.07c-0.022-0.045-0.055-0.092-0.07-0.14
			c-0.02-0.058-0.051-0.104-0.07-0.164c-0.008-0.025-0.015-0.044-0.023-0.07c-0.002-0.008-0.019-0.061-0.023-0.07
			c-0.012-0.023-0.035-0.048-0.046-0.07c-0.012-0.021-0.013-0.039-0.023-0.058c-0.02-0.035-0.056-0.082-0.07-0.117
			c-0.018-0.044-0.044-0.089-0.07-0.128c0-0.016,0-0.031,0-0.047c-0.008-0.004-0.016-0.008-0.023-0.012
			c-0.022-0.002-0.03-0.014-0.022-0.035c0-0.008,0-0.016,0-0.023c-0.048-0.09-0.084-0.195-0.141-0.28
			c-0.036-0.055-0.065-0.107-0.093-0.164c-0.014-0.027-0.034-0.043-0.047-0.07c-0.011-0.022-0.014-0.05-0.023-0.07
			c-0.012-0.023-0.035-0.048-0.047-0.07c0-0.016,0-0.031,0-0.047c-0.008-0.004-0.016-0.008-0.023-0.012
			c-0.018-0.044-0.063-0.079-0.093-0.128c-0.018-0.029-0.026-0.063-0.047-0.094c-0.011-0.015-0.035-0.05-0.047-0.07
			c0-0.016,0-0.031,0-0.047c-0.008-0.003-0.016-0.007-0.023-0.011c-0.022-0.003-0.03-0.014-0.023-0.035c0-0.008,0-0.016,0-0.023
			c-0.025-0.046-0.065-0.099-0.093-0.14c-0.027-0.041-0.046-0.099-0.07-0.14c-0.019-0.031-0.053-0.068-0.07-0.093
			c-0.019-0.029-0.026-0.041-0.046-0.07c-0.03-0.045-0.044-0.096-0.07-0.14c-0.005-0.008-0.042-0.041-0.047-0.046
			c-0.009-0.011-0.035-0.052-0.047-0.07c-0.026-0.041-0.045-0.1-0.069-0.14c-0.018-0.029-0.051-0.035-0.07-0.07
			c-0.01-0.019-0.013-0.053-0.023-0.07c-0.005-0.007-0.043-0.042-0.047-0.046c-0.022-0.027-0.026-0.041-0.046-0.07
			c-0.062-0.092-0.125-0.186-0.188-0.28c-0.127-0.19-0.256-0.396-0.396-0.572c-0.035-0.044-0.054-0.104-0.093-0.152
			c-0.042-0.051-0.083-0.089-0.117-0.14c-0.028-0.043-0.087-0.091-0.116-0.14c-0.026-0.043-0.04-0.09-0.07-0.128
			c-0.138-0.171-0.275-0.343-0.396-0.525c-0.136-0.203-0.309-0.381-0.443-0.583c-0.069-0.103-0.156-0.209-0.233-0.303
			c-0.021-0.025-0.047-0.048-0.07-0.07c-0.003-0.003-0.04-0.039-0.047-0.047c-0.032-0.042-0.054-0.095-0.093-0.14
			c-0.068-0.079-0.139-0.194-0.21-0.28c-0.073-0.088-0.14-0.189-0.21-0.257c-0.092-0.088-0.166-0.202-0.233-0.303
			c-0.063-0.094-0.154-0.167-0.21-0.268h-0.023c0-0.008,0-0.016,0-0.023c-0.008-0.016-0.016-0.031-0.023-0.047h-0.023
			c-0.026-0.048-0.065-0.086-0.093-0.128c-0.029-0.042-0.063-0.102-0.094-0.14c-0.011-0.015-0.038-0.037-0.047-0.047
			c-0.018-0.021-0.034-0.055-0.047-0.07c-0.03-0.037-0.067-0.086-0.093-0.117c-0.072-0.087-0.128-0.154-0.187-0.233
			c-0.032-0.043-0.063-0.09-0.094-0.128c-0.023-0.029-0.07-0.065-0.093-0.105c-0.032-0.053-0.05-0.086-0.094-0.14
			c-0.034-0.042-0.063-0.072-0.094-0.117c-0.057-0.085-0.094-0.148-0.163-0.233c-0.036-0.045-0.061-0.101-0.093-0.14
			c-0.02-0.023-0.053-0.055-0.07-0.082c-0.047-0.072-0.107-0.168-0.163-0.245c-0.064-0.088-0.124-0.171-0.187-0.257
			c-0.066-0.09-0.112-0.193-0.188-0.28c-0.032-0.038-0.045-0.086-0.069-0.128c-0.012-0.02-0.033-0.033-0.047-0.059
			c-0.011-0.02-0.014-0.054-0.023-0.07c-0.004-0.007-0.043-0.043-0.047-0.047c-0.021-0.025-0.032-0.048-0.047-0.07
			c-0.028-0.043-0.063-0.096-0.093-0.14c-0.032-0.048-0.075-0.107-0.094-0.163c-0.014-0.041-0.044-0.107-0.069-0.14
			c-0.018-0.022-0.033-0.025-0.047-0.047c0-0.015,0-0.031,0-0.046c-0.008-0.004-0.016-0.008-0.023-0.012
			c-0.015-0.036-0.051-0.083-0.07-0.117c-0.051-0.089-0.112-0.194-0.163-0.292c0-0.016,0-0.031,0-0.047
			c-0.008-0.004-0.016-0.008-0.023-0.012c-0.022-0.002-0.03-0.014-0.023-0.035c0-0.008,0-0.016,0-0.023
			c-0.003-0.005-0.045-0.044-0.047-0.047c-0.008-0.021,0.008-0.049,0-0.07c-0.016-0.008-0.03-0.016-0.046-0.023
			c0-0.016,0-0.031,0-0.046c-0.012-0.021-0.036-0.047-0.047-0.07c-0.022-0.047-0.048-0.093-0.07-0.14
			c-0.01-0.022-0.016-0.047-0.023-0.07c0-0.001-0.021-0.067-0.023-0.07c-0.011-0.018-0.035-0.029-0.046-0.047
			c-0.002-0.002-0.023-0.069-0.023-0.07c-0.008-0.022-0.012-0.074-0.023-0.093c-0.005-0.008-0.045-0.042-0.047-0.047
			c-0.008-0.021,0.006-0.049,0-0.07c-0.002-0.008-0.042-0.063-0.047-0.07c-0.056-0.084-0.085-0.185-0.116-0.28
			c0-0.016,0-0.031,0-0.047c-0.016-0.015-0.031-0.031-0.047-0.046c-0.006-0.021,0.006-0.048,0-0.07
			c-0.008-0.027-0.039-0.039-0.047-0.07c-0.005-0.022,0.007-0.048,0-0.07c-0.008-0.028-0.038-0.039-0.047-0.07
			c-0.005-0.021,0.007-0.048,0-0.07c-0.008-0.028-0.038-0.039-0.046-0.07c-0.006-0.022,0.005-0.048,0-0.07
			c-0.009-0.034-0.032-0.063-0.047-0.093c-0.015-0.032-0.013-0.038-0.023-0.07c-0.017-0.05-0.039-0.087-0.047-0.14
			c-0.003-0.021,0.007-0.051,0-0.07c-0.01-0.027-0.039-0.027-0.047-0.047c-0.015-0.041,0.016-0.099,0-0.14
			c-0.012-0.034-0.034-0.036-0.047-0.07c-0.006-0.017,0-0.052,0-0.07c0-0.021,0.006-0.05,0-0.07
			c-0.008-0.031-0.038-0.042-0.046-0.07c-0.013-0.042,0.006-0.096,0-0.14c-0.009-0.058-0.038-0.082-0.047-0.14
			c-0.007-0.053,0.009-0.11,0-0.163c-0.007-0.046-0.039-0.088-0.047-0.14c-0.014-0.097,0.001-0.186-0.022-0.28
			c-0.01-0.038-0.037-0.055-0.047-0.093c-0.006-0.02,0-0.05,0-0.07c0-0.046,0-0.093,0-0.14c0-0.093,0-0.187,0-0.28
			c0-0.118-0.047-0.185-0.047-0.303c0-0.09-0.013-0.191,0-0.28c0.009-0.063,0.037-0.1,0.047-0.163c0.006-0.044,0-0.095,0-0.14
			c0-0.093,0-0.187,0-0.28c0-0.048-0.014-0.117,0-0.164c0.006-0.021,0.041-0.048,0.047-0.07s-0.004-0.048,0-0.07
			c0.006-0.049,0.022-0.083,0.022-0.14c0-0.045-0.007-0.096,0-0.14c0.009-0.057,0.038-0.103,0.047-0.163
			c0.007-0.046-0.007-0.094,0-0.14c0.008-0.051,0.037-0.085,0.047-0.14c0.007-0.044-0.012-0.097,0-0.14
			c0.009-0.035,0.04-0.054,0.046-0.093c0.004-0.022,0-0.047,0-0.07c0-0.068,0.033-0.083,0.047-0.14c0.006-0.021-0.003-0.048,0-0.07
			c0.006-0.038,0.013-0.037,0.023-0.07c0.016-0.045,0.023-0.074,0.023-0.128h-0.117c-0.047,0.087-0.142,0.177-0.209,0.245
			c-0.08,0.079-0.132,0.155-0.21,0.233c-0.086,0.086-0.158,0.165-0.234,0.257c-0.059,0.072-0.135,0.156-0.186,0.233
			c-0.029,0.042-0.063,0.102-0.094,0.14c-0.012,0.015-0.037,0.036-0.047,0.046c-0.021,0.01-0.029,0.026-0.023,0.047
			c-0.023,0.04-0.07,0.082-0.094,0.117c-0.029,0.044-0.058,0.076-0.093,0.117c-0.029,0.034-0.046,0.071-0.069,0.117
			c-0.021,0.039-0.051,0.06-0.07,0.093c-0.008,0.012-0.017,0.055-0.023,0.07c-0.016,0.016-0.031,0.031-0.047,0.047
			c-0.019,0.022-0.057,0.081-0.07,0.105c-0.017,0.03-0.01,0.045-0.023,0.082c-0.002,0.005-0.041,0.039-0.046,0.047
			c-0.007,0.011-0.017,0.056-0.023,0.07c-0.013,0.027-0.034,0.043-0.047,0.07c-0.044,0.094-0.095,0.188-0.14,0.28
			c-0.018,0.034-0.033,0.058-0.047,0.093c-0.008,0.022-0.018,0.043-0.023,0.058c-0.022,0.003-0.03,0.014-0.023,0.035
			c0,0.008,0,0.016,0,0.023c-0.008,0.014-0.043,0.056-0.047,0.07c-0.006,0.021,0.006,0.048,0,0.07s-0.041,0.049-0.047,0.07
			c-0.006,0.021,0.008,0.05,0,0.07c-0.001,0.004-0.042,0.04-0.046,0.047c-0.026,0.041-0.012,0.048-0.023,0.093
			c-0.008,0.031-0.039,0.042-0.047,0.07c-0.006,0.022,0.005,0.048,0,0.07c-0.008,0.031-0.039,0.042-0.046,0.07
			c-0.006,0.021,0.003,0.048,0,0.07c-0.005,0.038-0.013,0.037-0.023,0.07c-0.017,0.049-0.015,0.084-0.023,0.14
			c-0.008,0.058-0.038,0.103-0.047,0.164c-0.008,0.056-0.007,0.092-0.023,0.14c-0.03,0.089-0.007,0.182-0.023,0.28
			c0,0.016,0,0.031,0,0.047c-0.016,0.008-0.031,0.016-0.047,0.023c-0.007,0.019,0.003,0.05,0,0.07
			c-0.007,0.053-0.023,0.083-0.023,0.14c0,0.093,0,0.187,0,0.28c0,0.194,0,0.389,0,0.583c0,0.11,0.009,0.202,0.023,0.303
			c0.008,0.052,0.039,0.084,0.047,0.14c0.006,0.044,0,0.095,0,0.14c0,0.028-0.007,0.067,0,0.093c0.006,0.021,0.041,0.049,0.046,0.07
			c0.011,0.04,0,0.098,0,0.14c0,0.067,0.033,0.083,0.047,0.14c0.011,0.044-0.011,0.096,0,0.14c0.01,0.038,0.037,0.055,0.047,0.093
			c0.005,0.021-0.003,0.048,0,0.07c0.008,0.056,0.039,0.088,0.046,0.14c0.008,0.056,0.007,0.091,0.023,0.14
			c0.011,0.033,0.018,0.032,0.023,0.07c0.003,0.022-0.006,0.049,0,0.07c0.016,0.016,0.031,0.031,0.046,0.046
			c0,0.016,0,0.031,0,0.047c0.008,0.021,0.016,0.046,0.023,0.07c0.017,0.048,0.031,0.091,0.047,0.14
			c0.031,0.093,0.063,0.187,0.094,0.28c0,0.016,0,0.031,0,0.047c0.016,0.016,0.031,0.031,0.047,0.046
			c0.006,0.022-0.006,0.048,0,0.07c0.008,0.031,0.039,0.042,0.047,0.07c0.006,0.021-0.006,0.048,0,0.07s0.039,0.048,0.046,0.07
			c0.031,0.016,0.031,0.031,0,0.046c0,0.008,0,0.016,0,0.023c0.013,0.027,0.06,0.042,0.07,0.07c0.007,0.02-0.005,0.049,0,0.07
			c0.009,0.034,0.032,0.063,0.047,0.093c0.011,0.021,0.015,0.047,0.022,0.07c0.004,0.009,0.019,0.059,0.023,0.07
			c0.008,0.016,0.043,0.054,0.047,0.07c0.006,0.021-0.008,0.05,0,0.07c0.008,0.02,0.037,0.02,0.047,0.046
			c0.008,0.021-0.008,0.049,0,0.07c0.01,0.028,0.06,0.042,0.07,0.07c0,0.016,0,0.031,0,0.046c-0.006,0.021,0.002,0.037,0.023,0.047
			c0.002,0.008,0.018,0.06,0.023,0.07c0.023,0.047,0.053,0.091,0.069,0.14c0.009,0.025,0.015,0.046,0.023,0.07
			c0.009,0.022,0.018,0.043,0.023,0.059c0.022,0.002,0.03,0.014,0.023,0.035c0,0.008,0,0.015,0,0.023
			c0.003,0.005,0.046,0.044,0.046,0.047c0,0.016,0,0.031,0,0.046c-0.005,0.021,0.003,0.037,0.023,0.047
			c0.004,0.008,0.02,0.061,0.023,0.07c0.014,0.026,0.035,0.045,0.047,0.07c0.01,0.021,0.014,0.051,0.023,0.07
			c0.014,0.026,0.035,0.046,0.047,0.07c0.01,0.021,0.016,0.046,0.023,0.07c0,0,0.021,0.068,0.023,0.07
			c0.004,0.008,0.045,0.042,0.047,0.047c0,0.016,0,0.031,0,0.046c-0.008,0.021,0,0.033,0.023,0.035
			c0.021,0.002,0.029,0.014,0.023,0.035c0,0.008,0,0.016,0,0.023c0.007,0.014,0.042,0.056,0.046,0.07c0.006,0.021-0.008,0.05,0,0.07
			c-0.001-0.004,0.049,0.049,0.047,0.047c0.005,0.006,0.041,0.059,0.046,0.07c0.008,0.015,0.017,0.058,0.023,0.07
			c0.006,0.007,0.045,0.042,0.047,0.046c0,0.016,0,0.031,0,0.047c-0.007,0.021,0.001,0.032,0.023,0.035
			c0.023,0.003,0.031,0.015,0.023,0.035c0,0.008,0,0.016,0,0.023c0.023,0.044,0.055,0.093,0.07,0.14
			c0.015,0.044,0.045,0.102,0.07,0.14c0.023,0.037,0.074,0.08,0.069,0.128h-0.022c-0.025-0.044-0.051-0.083-0.07-0.117
			c-0.023-0.04-0.071-0.081-0.094-0.128c-0.046-0.096-0.125-0.156-0.187-0.256c-0.026-0.043-0.04-0.09-0.07-0.128
			s-0.063-0.084-0.093-0.128c-0.018-0.025-0.034-0.043-0.047-0.07c-0.006-0.014-0.017-0.06-0.023-0.07
			c-0.032-0.052-0.085-0.092-0.117-0.14c-0.016-0.025-0.052-0.063-0.069-0.094c-0.015-0.023-0.013-0.051-0.023-0.07
			c-0.024-0.039-0.066-0.068-0.093-0.117c-0.012-0.02-0.014-0.04-0.023-0.058c-0.007-0.011-0.04-0.049-0.047-0.059
			c-0.034-0.046-0.061-0.09-0.094-0.14c-0.031-0.046-0.059-0.12-0.094-0.163c-0.027-0.034-0.048-0.071-0.069-0.117
			c-0.046-0.096-0.113-0.188-0.163-0.28c-0.014-0.025-0.064-0.053-0.07-0.07c-0.008-0.021,0.008-0.049,0-0.07
			c0.002,0.004-0.049-0.049-0.047-0.047c-0.009-0.011-0.035-0.052-0.047-0.07c-0.025-0.038-0.055-0.096-0.07-0.14
			c-0.019-0.059-0.054-0.086-0.093-0.14c0.031-0.016,0.031-0.031,0-0.047c-0.016-0.008-0.031-0.016-0.046-0.023
			c-0.009-0.018,0.005-0.05,0-0.07c-0.002-0.008-0.042-0.063-0.047-0.07c-0.009-0.014-0.038-0.052-0.047-0.07
			c-0.01-0.02-0.013-0.048-0.023-0.07c-0.013-0.027-0.034-0.043-0.047-0.07c-0.023-0.048-0.046-0.091-0.07-0.14
			c-0.012-0.024-0.01-0.072-0.023-0.094c-0.009-0.016-0.037-0.031-0.047-0.046c0-0.016,0-0.031,0-0.047
			c-0.008-0.004-0.015-0.008-0.023-0.011c-0.022-0.003-0.03-0.015-0.023-0.035c0-0.008,0-0.016,0-0.023c0-0.016,0-0.031,0-0.047
			c-0.008-0.004-0.016-0.008-0.023-0.011c-0.022-0.003-0.03-0.015-0.023-0.035c0-0.008,0-0.016,0-0.023
			c-0.003-0.005-0.045-0.044-0.046-0.046c-0.008-0.021,0.006-0.049,0-0.07c-0.016-0.016-0.031-0.031-0.047-0.046
			c0-0.016,0-0.031,0-0.047c-0.008-0.023-0.016-0.049-0.023-0.07c0,0-0.022-0.068-0.023-0.07c-0.011-0.018-0.036-0.029-0.047-0.046
			c-0.002-0.003-0.023-0.069-0.023-0.07c-0.008-0.023-0.016-0.049-0.023-0.07c-0.015-0.045-0.031-0.095-0.046-0.14
			c-0.034-0.103-0.083-0.2-0.117-0.303c-0.017-0.05-0.039-0.086-0.047-0.14c-0.003-0.022,0.006-0.048,0-0.07
			s-0.041-0.049-0.046-0.07c-0.008-0.029,0.008-0.065,0-0.094c-0.005-0.016-0.039-0.053-0.047-0.07
			c-0.023-0.048-0.01-0.087-0.023-0.14c-0.014-0.057-0.046-0.072-0.046-0.14c0-0.068-0.032-0.083-0.047-0.14
			c-0.013-0.051,0.015-0.113,0-0.164c-0.008-0.027-0.039-0.039-0.046-0.07c-0.005-0.02,0-0.049,0-0.07
			c0-0.109-0.047-0.178-0.047-0.28c0-0.052,0.008-0.112,0-0.163c-0.007-0.042-0.04-0.096-0.046-0.14c-0.013-0.089,0-0.19,0-0.28
			c0-0.202-0.023-0.378-0.023-0.583c0-0.064,0.023-0.099,0.023-0.164c0-0.046,0-0.093,0-0.14c0-0.093,0-0.187,0-0.28
			c0-0.107,0.046-0.193,0.046-0.303c0-0.045-0.006-0.095,0-0.14c0.008-0.056,0.039-0.088,0.047-0.14c0.008-0.053-0.008-0.11,0-0.164
			c0.007-0.049,0.039-0.091,0.046-0.14c0.007-0.045-0.007-0.094,0-0.14c0.007-0.046,0.04-0.088,0.047-0.14
			c0.004-0.03-0.007-0.064,0-0.093c0.008-0.032,0.039-0.042,0.046-0.07c0.012-0.043-0.012-0.097,0-0.14
			c0.005-0.017,0.039-0.053,0.047-0.07c0.018-0.038,0.018-0.028,0.023-0.07c0.003-0.022-0.006-0.049,0-0.07
			c0.006-0.021,0.041-0.049,0.046-0.07c0.008-0.029-0.008-0.064,0-0.093c0.006-0.021,0.041-0.049,0.047-0.07
			c0.006-0.021-0.004-0.048,0-0.07c0.006-0.036,0.013-0.033,0.023-0.058c0.01-0.025,0.017-0.022,0.023-0.059
			c0.004-0.021-0.007-0.05,0-0.07c0.01-0.027,0.04-0.027,0.047-0.046c0.008-0.021-0.005-0.049,0-0.07
			c0.01-0.038,0.037-0.055,0.047-0.093c0.005-0.022-0.006-0.048,0-0.07c0.004-0.014,0.039-0.056,0.046-0.07
			c0.026-0.05-0.002-0.02,0.023-0.07c0.011-0.021,0.041-0.048,0.047-0.07c0.006-0.022-0.006-0.049,0-0.07
			c0.004-0.014,0.039-0.056,0.046-0.07c0-0.016,0-0.031,0-0.047c0.008-0.004,0.016-0.008,0.023-0.012
			c0.022-0.002,0.03-0.014,0.023-0.035c0-0.016,0-0.031,0-0.047c0.006-0.036,0.013-0.033,0.023-0.058
			c0.023-0.003,0.03-0.014,0.023-0.035c0-0.008,0-0.016,0-0.023c0.007-0.014,0.043-0.056,0.047-0.07c0.006-0.021-0.008-0.05,0-0.07
			c0.001-0.002,0.043-0.041,0.046-0.046c0-0.016,0-0.031,0-0.047c0.008-0.004,0.016-0.008,0.023-0.012
			c0.022-0.002,0.03-0.014,0.023-0.035c0-0.008,0-0.016,0-0.023c0.056-0.103,0.098-0.206,0.163-0.303
			c0.005-0.007,0.044-0.062,0.047-0.07c0.006-0.021-0.008-0.049,0-0.07c-0.001,0.004,0.049-0.049,0.047-0.047
			c0.005-0.006,0.041-0.058,0.046-0.07c0.047-0.095,0.095-0.22,0.163-0.303c0.053-0.064,0.086-0.17,0.141-0.233
			c0.041-0.049,0.079-0.107,0.116-0.163c0.028-0.042,0.067-0.094,0.094-0.14c0.013-0.023,0.009-0.036,0.022-0.059
			c0.013-0.019,0.035-0.028,0.047-0.046c0.021-0.033,0.043-0.095,0.07-0.128c0.083-0.1,0.145-0.182,0.21-0.28
			c0.034-0.052,0.071-0.094,0.116-0.14c0.05-0.049,0.062-0.092,0.094-0.14c0.025-0.037,0.065-0.042,0.094-0.07
			c0.008-0.009,0.032-0.054,0.047-0.07c0.028-0.034,0.058-0.073,0.093-0.117c0.079-0.098,0.161-0.188,0.257-0.28
			c0.012-0.012,0.035-0.058,0.047-0.07c0.009-0.009,0.045-0.046,0.047-0.047c0.051-0.041,0.074-0.065,0.116-0.117
			c0.076-0.093,0.197-0.162,0.257-0.268h0.022c0.016-0.016,0.032-0.031,0.047-0.047h0.023c-0.009-0.059,0.057-0.035,0.047-0.093
			h0.047c0-0.016,0-0.031,0-0.047h0.047c-0.008-0.049,0.067-0.071,0.093-0.117h0.023c0.016-0.016,0.031-0.031,0.047-0.046
			s0.031-0.031,0.047-0.047c0.008-0.016,0.016-0.031,0.023-0.046h0.046c0.008-0.016,0.016-0.031,0.023-0.047h0.023
			c0.008-0.016,0.016-0.031,0.023-0.047h0.047c-0.004-0.034,0.014-0.057,0.047-0.07h0.023c0.016-0.016,0.03-0.031,0.046-0.046h0.023
			c0.008-0.016,0.016-0.031,0.023-0.047h0.023c0.016-0.016,0.031-0.031,0.047-0.047h0.047c0-0.023,0-0.046,0-0.07h-0.607
			c-0.03,0.023-0.062,0.047-0.093,0.07h-0.21c-0.008,0.016-0.016,0.031-0.023,0.047h-0.233c-0.008,0.016-0.016,0.031-0.023,0.047
			h-0.187c-0.016,0.015-0.031,0.031-0.047,0.046H41.32c-0.044,0.017-0.095,0.023-0.116,0.07h-0.163
			c-0.016,0.016-0.031,0.031-0.047,0.047h-0.14c-0.008,0.016-0.016,0.031-0.023,0.047h-0.163c-0.008,0.015-0.016,0.031-0.023,0.046
			h-0.141c-0.008,0.016-0.016,0.031-0.023,0.047h-0.14c-0.008,0.016-0.016,0.031-0.023,0.046h-0.116
			c-0.07,0.061-0.172,0.054-0.233,0.117h-0.117c-0.008,0.016-0.016,0.031-0.023,0.047h-0.117c-0.028,0.066-0.112,0.027-0.14,0.093
			h-0.117c-0.008,0.016-0.015,0.031-0.023,0.047h-0.117c-0.047,0.094-0.241,0.121-0.327,0.163c-0.105,0.053-0.223,0.08-0.327,0.136
			c-0.209,0.113-0.449,0.181-0.653,0.307c-0.192,0.118-0.448,0.219-0.653,0.35c-0.206,0.131-0.422,0.26-0.607,0.362
			c-0.102,0.056-0.205,0.144-0.303,0.21c-0.095,0.063-0.185,0.135-0.28,0.198c-0.096,0.064-0.205,0.127-0.28,0.198
			c-0.086,0.082-0.188,0.137-0.28,0.21c-0.015,0.012-0.042,0.051-0.07,0.07c-0.025,0.017-0.045,0.027-0.07,0.047
			c-0.048,0.039-0.095,0.088-0.14,0.128c-0.073,0.066-0.153,0.125-0.233,0.198c-0.187,0.17-0.371,0.348-0.56,0.537
			c-0.364,0.364-0.702,0.698-0.98,1.073c-0.039,0.052-0.078,0.082-0.116,0.14c-0.03,0.045-0.063,0.102-0.094,0.14
			c-0.031,0.04-0.085,0.065-0.117,0.117c-0.01,0.017-0.013,0.053-0.023,0.07c-0.017,0.027-0.05,0.045-0.07,0.07
			c-0.046,0.057-0.059,0.107-0.093,0.164c-0.004,0.007-0.043,0.042-0.046,0.046c-0.021,0.025-0.033,0.049-0.047,0.07
			c-0.035,0.052-0.08,0.086-0.117,0.14c0,0.016,0,0.031,0,0.047c-0.008,0.004-0.016,0.008-0.023,0.012
			c-0.011,0.02-0.033,0.033-0.046,0.058c-0.015,0.027-0.033,0.059-0.047,0.082c-0.01,0.018-0.013,0.039-0.023,0.058
			c-0.03,0.054-0.083,0.086-0.117,0.14c-0.006,0.011-0.017,0.057-0.023,0.07c-0.013,0.027-0.03,0.045-0.047,0.07
			c-0.017,0.025-0.034,0.042-0.047,0.07c-0.01,0.022-0.013,0.05-0.023,0.07c-0.018,0.036-0.053,0.058-0.07,0.093
			c-0.01,0.022-0.013,0.05-0.023,0.07c-0.026,0.052-0.068,0.088-0.094,0.14c-0.023,0.047-0.044,0.078-0.07,0.116
			c0,0.016,0,0.031,0,0.047c-0.008,0.004-0.016,0.008-0.023,0.012c-0.022,0.002-0.03,0.014-0.023,0.035c0,0.008,0,0.016,0,0.023
			c-0.028,0.044-0.051,0.083-0.07,0.14c-0.015,0.044-0.044,0.102-0.07,0.14c-0.017,0.025-0.034,0.043-0.047,0.07
			c-0.007,0.014-0.016,0.059-0.023,0.07c-0.004,0.007-0.044,0.042-0.046,0.046c-0.008,0.021,0.008,0.05,0,0.07
			c-0.016,0.008-0.031,0.016-0.047,0.023c0,0.016,0,0.031,0,0.047c-0.007,0.014-0.042,0.056-0.046,0.07
			c-0.006,0.021,0.006,0.048,0,0.07c-0.005,0.016-0.039,0.053-0.047,0.07c-0.01,0.021-0.016,0.046-0.023,0.07
			c0,0-0.022,0.068-0.023,0.07c-0.023,0.038-0.063,0.063-0.07,0.117c0,0.015,0,0.031,0,0.046c0.007,0.021-0.001,0.033-0.023,0.035
			s-0.03,0.014-0.023,0.035c0,0.008,0,0.016,0,0.023c-0.007,0.014-0.043,0.056-0.047,0.07c-0.006,0.021,0.005,0.048,0,0.07
			c-0.008,0.031-0.039,0.042-0.047,0.07c-0.006,0.022,0.006,0.048,0,0.07c-0.005,0.021-0.041,0.049-0.046,0.07
			c-0.006,0.022,0.006,0.048,0,0.07c-0.011,0.04-0.04,0.046-0.047,0.094c-0.003,0.02,0.007,0.051,0,0.07
			c-0.001,0.005-0.042,0.039-0.046,0.047c-0.011,0.018-0.017,0.049-0.023,0.07c-0.015,0.044-0.04,0.096-0.047,0.14
			c-0.003,0.021,0.006,0.049,0,0.07c-0.008,0.028-0.039,0.039-0.046,0.07c-0.007,0.029,0.008,0.064,0,0.093
			c-0.008,0.028-0.039,0.039-0.047,0.07c-0.013,0.051-0.008,0.093-0.023,0.14c-0.011,0.033-0.018,0.032-0.023,0.07
			c-0.003,0.022,0.005,0.048,0,0.07c-0.015,0.057-0.047,0.072-0.047,0.14c0,0.07-0.027,0.104-0.047,0.163
			c-0.016,0.05-0.015,0.084-0.023,0.14c-0.008,0.052-0.039,0.084-0.047,0.14c-0.006,0.044,0.012,0.098,0,0.14
			c-0.011,0.04-0.04,0.045-0.047,0.093c-0.003,0.022,0,0.047,0,0.07c0,0.021,0.005,0.05,0,0.07c-0.008,0.031-0.039,0.042-0.046,0.07
			c-0.011,0.039,0,0.099,0,0.14c0,0.059-0.007,0.091-0.023,0.14c-0.031,0.092-0.023,0.199-0.023,0.304
			c0,0.067-0.032,0.085-0.046,0.14c-0.011,0.04,0,0.099,0,0.14c0,0.101,0,0.202,0,0.303c0,0.042,0.01,0.1,0,0.14
			c-0.015,0.057-0.047,0.072-0.047,0.14c0,0.194,0,0.389,0,0.583c0,0.101,0,0.203,0,0.304c0,0.109,0.047,0.177,0.047,0.28
			c0,0.101,0,0.202,0,0.303c0,0.045-0.006,0.096,0,0.14c0.008,0.059,0.039,0.082,0.046,0.14c0.014,0.095-0.026,0.211,0,0.303
			c0.008,0.028,0.039,0.039,0.047,0.07c0.005,0.02,0,0.05,0,0.07c0,0.045-0.006,0.095,0,0.14c0.008,0.058,0.038,0.103,0.046,0.164
			c0.008,0.056,0.007,0.091,0.023,0.14c0.016,0.046,0.023,0.088,0.023,0.14c0,0.054,0.02,0.08,0.023,0.128h0.023
			c0,0.016,0,0.031,0,0.047c0,0.008,0,0.016,0,0.023c0,0.048,0,0.114,0.023,0.151c0.018,0.029,0.034,0.011,0.047,0.047
			c0.006,0.017,0,0.052,0,0.07c0,0.072,0.038,0.097,0.047,0.164c0.003,0.021-0.006,0.049,0,0.07c0.008,0.028,0.039,0.039,0.046,0.07
			c0.007,0.029-0.007,0.064,0,0.093c0.008,0.032,0.039,0.042,0.047,0.07c0.006,0.021-0.004,0.048,0,0.07
			c0.006,0.037,0.013,0.033,0.023,0.059c0.01,0.025,0.017,0.021,0.023,0.058c0.004,0.022-0.006,0.049,0,0.07
			c0.008,0.028,0.039,0.039,0.047,0.07c0.005,0.021-0.006,0.048,0,0.07c0.009,0.033,0.061,0.059,0.07,0.093
			c0.006,0.022-0.005,0.048,0,0.07c0.008,0.031,0.039,0.042,0.047,0.07c0.006,0.021-0.005,0.048,0,0.07
			c0.009,0.038,0.037,0.056,0.046,0.094c0.005,0.021-0.007,0.049,0,0.07c0.01,0.027,0.04,0.027,0.047,0.046s-0.003,0.05,0,0.07
			c0,0.016,0,0.031,0,0.046c0.016,0.008,0.031,0.016,0.047,0.023c0.007,0.021-0.006,0.049,0,0.07
			c0.005,0.021,0.041,0.049,0.046,0.07s-0.006,0.048,0,0.07c0.005,0.017,0.039,0.053,0.047,0.07c0.006,0.013,0.017,0.059,0.023,0.07
			c0.004,0.008,0.044,0.042,0.046,0.047c0.008,0.02-0.005,0.049,0,0.07c0.008,0.034,0.032,0.063,0.047,0.093
			c0.005,0.011,0.02,0.061,0.023,0.07c0.003,0.009,0.019,0.06,0.023,0.07c0.008,0.016,0.042,0.054,0.047,0.07
			c0.006,0.021-0.006,0.048,0,0.07s0.036,0.049,0.046,0.07s0.013,0.047,0.023,0.07c0.011,0.022,0.036,0.05,0.047,0.07
			c-0.031,0.015-0.031,0.031,0,0.046c0.016,0.008,0.031,0.016,0.046,0.023c0.009,0.018-0.005,0.05,0,0.07
			c0.005,0.016,0.039,0.054,0.047,0.07c0.005,0.011,0.02,0.061,0.023,0.07c0.016,0.048,0.048,0.095,0.07,0.14
			c0.005,0.011,0.02,0.061,0.023,0.07c0,0,0.022,0.068,0.023,0.07c0.019,0.031,0.053,0.068,0.07,0.094
			c0.004,0.006,0.044,0.062,0.047,0.07c0.015,0.054,0.01,0.096,0.046,0.14c-0.002-0.002,0.048,0.051,0.047,0.046
			c0.007,0.021-0.006,0.049,0,0.07c0.002,0.008,0.042,0.063,0.046,0.07c0.009,0.014,0.038,0.052,0.047,0.07c0,0.016,0,0.031,0,0.047
			c0.016,0.016,0.031,0.031,0.046,0.046c0.017,0.026,0.034,0.043,0.047,0.07c0.01,0.021,0.014,0.049,0.023,0.07
			c0.013,0.028,0.027,0.042,0.046,0.07c0.023,0.034,0.057,0.095,0.07,0.128c0.022,0.003,0.03,0.014,0.023,0.035
			c0,0.008,0,0.016,0,0.023c0.011,0.021,0.035,0.046,0.047,0.07c0,0.016,0,0.031,0,0.047c0.016,0.016,0.031,0.031,0.047,0.046
			c0.019,0.029,0.027,0.041,0.046,0.07c0.027,0.041,0.045,0.1,0.07,0.14c0.024,0.04,0.047,0.069,0.07,0.117
			c0.013,0.027,0.034,0.043,0.046,0.07c0.011,0.022,0.014,0.05,0.023,0.07c0.016,0.016,0.031,0.031,0.047,0.047
			c0,0.015,0,0.031,0,0.046c0.019,0.024,0.054,0.026,0.07,0.047c0.001,0.002,0.021,0.065,0.023,0.07
			c0.013,0.027,0.034,0.043,0.047,0.07c0.047,0.1,0.103,0.166,0.163,0.257c0.03,0.045,0.068,0.108,0.093,0.152
			c0.02,0.035,0.045,0.09,0.07,0.128c0.061,0.091,0.115,0.157,0.163,0.256c0.028,0.058,0.082,0.111,0.117,0.164
			c0.03,0.045,0.07,0.091,0.093,0.14c0.021,0.043,0.041,0.103,0.07,0.14c0.011,0.015,0.038,0.036,0.046,0.047
			c0.024,0.028,0.025,0.04,0.047,0.07c0.039,0.053,0.062,0.082,0.093,0.14c0.014,0.025,0.035,0.039,0.046,0.058
			c0.01,0.018,0.013,0.04,0.023,0.059c0.03,0.054,0.083,0.086,0.117,0.14c0.03,0.05,0.05,0.088,0.093,0.14
			c0.071,0.086,0.125,0.21,0.187,0.303c0.064,0.096,0.125,0.188,0.187,0.28c0.023,0.035,0.04,0.059,0.07,0.093
			c0.003,0.004,0.042,0.04,0.047,0.047c0.007,0.012,0.016,0.055,0.023,0.07c0.013,0.027,0.03,0.045,0.046,0.07
			c0.065,0.098,0.122,0.183,0.187,0.28c0.032,0.048,0.061,0.115,0.094,0.163c0.032,0.049,0.068,0.088,0.093,0.14
			c0.022,0.046,0.042,0.083,0.07,0.117c0.025,0.03,0.074,0.101,0.093,0.14c0,0.016,0,0.031,0,0.046
			c0.016,0.016,0.031,0.031,0.047,0.047c0.012,0.018,0.031,0.047,0.046,0.07c0.029,0.043,0.042,0.096,0.07,0.14
			c0.004,0.007,0.045,0.042,0.046,0.046c0.008,0.021-0.008,0.05,0,0.07c-0.001-0.004,0.049,0.049,0.047,0.046
			c0.001,0.001,0.046,0.067,0.046,0.07c0,0.016,0,0.031,0,0.046c-0.007,0.021,0.001,0.033,0.023,0.035s0.03,0.014,0.023,0.035
			c0,0.008,0,0.016,0,0.023c0.023,0.044,0.053,0.092,0.07,0.14c0.023,0.066,0.061,0.07,0.093,0.14c0.018,0.039-0.021,0.023,0,0.07
			c0.005,0.011,0.04,0.035,0.047,0.047c0,0.016,0,0.031,0,0.046c0.016,0.016,0.031,0.031,0.047,0.047
			c0.006,0.021-0.008,0.049,0,0.07c0.01,0.027,0.039,0.027,0.046,0.047c0.008,0.021-0.007,0.049,0,0.07
			c0.01,0.027,0.039,0.027,0.047,0.047c0.007,0.02-0.003,0.049,0,0.07c0.006,0.037,0.013,0.034,0.023,0.059
			c0.006,0.015,0.015,0.036,0.023,0.058c0.02,0.055,0.028,0.108,0.047,0.164c0.018,0.052,0.054,0.073,0.07,0.117
			c0.015,0.042,0.01,0.1,0.023,0.14c0.017,0.049,0.015,0.084,0.023,0.14c0.009,0.062,0.046,0.092,0.046,0.164
			c0,0.041-0.011,0.101,0,0.14c0.008,0.028,0.039,0.039,0.047,0.07c0.005,0.02,0,0.049,0,0.07c0,0.047,0,0.093,0,0.14
			c0,0.115,0.047,0.195,0.047,0.303c0,0.093,0,0.187,0,0.28c0,0.028,0.007,0.066,0,0.093c-0.008,0.032-0.039,0.042-0.047,0.07
			c-0.005,0.019,0,0.05,0,0.07c0.031,0.016,0.031,0.031,0,0.047c0,0.008,0,0.016,0,0.023c-0.001,0.099,0.005,0.193-0.023,0.28
			c-0.019,0.055-0.023,0.098-0.023,0.164c0,0.07-0.025,0.066-0.046,0.117c-0.017,0.04,0.015,0.099,0,0.14
			c-0.01,0.027-0.039,0.027-0.047,0.047c-0.007,0.019,0.003,0.05,0,0.07c-0.009,0.068-0.053,0.103-0.07,0.164
			c-0.006,0.021,0.005,0.048,0,0.07c-0.008,0.031-0.039,0.042-0.047,0.07c-0.006,0.022,0.006,0.048,0,0.07
			c-0.006,0.021-0.041,0.049-0.046,0.07s0.008,0.05,0,0.07c-0.002,0.005-0.042,0.039-0.047,0.047c0,0.016,0,0.031,0,0.047
			c-0.016,0.015-0.031,0.031-0.046,0.046c-0.005,0.01-0.021,0.062-0.023,0.07c-0.02,0.058-0.052,0.089-0.093,0.14
			c-0.07,0.086-0.138,0.192-0.21,0.28c-0.153,0.186-0.354,0.325-0.56,0.443c-0.096,0.055-0.173,0.084-0.28,0.128
			c-0.086,0.036-0.211,0.05-0.28,0.117h-0.187c-0.016,0.016-0.031,0.031-0.047,0.047h-0.77c-0.016-0.016-0.031-0.031-0.047-0.047
			h-0.187c-0.026-0.061-0.218-0.1-0.28-0.122c-0.097-0.035-0.217-0.08-0.303-0.138c-0.166-0.112-0.352-0.249-0.467-0.405
			c-0.042-0.056-0.102-0.102-0.14-0.163c-0.011-0.018-0.01-0.047-0.023-0.07c-0.015-0.025-0.06-0.043-0.07-0.07
			c0-0.016,0-0.031,0-0.046c0.005-0.021-0.002-0.037-0.023-0.047c-0.002-0.008-0.019-0.061-0.023-0.07
			c-0.014-0.028-0.056-0.031-0.046-0.07c0,0.002,0.069-0.045,0.07-0.046c0.056-0.042,0.093-0.078,0.14-0.117
			c0.044-0.037,0.092-0.062,0.14-0.093c0.049-0.033,0.109-0.072,0.163-0.093c0.045-0.018,0.095-0.007,0.117-0.059h0.164
			c0.007-0.016,0.015-0.031,0.023-0.046h0.607c0.008,0.015,0.016,0.031,0.023,0.046h0.187c0.008,0.016,0.016,0.031,0.023,0.047
			h0.117c0.059,0.057,0.163,0.082,0.233,0.121c0.069,0.038,0.138,0.076,0.21,0.113h0.07c-0.007-0.091,0.14-0.131,0.117-0.233h0.046
			c0-0.016,0-0.031,0-0.047c0.008-0.016,0.016-0.031,0.023-0.046h0.023c-0.003-0.038,0.011-0.027,0.023-0.059
			c0.009-0.025,0.014-0.043,0.023-0.07c0.007-0.021,0.012-0.052,0.023-0.07c0.016-0.008,0.031-0.015,0.047-0.023
			c0.008-0.021-0.006-0.049,0-0.07s0.041-0.049,0.046-0.07c0.01-0.036-0.012-0.083,0-0.117c0.019-0.052,0.047-0.046,0.047-0.117
			c0-0.039,0-0.078,0-0.117c0-0.052,0.009-0.07,0.023-0.105c0.014-0.035,0.023-0.053,0.023-0.105c0-0.06-0.007-0.091-0.023-0.14
			c-0.015-0.043-0.023-0.063-0.023-0.117c0-0.038,0.005-0.079,0-0.117c-0.007-0.051-0.035-0.073-0.047-0.117
			c-0.013-0.049-0.008-0.094-0.023-0.14c-0.013-0.038-0.029-0.08-0.047-0.117c-0.012-0.025-0.035-0.047-0.046-0.07
			c0-0.015,0-0.031,0-0.046c-0.002-0.008-0.042-0.063-0.047-0.07c-0.021-0.01-0.029-0.025-0.023-0.046
			c-0.046-0.094-0.118-0.172-0.187-0.257c-0.024-0.03-0.022-0.041-0.047-0.07c-0.009-0.011-0.035-0.032-0.046-0.047
			c-0.027-0.034-0.056-0.08-0.093-0.117c-0.142-0.141-0.263-0.268-0.42-0.373c-0.163-0.109-0.297-0.206-0.466-0.28
			c-0.086-0.038-0.171-0.09-0.257-0.132c-0.054-0.027-0.187-0.059-0.21-0.113h-0.093c-0.008-0.016-0.016-0.031-0.023-0.047h-0.117
			c-0.016-0.016-0.031-0.031-0.047-0.047h-0.14c-0.008-0.015-0.016-0.031-0.023-0.046h-0.163c-0.016-0.016-0.031-0.031-0.047-0.047
			h-0.187c-0.023-0.016-0.047-0.031-0.07-0.046h-0.21c0-0.008,0-0.016,0-0.023h-0.187c0-0.008,0-0.016,0-0.023h-0.653
			c0,0.008,0,0.016,0,0.023h-0.187c0,0.008,0,0.016,0,0.023h-0.233c-0.016,0.016-0.031,0.031-0.047,0.046h-0.187
			c-0.016,0.016-0.031,0.031-0.047,0.047h-0.14c-0.016,0.016-0.031,0.031-0.047,0.046h-0.117c-0.008,0.016-0.016,0.031-0.023,0.047
			h-0.117c-0.008,0.016-0.016,0.031-0.023,0.047h-0.117c-0.033,0.072-0.188,0.101-0.257,0.128c-0.088,0.035-0.167,0.101-0.257,0.14
			c-0.091,0.04-0.173,0.107-0.256,0.164c-0.045,0.029-0.098,0.056-0.14,0.085c-0.03,0.021-0.053,0.051-0.093,0.078
			c-0.167,0.111-0.312,0.232-0.467,0.374c-0.078,0.07-0.12,0.138-0.187,0.198c-0.046,0.042-0.099,0.079-0.14,0.128
			c-0.012,0.014-0.03,0.049-0.047,0.07c-0.015,0.008-0.031,0.016-0.046,0.023c-0.01,0.013-0.014,0.055-0.023,0.07
			c-0.015,0.025-0.049,0.049-0.07,0.07c-0.047,0.047-0.083,0.089-0.117,0.14c-0.059,0.088-0.121,0.147-0.164,0.233
			c-0.021,0.042-0.069,0.088-0.093,0.117c-0.026,0.031-0.053,0.075-0.07,0.105c-0.042,0.074-0.1,0.162-0.14,0.245
			c-0.023,0.048-0.064,0.097-0.093,0.14c-0.01,0.015-0.036,0.05-0.047,0.07c0,0.016,0,0.031,0,0.047
			c-0.009,0.016-0.037,0.031-0.046,0.046c0,0.016,0,0.031,0,0.047c-0.008,0.004-0.016,0.008-0.023,0.012
			c-0.01,0.024-0.037,0.069-0.047,0.093c-0.022,0.002-0.03,0.014-0.023,0.035c0,0.007,0,0.015,0,0.023
			c-0.011,0.021-0.036,0.047-0.047,0.07c-0.018,0.036-0.034,0.079-0.047,0.117c0,0-0.022,0.068-0.023,0.07
			c-0.005,0.008-0.045,0.042-0.047,0.046c-0.01,0.026,0,0.076,0,0.105h-0.046c0,0.015,0,0.031,0,0.046
			c-0.006,0.046-0.036,0.065-0.047,0.105c-0.006,0.021,0.008,0.05,0,0.07c-0.016,0.007-0.031,0.015-0.047,0.023
			c-0.016,0.042-0.004,0.077-0.023,0.117c-0.015,0.031-0.039,0.06-0.047,0.093c-0.005,0.022,0.006,0.048,0,0.07
			c-0.016,0.016-0.031,0.031-0.046,0.046c-0.008,0.028,0.01,0.066,0,0.093c-0.016,0.044-0.038,0.04-0.047,0.094
			c-0.007,0.041-0.012,0.058-0.023,0.093c-0.014,0.042-0.023,0.066-0.023,0.117c0,0.046-0.011,0.051-0.023,0.082
			c-0.014,0.035-0.023,0.053-0.023,0.105c0,0.047-0.011,0.055-0.023,0.093c-0.021,0.064-0.025,0.146-0.047,0.21
			c-0.022,0.067-0.046,0.121-0.046,0.198c0,0.016,0,0.031,0,0.047c-0.006,0.051-0.04,0.079-0.047,0.128c-0.006,0.044,0,0.095,0,0.14
			c0,0.095-0.046,0.162-0.046,0.256c0,0.085,0,0.171,0,0.257c0,0.071-0.028,0.065-0.047,0.117c-0.011,0.03,0,0.084,0,0.117
			c0,0.342,0,0.684,0,1.026c0,0.021-0.005,0.05,0,0.07c0.008,0.031,0.039,0.042,0.047,0.07
			C26.094,39.735,26.084,39.785,26.084,39.819z M41.671,22.237h0.023c0,0.008,0,0.016,0,0.023h-0.023
			C41.671,22.253,41.671,22.245,41.671,22.237z"/>
	</g>
</g>
</svg>
