<?xml version="1.0" encoding="utf-8"?>
<!-- Generator: Adobe Illustrator 16.0.0, SVG Export Plug-In . SVG Version: 6.00 Build 0)  -->
<!DOCTYPE svg PUBLIC "-//W3C//DTD SVG 1.1//EN" "http://www.w3.org/Graphics/SVG/1.1/DTD/svg11.dtd">
<svg version="1.1" id="Camada_1" xmlns="http://www.w3.org/2000/svg" xmlns:xlink="http://www.w3.org/1999/xlink" x="0px" y="0px"
	 width="80px" height="80px" viewBox="0 0 80 80" enable-background="new 0 0 80 80" xml:space="preserve">
<g>
	<g>
		
			<image overflow="visible" width="1343" height="1265" xlink:href="../../marcas para hotsite/UNIDERP_LOGOMARCA_POS_CMYK.png"  transform="matrix(0.0593 0 0 0.0593 0 7.5005)">
		</image>
	</g>
	<g>
		<path fill="#FFFFFF" d="M74.703,64.477c-0.094-0.205-0.214-0.391-0.355-0.563c-0.151-0.185-0.354-0.348-0.475-0.563h-0.118
			c-0.141-0.256-0.515-0.442-0.771-0.563c-0.253-0.119-0.521-0.201-0.771-0.326h-0.237c0-0.02,0-0.039,0-0.06H71.62
			c0-0.02,0-0.039,0-0.059h-1.423c0,0.02,0,0.039,0,0.059h-0.355c0,0.021,0,0.04,0,0.06h-0.297c-0.271,0.136-0.558,0.22-0.829,0.355
			c-0.299,0.149-0.499,0.354-0.771,0.534h-0.059c-0.062-0.492-0.715-0.676-1.127-0.83h-1.008c-0.146,0.157-0.06,0.62-0.06,0.83
			c0,0.375,0,0.751,0,1.126c0,2.431,0,4.862,0,7.293c0,0.02,0,0.039,0,0.059c0,0.455,0,0.909,0,1.364c0,1.759,0,3.518,0,5.276h2.431
			c0-1.759,0-3.518,0-5.276h0.06c0.242,0.438,0.992,0.55,1.423,0.711h0.415c0,0.021,0,0.04,0,0.06h1.245c0-0.02,0-0.039,0-0.06
			h0.415c0.571-0.214,1.089-0.372,1.601-0.711h0.06c0.509-0.337,0.989-0.851,1.245-1.364c0-0.02,0-0.039,0-0.059h0.06
			c0.267-0.585,0.558-1.167,0.652-1.809c0.089-0.604,0.178-1.191,0.178-1.838C75.475,66.781,75.313,65.575,74.703,64.477z
			 M72.925,68.123c0,0.742-0.08,1.426-0.296,2.075c-0.114,0.342-0.318,0.739-0.594,1.008c-0.271,0.265-0.652,0.43-1.008,0.563
			h-0.296c0,0.02,0,0.039,0,0.059H70.02c0-0.02,0-0.039,0-0.059h-0.296c-0.411-0.154-0.767-0.323-1.127-0.563
			c-0.166-0.111-0.425-0.278-0.475-0.475c-0.038-0.155,0-0.372,0-0.533c0-0.712,0-1.423,0-2.135c0-0.711,0-1.423,0-2.134
			c0-0.195-0.017-0.371,0.06-0.534c0.09-0.192,0.235-0.34,0.415-0.474c0.313-0.234,0.705-0.31,1.067-0.445h1.245
			c0.392,0.147,0.756,0.281,1.067,0.563c0.323,0.294,0.477,0.652,0.652,1.008c0.076,0.155,0.09,0.356,0.118,0.533
			c0.001,0.005,0.052,0.155,0.06,0.179c0,0.039,0,0.079,0,0.118c0.012,0.078,0.059,0.132,0.059,0.237c0,0.203,0.06,0.33,0.06,0.533
			C72.925,67.807,72.925,67.965,72.925,68.123z M26.858,71.443c0-0.771,0-1.542,0-2.313c0-0.396,0-0.79,0-1.186
			c0-0.383,0.053-0.808,0-1.186c-0.053-0.378-0.059-0.828-0.178-1.187c-0.065-0.195-0.113-0.398-0.178-0.593
			c-0.05-0.149-0.218-0.326-0.178-0.504h-0.06c0.008-0.11-0.13-0.289-0.178-0.385c-0.067-0.137-0.197-0.234-0.296-0.356
			c-0.207-0.253-0.437-0.446-0.711-0.651c-0.452-0.339-0.958-0.485-1.482-0.683H23.36c0-0.02,0-0.039,0-0.059h-0.475
			c0-0.021,0-0.04,0-0.06h-1.423c0,0.02,0,0.039,0,0.06h-0.415c0,0.02,0,0.039,0,0.059h-0.296c-0.527,0.198-1.017,0.372-1.482,0.683
			c-0.285,0.189-0.508,0.466-0.711,0.711c-0.169,0.204-0.395,0.419-0.415,0.682h-0.059c-0.025,0.204-0.174,0.374-0.237,0.563
			c-0.033,0.1-0.026,0.197-0.059,0.297c-0.027,0.08-0.105,0.215-0.119,0.296c-0.034,0.212-0.03,0.384-0.059,0.593
			c-0.028,0.198-0.06,0.371-0.06,0.593c0,0.771,0,1.542,0,2.313c0,0.791,0,1.581,0,2.372c0,0.395,0,0.79,0,1.186
			c0,0.253-0.116,0.908,0.06,1.097h1.067c0.505-0.189,0.957-0.41,1.126-0.919c0.042-0.127,0.099-0.213,0.119-0.355
			c0.013-0.095,0-0.201,0-0.297c0-0.197,0-0.396,0-0.593c0-0.83,0-1.66,0-2.49c0-0.435,0-0.869,0-1.305c0-0.209-0.03-0.444,0-0.651
			c0.016-0.11,0.06-0.168,0.06-0.297c0-0.095-0.014-0.202,0-0.297c0.065-0.444,0.226-0.872,0.474-1.244
			c0.301-0.453,0.705-0.62,1.186-0.86h1.067c0.513,0.192,0.942,0.406,1.245,0.86c0.255,0.383,0.341,0.783,0.415,1.244
			c0.007,0.047,0.05,0.111,0.059,0.179c0.008,0.056,0,0.121,0,0.178c0,0.099,0,0.197,0,0.296c0,0.218,0,0.435,0,0.652
			c0,0.415,0,0.83,0,1.245c0,0.85,0,1.699,0,2.55c0,0.209-0.03,0.444,0,0.651c0.03,0.204,0.115,0.404,0.178,0.594
			c0.162,0.485,0.665,0.687,1.127,0.859h1.008c0.239-0.094,0.119-0.921,0.119-1.156C26.858,72.233,26.858,71.839,26.858,71.443z
			 M55.612,65.573c-0.064-0.195-0.112-0.398-0.178-0.593c-0.063-0.187-0.222-0.36-0.237-0.563h-0.059c0-0.021,0-0.04,0-0.06
			c-0.237-0.521-0.689-1.003-1.187-1.334c-0.438-0.293-0.93-0.438-1.423-0.623h-0.355c0-0.02,0-0.039,0-0.059h-0.652
			c0-0.021,0-0.04,0-0.06h-0.533c0,0.02,0,0.039,0,0.06h-0.652c0,0.02,0,0.039,0,0.059H49.98c-0.527,0.198-1.048,0.336-1.542,0.623
			c-0.508,0.295-1.031,0.842-1.304,1.334c0,0.02,0,0.039,0,0.06h-0.06c0.007,0.092-0.075,0.201-0.119,0.267
			c-0.064,0.097-0.126,0.191-0.178,0.296c-0.041,0.084-0.089,0.208-0.118,0.297c-0.033,0.1-0.086,0.198-0.119,0.296
			c-0.118,0.356-0.236,0.76-0.236,1.156h-0.06c0,0.345-0.06,0.625-0.06,0.979c0,0.326,0,0.652,0,0.979c0,0.066-0.009,0.141,0,0.207
			c0.01,0.067,0.052,0.132,0.06,0.178c0.021,0.136-0.021,0.28,0,0.415c0.054,0.025,0.073,0.065,0.06,0.119c0,0.039,0,0.079,0,0.118
			c0.012,0.079,0.047,0.1,0.059,0.178c0.02,0.133,0.02,0.234,0.06,0.356c0.089,0.267,0.173,0.518,0.297,0.771
			c0.069,0.142,0.086,0.277,0.178,0.415c0.071,0.107,0.117,0.205,0.178,0.326h0.06c0,0.02,0,0.039,0,0.059
			c0.286,0.52,0.833,1.026,1.363,1.334c0.49,0.285,1.017,0.427,1.541,0.623h0.237c0,0.02,0,0.039,0,0.06h0.415
			c0,0.02,0,0.039,0,0.059h0.712c0,0.021,0,0.04,0,0.06h0.652c0-0.02,0-0.039,0-0.06h0.593c0-0.02,0-0.039,0-0.059h0.355
			c0-0.021,0-0.04,0-0.06h0.297c0.464-0.232,0.968-0.358,1.423-0.623c0.318-0.185,1.156-0.919,0.771-1.334c0-0.02,0-0.039,0-0.059
			c-0.069-0.556-0.679-0.818-0.948-1.305h-0.06c-0.205,0.371-0.701,0.706-1.067,0.89c-0.349,0.174-0.704,0.278-1.067,0.415h-0.415
			c0,0.02,0,0.039,0,0.059h-0.533c0-0.02,0-0.039,0-0.059h-0.475c-0.327-0.123-0.656-0.229-0.948-0.415
			c-0.161-0.104-0.351-0.234-0.475-0.386c-0.109-0.134-0.277-0.315-0.355-0.475c-0.277-0.561-0.475-1.131-0.475-1.808h7.056
			c0-0.345,0.059-0.625,0.059-0.979c0-0.326,0-0.652,0-0.979c0-0.193-0.031-0.365-0.059-0.563
			C55.704,65.977,55.673,65.756,55.612,65.573z M48.676,66.729c0.061-0.49,0.264-0.988,0.533-1.393
			c0.321-0.482,0.82-0.716,1.364-0.919h0.475c0-0.021,0-0.04,0-0.06h0.236c0,0.02,0,0.039,0,0.06h0.475
			c0.551,0.206,1.052,0.447,1.305,0.978c0.204,0.429,0.296,0.815,0.296,1.334H48.676z M62.55,62.579h-0.297c0-0.02,0-0.039,0-0.059
			H61.72c0-0.021,0-0.04,0-0.06h-0.297c0,0.02,0,0.039,0,0.06h-0.652c0,0.02,0,0.039,0,0.059h-0.296
			c-0.549,0.206-1.12,0.38-1.542,0.801c-0.245,0.245-0.511,0.481-0.652,0.771c-0.057,0.118-0.119,0.235-0.178,0.356
			c-0.047,0.097-0.035,0.236-0.118,0.325c0,0.021,0,0.04,0,0.06c-0.041,0.045-0.111,0.222-0.119,0.267
			c-0.009,0.059,0.009,0.12,0,0.179c0.015,0.053-0.006,0.093-0.059,0.118c-0.016,0.093,0,0.202,0,0.297
			c0,0.105-0.047,0.158-0.06,0.236c-0.057,0.355,0,0.767,0,1.127c0,0.751,0,1.502,0,2.253c0,1.473,0,2.944,0,4.417h2.431
			c0-1.512,0-3.023,0-4.536c0-0.771,0-1.541,0-2.312c0-0.368-0.05-0.799,0.06-1.127c0.07-0.212,0.122-0.423,0.296-0.593
			c0.147-0.144,0.349-0.233,0.534-0.326h0.296c0-0.02,0-0.039,0-0.06h0.712c0.216,0.081,0.441,0.145,0.652,0.237
			c0.231,0.103,0.385,0.278,0.593,0.415h0.118c0.107-0.235,0.24-0.42,0.356-0.652c0.192-0.422,0.485-0.99,0.178-1.452
			C63.646,62.891,63.088,62.781,62.55,62.579z M32.194,72.332c0-0.474,0-0.948,0-1.423c0-0.968,0-1.937,0-2.904
			c0-0.969,0-1.938,0-2.905c0-0.257,0-0.514,0-0.771c0-0.118,0-0.236,0-0.355c0-0.057,0.008-0.121,0-0.178
			c-0.01-0.067-0.052-0.132-0.06-0.178c-0.098-0.611-0.522-0.824-1.067-1.097h-0.297c0-0.021,0-0.04,0-0.06h-0.711
			c0,0.02,0,0.039,0,0.06h-0.237c0,1.946,0,3.893,0,5.84c0,0.968,0,1.937,0,2.905c0,0.468-0.082,1.061,0.059,1.481
			c0.186,0.559,0.618,0.825,1.186,1.038h1.067c0.135-0.146,0.06-0.549,0.06-0.741C32.194,72.807,32.194,72.569,32.194,72.332z
			 M14.348,62.461h-0.533c0,0.02,0,0.039,0,0.06h-0.356c-0.234,0.117-0.451,0.188-0.652,0.355c-0.188,0.157-0.311,0.354-0.415,0.563
			c-0.082,0.165-0.093,0.469-0.118,0.652c-0.027,0.188,0,0.401,0,0.593c0,0.83,0,1.66,0,2.49c0,0.415,0,0.83,0,1.245
			c0,0.397,0.063,0.853,0,1.244c-0.007,0.047-0.05,0.111-0.06,0.179c-0.008,0.058,0.009,0.12,0,0.178
			c-0.013,0.081-0.091,0.213-0.119,0.296c-0.077,0.23-0.157,0.384-0.296,0.593c-0.138,0.207-0.248,0.383-0.474,0.534
			c-0.187,0.124-0.389,0.224-0.593,0.326h-0.297c0,0.02,0,0.039,0,0.059h-0.83c-0.491-0.184-0.956-0.366-1.245-0.8
			c-0.14-0.21-0.278-0.418-0.356-0.652c-0.067-0.201-0.083-0.374-0.119-0.593c-0.007-0.046-0.05-0.11-0.059-0.178
			c-0.008-0.057,0-0.121,0-0.178c0-0.1,0-0.198,0-0.297c0-0.218,0-0.435,0-0.652c0-0.415,0-0.83,0-1.245c0-0.85,0-1.699,0-2.549
			c0-0.209,0.033-0.447,0-0.652c-0.006-0.04-0.049-0.118-0.06-0.178c0-0.04,0-0.079,0-0.119c-0.013-0.094-0.019-0.215-0.059-0.296
			c-0.119-0.241-0.249-0.424-0.474-0.593c-0.193-0.146-0.375-0.218-0.593-0.326H6.285c0-0.021,0-0.04,0-0.06H5.751
			c0,0.02,0,0.039,0,0.06H5.396c0,1.551,0,3.103,0,4.654c0,0.79,0,1.581,0,2.371c0,0.207,0.03,0.384,0.059,0.593
			c0.027,0.19,0.058,0.411,0.119,0.593c0.065,0.195,0.113,0.398,0.178,0.593c0.056,0.168,0.164,0.321,0.178,0.504h0.06
			c-0.007,0.1,0.128,0.306,0.178,0.386c0.081,0.133,0.201,0.238,0.296,0.355c0.208,0.256,0.499,0.535,0.771,0.712
			c0.456,0.297,0.975,0.433,1.482,0.622h0.356c0,0.021,0,0.04,0,0.06h0.593c0,0.02,0,0.04,0,0.06h0.771c0-0.02,0-0.04,0-0.06h0.593
			c0-0.02,0-0.039,0-0.06h0.355c0.543-0.203,1.062-0.361,1.542-0.682c0.529-0.353,0.927-0.875,1.186-1.394h0.059
			c0-0.02,0-0.039,0-0.059c0.054-0.058,0.097-0.203,0.119-0.267c0.033-0.101,0.086-0.199,0.119-0.297
			c0.064-0.193,0.085-0.387,0.119-0.593c0-0.005,0.051-0.154,0.059-0.178c0-0.04,0-0.079,0-0.119c0.007-0.046,0.05-0.11,0.059-0.178
			c0-0.039,0-0.079,0-0.118c0-0.206,0.06-0.37,0.06-0.593c0-0.771,0-1.542,0-2.313c0-1.531,0-3.063,0-4.595h-0.356
			C14.348,62.5,14.348,62.48,14.348,62.461z M31.304,57.896h-0.711c-0.346,0.173-0.621,0.31-0.83,0.623
			c-0.182,0.272-0.296,0.482-0.296,0.83c0,0.716,0.412,1.184,1.067,1.512h0.771c0.338-0.169,0.627-0.318,0.83-0.623
			c0.189-0.282,0.237-0.524,0.237-0.889C32.372,58.615,31.955,58.221,31.304,57.896z M43.695,58.222
			c-0.212-0.192-0.458-0.259-0.711-0.385h-1.186c0,1.778,0,3.557,0,5.336h-0.06c-0.229-0.415-0.953-0.558-1.364-0.712h-0.296
			c0-0.02,0-0.039,0-0.06h-1.66c0,0.021,0,0.04,0,0.06h-0.297c-0.275,0.104-0.558,0.174-0.829,0.286
			c-0.206,0.086-0.61,0.218-0.712,0.426h-0.119c-0.079,0.144-0.237,0.218-0.355,0.325c-0.12,0.109-0.254,0.23-0.356,0.356
			c-0.179,0.22-0.348,0.429-0.474,0.682c-0.179,0.324-0.302,0.58-0.415,0.919c-0.053,0.157-0.125,0.314-0.178,0.475
			c-0.027,0.082-0.033,0.157-0.059,0.236c-0.008,0.024-0.059,0.174-0.059,0.179c-0.027,0.169-0.038,0.316-0.06,0.474
			c-0.024,0.171-0.059,0.308-0.059,0.475c0,0.324-0.06,0.573-0.06,0.89c0,0.158,0,0.315,0,0.474c0,0.186,0.06,0.296,0.06,0.475
			c0,0.151-0.024,0.325,0,0.475c0.053,0.025,0.073,0.064,0.059,0.118c0,0.04,0,0.079,0,0.119c0.009,0.066,0.052,0.132,0.06,0.178
			c0.027,0.174,0.006,0.315,0.059,0.474c0.053,0.16,0.073,0.306,0.119,0.475c0.042,0.157,0.164,0.327,0.237,0.475
			c0.031,0.063,0.035,0.17,0.059,0.237c0.046,0.13,0.049,0.017,0.059,0.147h0.06c0,0.021,0,0.04,0,0.06h0.059
			c0.055,0.44,0.555,0.679,0.771,1.067h0.059c0.117,0.235,0.598,0.474,0.83,0.593c0.284,0.146,0.603,0.213,0.889,0.355h0.297
			c0,0.021,0,0.04,0,0.06h0.415c0,0.02,0,0.04,0,0.06h0.889c0-0.02,0-0.04,0-0.06h0.534c0-0.02,0-0.039,0-0.06h0.296
			c0.295-0.11,0.605-0.191,0.89-0.326c0.284-0.134,0.673-0.338,0.83-0.622h0.06c0.055,0.439,0.622,0.686,1.008,0.83h0.355
			c0,0.02,0,0.039,0,0.06h0.533c0-0.021,0-0.04,0-0.06h0.297c0-0.276,0-0.554,0-0.83c0-0.355,0-0.712,0-1.067c0-0.02,0-0.039,0-0.06
			c0-2.431,0-4.861,0-7.292c0-0.455,0-0.909,0-1.363c0-0.939,0-1.878,0-2.816c0-0.237,0-0.475,0-0.712c0-0.118,0-0.237,0-0.355
			c0-0.151-0.018-0.231-0.06-0.355C44.017,58.652,43.941,58.445,43.695,58.222z M41.799,68.063c0,0.712,0,1.423,0,2.135
			c0,0.457-0.007,0.749-0.356,1.067c-0.311,0.282-0.676,0.416-1.067,0.563H40.02c0,0.021,0,0.04,0,0.06h-0.889
			c0-0.02,0-0.039,0-0.06h-0.297c-0.397-0.198-0.774-0.321-1.067-0.682c-0.267-0.328-0.406-0.626-0.533-1.008
			c-0.104-0.313-0.237-0.654-0.237-1.008c0-0.349-0.06-0.646-0.06-1.008c0-0.199,0.034-0.363,0.06-0.533
			c0.014-0.095,0-0.202,0-0.297c0-0.105,0.047-0.159,0.059-0.237c0.031-0.192,0.03-0.349,0.06-0.533
			c0.053-0.025,0.073-0.065,0.059-0.119c0-0.039,0-0.079,0-0.118c0.01-0.064,0.098-0.174,0.119-0.237
			c0.115-0.346,0.337-0.754,0.651-1.008c0.301-0.242,0.646-0.368,1.008-0.504h1.067c0.363,0.136,0.729,0.248,1.067,0.444
			c0.177,0.104,0.396,0.262,0.533,0.415c0.163,0.182,0.179,0.288,0.179,0.534C41.799,66.641,41.799,67.353,41.799,68.063z
			 M27.984,35.396c-0.036-0.256-0.077-0.506-0.119-0.771c-0.001-0.004-0.052-0.154-0.06-0.178c-0.021-0.064-0.038-0.114-0.059-0.178
			c-0.041-0.121-0.08-0.239-0.119-0.355c-0.085-0.254-0.12-0.531-0.237-0.771c-0.113-0.232-0.213-0.497-0.355-0.711
			c-0.166-0.249-0.303-0.513-0.475-0.771c-0.163-0.245-0.336-0.473-0.533-0.711c-0.2-0.242-0.378-0.511-0.593-0.771
			c-0.079-0.096-0.154-0.254-0.237-0.355c-0.106-0.13-0.207-0.221-0.296-0.356c-0.34-0.51-0.724-0.995-1.126-1.482
			c-0.189-0.229-0.344-0.542-0.534-0.771c-0.205-0.247-0.385-0.46-0.593-0.711c-0.189-0.229-0.344-0.542-0.534-0.771
			c-0.186-0.225-0.391-0.424-0.534-0.682h-0.06c-0.023,0.192-0.118,0.384-0.178,0.563c-0.06,0.179-0.088,0.341-0.119,0.533
			c-0.012,0.077-0.106,0.22-0.118,0.297c-0.02,0.12-0.024,0.189-0.06,0.296c-0.058,0.174-0.061,0.359-0.119,0.534
			c-0.057,0.172-0.092,0.416-0.119,0.593c-0.027,0.186-0.03,0.339-0.059,0.534c-0.028,0.188-0.059,0.375-0.059,0.593
			c0,0.099,0,0.198,0,0.296c0,0.105,0.046,0.159,0.059,0.237c0.02,0.123,0.024,0.19,0.059,0.296c0.031,0.092,0.017,0.21,0.06,0.296
			c0.093,0.188,0.237,0.355,0.355,0.534c0.258,0.387,0.569,0.735,0.83,1.126c0.507,0.761,1.094,1.493,1.601,2.253
			c0.303,0.455,0.506,0.939,0.593,1.482c0.012,0.078,0.059,0.131,0.059,0.237c0,0.056-0.009,0.123,0,0.178
			c0.007,0.046,0.05,0.111,0.06,0.178c0.008,0.056,0,0.121,0,0.178c0,0.237,0,0.474,0,0.711c0,0.988,0,1.976,0,2.964
			c0,0.477-0.07,1.012,0,1.482c0.082,0.555,0.411,1.04,0.771,1.482c0.423,0.521,0.879,0.998,1.364,1.482
			c0.252,0.252,0.511,0.475,0.771,0.711c0.197,0.179,0.522,0.329,0.652,0.563h0.119c0-2.935,0-5.87,0-8.805c0-0.257,0-0.514,0-0.771
			c0-0.145-0.041-0.221-0.059-0.356C27.968,35.635,28,35.512,27.984,35.396z M59.052,30.534c0.291-0.438,0.574-0.957,0.651-1.482
			c0.036-0.245,0-0.523,0-0.771c0-0.268-0.083-0.471-0.118-0.711c-0.074-0.504-0.139-1.01-0.297-1.482
			c-0.162-0.487-0.24-0.984-0.474-1.453h-0.06c0.008,0.109-0.125,0.247-0.178,0.326c-0.075,0.113-0.162,0.183-0.237,0.296
			c-0.132,0.198-0.281,0.393-0.415,0.593c-0.131,0.197-0.286,0.4-0.415,0.593c-0.13,0.195-0.271,0.419-0.415,0.593
			c-0.626,0.756-1.184,1.568-1.72,2.372c-0.542,0.814-1.179,1.561-1.719,2.372c-0.258,0.386-0.509,0.775-0.712,1.186
			c-0.013,0.025-0.052,0.156-0.059,0.178c0.014,0.054-0.006,0.093-0.06,0.119c-0.041,0.084-0.089,0.208-0.119,0.296
			c-0.065,0.198-0.111,0.396-0.178,0.593c-0.308,0.923-0.355,1.909-0.355,2.964c0,0.988,0,1.976,0,2.965c0,1.966,0,3.932,0,5.898
			h0.119c0.438-0.29,0.857-0.685,1.244-1.037c0.412-0.375,0.792-0.792,1.187-1.186c0.394-0.395,0.724-0.785,0.948-1.246
			c0.171-0.35,0.178-0.763,0.178-1.186c0-1.62,0-3.241,0-4.861c0-0.548,0.138-1.005,0.297-1.482c0.09-0.269,0.229-0.516,0.355-0.771
			c0.057-0.114,0.171-0.257,0.237-0.355c0.074-0.112,0.161-0.265,0.237-0.356c0.213-0.257,0.359-0.509,0.533-0.771
			c0.167-0.25,0.366-0.46,0.533-0.711C58.37,31.527,58.719,31.034,59.052,30.534z M33.557,34.329c-0.008-0.058,0.008-0.12,0-0.178
			c-0.009-0.067-0.052-0.132-0.059-0.178c-0.04-0.247-0.042-0.481-0.119-0.711c-0.083-0.25-0.094-0.52-0.178-0.771
			c-0.078-0.233-0.159-0.477-0.237-0.711c-0.345-1.034-0.869-2.044-1.482-2.964c-0.342-0.513-0.782-0.965-1.127-1.482
			c-0.341-0.513-0.73-0.999-1.126-1.482c-0.205-0.249-0.38-0.513-0.593-0.771c-0.079-0.096-0.154-0.254-0.237-0.356
			c-0.106-0.13-0.207-0.221-0.297-0.355c-0.342-0.514-0.782-0.966-1.126-1.482c-0.34-0.51-0.785-0.97-1.126-1.482
			c-0.329-0.493-0.801-0.919-1.067-1.453h-0.119c-0.17,0.309-0.404,0.576-0.593,0.859c-0.182,0.273-0.355,0.563-0.534,0.83
			c-0.183,0.275-0.313,0.523-0.415,0.83c-0.083,0.248-0.163,0.533-0.119,0.83c0.193,1.309,1.35,2.232,2.075,3.32
			c0.176,0.264,0.393,0.527,0.593,0.771c0.193,0.236,0.347,0.486,0.534,0.711c0.414,0.5,0.777,0.989,1.186,1.482
			c0.202,0.244,0.384,0.515,0.593,0.771c0.181,0.221,0.372,0.469,0.533,0.711c0.296,0.443,0.604,0.98,0.771,1.482
			c0.166,0.497,0.389,0.946,0.474,1.482c0.054,0.025,0.073,0.065,0.06,0.119c0,0.04,0,0.079,0,0.118
			c0.011,0.079,0.047,0.1,0.059,0.178c0.02,0.136,0.041,0.225,0.06,0.355C29.976,35.051,30,35.258,30,35.514
			c0,0.506,0.059,0.962,0.059,1.482c0,0.494,0,0.988,0,1.482c0,1.977,0,3.953,0,5.93c0,0.493,0,0.987,0,1.481
			c0,0.268-0.018,0.538,0.06,0.771c0.081,0.244,0.219,0.52,0.415,0.712c0.368,0.36,1.001,0.632,1.482,0.83
			c0.495,0.204,1.003,0.383,1.482,0.622h0.178c0-1.729,0-3.458,0-5.188c0-1.977,0-3.953,0-5.929c0-0.494,0-0.988,0-1.482
			c0-0.257,0-0.514,0-0.771c0-0.264-0.059-0.462-0.059-0.711C33.617,34.579,33.578,34.467,33.557,34.329z M53.063,23.242
			c-0.146,0.22-0.313,0.454-0.475,0.652c-0.373,0.456-0.698,0.913-1.067,1.364c-0.388,0.474-0.786,0.973-1.126,1.482
			c-0.345,0.517-0.782,0.966-1.127,1.482c-0.335,0.503-0.691,0.955-0.948,1.482c-0.069,0.143-0.169,0.275-0.237,0.415
			c-0.059,0.12-0.12,0.238-0.178,0.355c-0.059,0.12-0.136,0.23-0.178,0.356c-0.021,0.064-0.038,0.114-0.06,0.178
			c-0.007,0.021-0.047,0.152-0.06,0.178c-0.233,0.474-0.366,0.981-0.533,1.482c-0.157,0.471-0.226,0.979-0.297,1.482
			c-0.034,0.247-0.084,0.523-0.118,0.771c-0.032,0.232,0.037,0.48,0,0.711c-0.013,0.078-0.06,0.131-0.06,0.237
			c0,0.059,0,0.119,0,0.178c0,0.119,0,0.237,0,0.356c0,0.237,0,0.474,0,0.711c0,3.942,0,7.885,0,11.828h0.119
			c0.283-0.142,0.591-0.238,0.889-0.346c0.307-0.11,0.59-0.271,0.89-0.396c0.657-0.271,1.304-0.563,1.601-1.186
			c0.245-0.515,0.178-1.165,0.178-1.779c0-0.593,0-1.186,0-1.778c0-1.977,0-3.953,0-5.929c0-0.494,0-0.988,0-1.482
			c0-0.282,0.06-0.506,0.06-0.771c0-0.057-0.008-0.122,0-0.178c0.01-0.067,0.052-0.132,0.06-0.178c0.019-0.116-0.019-0.24,0-0.355
			c0.054-0.026,0.073-0.065,0.059-0.119c0-0.04,0-0.079,0-0.119c0.011-0.071,0.038-0.112,0.06-0.178
			c0.041-0.122,0.038-0.224,0.06-0.356c0.001-0.004,0.052-0.154,0.06-0.178c0.021-0.064,0.037-0.114,0.059-0.178
			c0.04-0.12,0.079-0.237,0.119-0.356c0.083-0.25,0.181-0.534,0.296-0.771c0.059-0.12,0.121-0.238,0.178-0.355
			c0.063-0.129,0.173-0.225,0.237-0.356c0.527-1.068,1.462-1.955,2.135-2.964c0.342-0.513,0.786-0.972,1.126-1.482
			c0.18-0.27,0.417-0.506,0.593-0.771c0.162-0.242,0.353-0.49,0.534-0.711c0.397-0.485,0.787-0.974,1.126-1.482
			c0.316-0.474,0.415-0.876,0.415-1.482c0-0.547-0.366-1.023-0.593-1.482c-0.068-0.139-0.214-0.291-0.296-0.415
			c-0.075-0.113-0.165-0.247-0.237-0.355c-0.159-0.238-0.39-0.422-0.534-0.682h-0.118c0.011,0.149-0.149,0.22-0.237,0.326
			c-0.077,0.094-0.166,0.249-0.237,0.356c-0.16,0.241-0.375,0.473-0.533,0.711c-0.321,0.482-0.746,0.882-1.067,1.364
			C53.434,22.775,53.229,22.993,53.063,23.242z M48.795,25.91c0.179-0.269,0.414-0.503,0.593-0.771
			c0.162-0.243,0.349-0.485,0.533-0.711c0.398-0.486,0.733-1.007,1.127-1.482c0.21-0.254,0.388-0.523,0.593-0.771
			c0.194-0.234,0.351-0.491,0.533-0.711c0.213-0.257,0.417-0.506,0.593-0.771c0.09-0.135,0.19-0.226,0.297-0.356
			c0.083-0.102,0.157-0.26,0.237-0.356c0.399-0.482,0.771-0.831,0.771-1.482c0-0.671-0.345-0.981-0.83-1.423
			c-0.242-0.22-0.512-0.398-0.771-0.593c-0.241-0.181-0.459-0.396-0.712-0.563h-0.06c-0.109,0.24-0.306,0.419-0.474,0.623
			c-0.158,0.191-0.331,0.437-0.475,0.652c-0.29,0.434-0.659,0.811-0.948,1.245c-0.578,0.866-1.322,1.626-1.897,2.49
			c-0.307,0.46-0.703,0.847-1.008,1.305c-0.291,0.436-0.658,0.809-0.949,1.245c-0.289,0.435-0.659,0.812-0.948,1.245
			c-0.286,0.429-0.608,0.824-0.89,1.245c-0.313,0.47-0.586,0.981-0.83,1.482c-0.238,0.489-0.539,0.967-0.711,1.482
			c-0.325,0.977-0.723,1.921-0.89,2.964c-0.054,0.026-0.073,0.065-0.06,0.119c0,0.04,0,0.079,0,0.119
			c-0.011,0.079-0.047,0.1-0.059,0.178c-0.021,0.137-0.041,0.226-0.06,0.356c-0.034,0.243-0.085,0.474-0.118,0.711
			c-0.069,0.49-0.119,0.968-0.119,1.482c0,0.264-0.06,0.489-0.06,0.771c0,0.237,0,0.475,0,0.711c0,0.494,0,0.988,0,1.482
			c0,3.943,0,7.885,0,11.828c0,0.021,0,0.04,0,0.06s0,0.04,0,0.06s0,0.039,0,0.059c0,0.021,0,0.04,0,0.06s0,0.04,0,0.06h0.356
			c0-0.02,0-0.04,0-0.06h0.771c0-0.02,0-0.039,0-0.06h0.533c0-0.02,0-0.039,0-0.059h0.415c0-0.02,0-0.04,0-0.06h0.356
			c0-0.02,0-0.039,0-0.06h0.296c0.493-0.246,0.949-0.593,0.949-1.156c0-0.435,0-0.869,0-1.304c0-0.89,0-1.779,0-2.668
			c0-1.759,0-3.519,0-5.277c0-0.988,0-1.976,0-2.964c0-0.257,0-0.514,0-0.771c0-0.115-0.017-0.242,0-0.355
			c0.019-0.135,0.059-0.211,0.059-0.356c0-0.518,0.109-0.991,0.178-1.482c0.07-0.495,0.2-1.015,0.356-1.482
			c0.085-0.257,0.151-0.514,0.237-0.771c0.08-0.242,0.216-0.471,0.296-0.711c0.355-1.067,1.025-2.012,1.66-2.965
			C48.013,26.875,48.45,26.426,48.795,25.91z M34.565,30.238c0.021,0.064,0.038,0.114,0.059,0.178
			c0.007,0.021,0.047,0.152,0.059,0.178c0.236,0.478,0.365,0.977,0.534,1.482c0.083,0.25,0.094,0.52,0.178,0.771
			c0.078,0.235,0.077,0.455,0.118,0.711c0.013,0.078,0.06,0.132,0.06,0.237c0,0.056-0.009,0.123,0,0.178
			c0.007,0.046,0.05,0.111,0.059,0.178c0.008,0.058-0.008,0.12,0,0.178c0.033,0.231,0.06,0.453,0.06,0.711
			c0,0.264,0.059,0.489,0.059,0.771c0,0.237,0,0.475,0,0.712c0,0.494,0,0.988,0,1.482c0,1.976,0,3.953,0,5.929
			c0,0.988,0,1.976,0,2.964c0,0.494,0,0.988,0,1.482c0,0.626,0.327,0.993,0.889,1.274h0.296c0,0.021,0,0.04,0,0.06h0.415
			c0,0.02,0,0.04,0,0.06h0.415c0,0.02,0,0.039,0,0.059h0.475c0,0.021,0,0.04,0,0.06h0.652c0,0.02,0,0.04,0,0.06h0.474
			c0-0.02,0-0.04,0-0.06s0-0.039,0-0.06c0-0.02,0-0.039,0-0.059s0-0.04,0-0.06s0-0.039,0-0.06c0-3.35,0-6.699,0-10.049
			c0-0.988,0-1.977,0-2.965c0-0.494,0-0.988,0-1.482c0-0.138,0-0.277,0-0.415c0-0.057,0.008-0.122,0-0.178
			c-0.009-0.067-0.052-0.132-0.059-0.178c-0.019-0.112,0-0.242,0-0.355c0-0.147-0.041-0.232-0.06-0.356
			c-0.021-0.146-0.041-0.288-0.06-0.415c-0.008-0.058,0.009-0.12,0-0.178c-0.009-0.067-0.052-0.132-0.059-0.178
			c-0.01-0.058,0.008-0.12,0-0.178c-0.01-0.067-0.053-0.132-0.06-0.178c-0.021-0.128-0.043-0.244-0.06-0.355
			c-0.073-0.5-0.198-1.011-0.355-1.482c-0.168-0.503-0.299-1.006-0.534-1.482c-0.06-0.122-0.058-0.293-0.118-0.415
			c-0.06-0.12-0.136-0.23-0.178-0.356c-0.044-0.132-0.117-0.23-0.178-0.356c-0.053-0.108-0.066-0.25-0.119-0.355
			c-0.07-0.143-0.169-0.275-0.236-0.415c-0.059-0.12-0.121-0.238-0.178-0.356c-0.062-0.127-0.175-0.229-0.237-0.355
			c-0.055-0.113-0.107-0.25-0.178-0.356c-0.177-0.266-0.354-0.502-0.534-0.771c-0.15-0.226-0.302-0.503-0.474-0.711
			c-0.413-0.499-0.776-0.988-1.186-1.482c-0.202-0.244-0.382-0.516-0.593-0.771c-0.178-0.215-0.375-0.474-0.534-0.711
			c-0.342-0.514-0.785-0.97-1.126-1.482c-0.179-0.269-0.418-0.509-0.593-0.771c-0.09-0.135-0.19-0.226-0.296-0.356
			c-0.083-0.102-0.158-0.26-0.237-0.355c-0.411-0.496-0.777-0.989-1.186-1.482c-0.202-0.244-0.384-0.515-0.593-0.771
			c-0.083-0.102-0.158-0.26-0.237-0.355c-0.087-0.105-0.25-0.176-0.237-0.326h-0.059c-0.478,0.316-0.926,0.702-1.364,1.067
			c-0.211,0.175-0.469,0.361-0.652,0.563c-0.176,0.195-0.218,0.417-0.296,0.652c-0.165,0.494,0.093,0.969,0.356,1.364
			c0.154,0.231,0.379,0.421,0.533,0.652c0.142,0.213,0.312,0.453,0.475,0.652c1.424,1.74,2.711,3.54,4.15,5.276
			c0.2,0.242,0.378,0.511,0.593,0.771c0.182,0.22,0.339,0.477,0.533,0.711c0.183,0.221,0.314,0.53,0.475,0.771
			c0.15,0.225,0.297,0.469,0.415,0.711c0.068,0.14,0.167,0.272,0.237,0.415c0.053,0.105,0.066,0.247,0.119,0.355
			C34.448,30.007,34.521,30.105,34.565,30.238z M30.889,15.475c0.18,0.27,0.38,0.514,0.593,0.771c0.1,0.12,0.182,0.276,0.296,0.415
			c0.077,0.093,0.166,0.249,0.237,0.355c0.166,0.249,0.371,0.467,0.534,0.711c0.344,0.517,0.783,0.967,1.126,1.482
			c0.341,0.512,0.728,1,1.126,1.482c0.189,0.229,0.344,0.542,0.534,0.771c0.107,0.129,0.207,0.221,0.296,0.356
			c0.074,0.111,0.162,0.264,0.237,0.355c0.8,0.966,1.457,2.003,2.252,2.964c0.382,0.461,0.688,1.023,1.067,1.482
			c0.213,0.256,0.394,0.526,0.593,0.771c0.106,0.13,0.207,0.221,0.297,0.356c0.054,0.081,0.188,0.212,0.178,0.326h0.118
			c-0.01-0.133,0.169-0.282,0.237-0.385c0.089-0.134,0.21-0.285,0.297-0.415c0.196-0.294,0.423-0.554,0.652-0.83
			c0.204-0.247,0.412-0.559,0.593-0.83c0.182-0.272,0.411-0.499,0.593-0.771c0.186-0.279,0.404-0.546,0.593-0.83
			c0.18-0.27,0.411-0.498,0.593-0.771c0.365-0.548,0.761-1.088,1.186-1.601c0.202-0.244,0.383-0.516,0.594-0.771
			c0.165-0.2,0.308-0.511,0.474-0.711c0.399-0.482,0.785-0.97,1.127-1.482c0.342-0.513,0.729-1.003,1.126-1.482
			c0.38-0.458,0.688-1.024,1.067-1.482c0.114-0.138,0.197-0.295,0.297-0.415c0.055-0.066,0.3-0.276,0.296-0.355
			c-0.009-0.185-0.495-0.337-0.652-0.415c-0.489-0.245-0.983-0.461-1.481-0.682c-0.962-0.425-1.984-0.64-2.965-1.008h-0.237
			c0-0.02,0-0.04,0-0.059h-0.296c0-0.02,0-0.04,0-0.06H44.17c0-0.02,0-0.04,0-0.059h-0.297c0-0.02,0-0.04,0-0.06h-0.355
			c0-0.02,0-0.04,0-0.059h-0.355c0-0.02,0-0.04,0-0.06h-0.475c0-0.02,0-0.039,0-0.059h-0.593c0-0.02,0-0.04,0-0.059h-1.008
			c0-0.02,0-0.04,0-0.06h-1.541c0,0.02,0,0.04,0,0.06h-1.009c0,0.02,0,0.04,0,0.059h-0.593c0,0.02,0,0.04,0,0.059h-0.474
			c0,0.02,0,0.04,0,0.06h-0.356c0,0.02,0,0.04,0,0.059H36.7c0,0.02,0,0.04,0,0.06h-0.296c0,0.02,0,0.04,0,0.059h-0.296
			c0,0.02,0,0.04,0,0.06H35.87c0,0.02,0,0.04,0,0.059h-0.296c-1.08,0.405-2.194,0.692-3.261,1.136
			c-0.552,0.229-1.084,0.494-1.601,0.791c-0.223,0.128-0.264,0.079-0.119,0.296C30.683,15.194,30.795,15.333,30.889,15.475z"/>
	</g>
</g>
</svg>
